<svg width="486" height="492" viewBox="0 0 486 492" fill="none" xmlns="http://www.w3.org/2000/svg">
<path fill-rule="evenodd" clip-rule="evenodd" d="M269.712 47.6395C309.821 57.3431 351.648 52.8169 387.583 73.745C427.087 96.7509 466.983 126.361 481.512 170.986C496.109 215.821 471.033 261.555 463.956 308.318C455.089 366.906 480.137 443.224 434.861 479.232C389.816 515.056 326.382 464.276 269.712 462.8C215.251 461.381 152.422 506.948 110.462 470.781C67.9828 434.167 104.916 358.692 86.2518 304.671C66.531 247.591 -3.44372 211.989 0.132229 151.444C3.79631 89.4076 47.9428 26.6867 103.944 5.1228C158.657 -15.945 212.89 33.8924 269.712 47.6395Z" fill="#67C973"/>
</svg>
