<svg width="159" height="156" viewBox="0 0 159 156" fill="none" xmlns="http://www.w3.org/2000/svg">
<g filter="url(#filter0_d)">
<path d="M146.365 92.3201C146.276 88.0424 146.531 80.7472 143.651 77.7436C141.121 75.1064 139.154 78.6854 138.444 81.5726C136.724 88.5766 137.531 96.2999 137.536 103.53C137.536 103.64 137.536 103.749 137.536 103.872C137.402 109.195 136.91 114.952 137.357 120.264C137.357 120.264 136.918 114.942 133.71 117.223C130.501 119.504 135.314 131.474 135.314 131.474C135.314 131.474 131.521 127.864 129.77 130.905C128.018 133.947 131.958 137.365 131.958 137.365C131.958 137.365 128.31 136.036 128.31 137.365C128.31 138.694 129.478 139.834 132.834 140.406H150.923C150.923 140.406 153.842 138.314 153.258 136.036C152.675 133.758 149.608 135.07 149.608 135.07C149.608 135.07 154.279 127.659 153.987 124.429C153.695 121.199 147.712 125.001 147.712 125.001C147.712 125.001 152.38 109.609 151.504 102.77C150.815 97.3822 147.604 101.057 145.855 103.139C146.267 99.5593 146.437 95.939 146.365 92.3201Z" fill="#92E3A9" stroke="white" stroke-linecap="round" stroke-linejoin="round"/>
<path opacity="0.5" d="M146.365 92.3201C146.276 88.0424 146.531 80.7472 143.651 77.7436C141.121 75.1064 139.154 78.6854 138.444 81.5726C136.724 88.5766 137.531 96.2999 137.536 103.53C137.536 103.64 137.536 103.749 137.536 103.872C137.402 109.195 136.91 114.952 137.357 120.264C137.357 120.264 136.918 114.942 133.71 117.223C130.501 119.504 135.314 131.474 135.314 131.474C135.314 131.474 131.521 127.864 129.77 130.905C128.018 133.947 131.958 137.365 131.958 137.365C131.958 137.365 128.31 136.036 128.31 137.365C128.31 138.694 129.478 139.834 132.834 140.406H150.923C150.923 140.406 153.842 138.314 153.258 136.036C152.675 133.758 149.608 135.07 149.608 135.07C149.608 135.07 154.279 127.659 153.987 124.429C153.695 121.199 147.712 125.001 147.712 125.001C147.712 125.001 152.38 109.609 151.504 102.77C150.815 97.3822 147.604 101.057 145.855 103.139C146.267 99.5593 146.437 95.939 146.365 92.3201Z" fill="white"/>
<path d="M140.561 140.201L141.876 87.9465" stroke="white" stroke-linecap="round" stroke-linejoin="round"/>
<path d="M141.292 118.35L148.148 109.989" stroke="white" stroke-linecap="round" stroke-linejoin="round"/>
<path d="M144.501 114.548L145.96 109.229" stroke="white" stroke-linecap="round" stroke-linejoin="round"/>
<path d="M135.6 124.809L140.853 132.221" stroke="white" stroke-linecap="round" stroke-linejoin="round"/>
<path d="M149.608 128.991L140.853 134.882" stroke="white" stroke-linecap="round" stroke-linejoin="round"/>
<path d="M144.94 132.408L148.148 132.221" stroke="white" stroke-linecap="round" stroke-linejoin="round"/>
<path d="M140.561 140.201L141.876 87.9465" stroke="#92E3A9" stroke-linecap="round" stroke-linejoin="round"/>
<path d="M141.292 118.35L148.148 109.989" stroke="#92E3A9" stroke-linecap="round" stroke-linejoin="round"/>
<path d="M144.501 114.548L145.96 109.229" stroke="#92E3A9" stroke-linecap="round" stroke-linejoin="round"/>
<path d="M135.6 124.809L140.853 132.221" stroke="#92E3A9" stroke-linecap="round" stroke-linejoin="round"/>
<path d="M149.608 128.991L140.853 134.882" stroke="#92E3A9" stroke-linecap="round" stroke-linejoin="round"/>
<path d="M144.94 132.408L148.148 132.221" stroke="#92E3A9" stroke-linecap="round" stroke-linejoin="round"/>
<g opacity="0.8">
<path opacity="0.8" d="M140.561 140.201L141.876 87.9465" stroke="white" stroke-linecap="round" stroke-linejoin="round"/>
<path opacity="0.8" d="M141.292 118.35L148.148 109.989" stroke="white" stroke-linecap="round" stroke-linejoin="round"/>
<path opacity="0.8" d="M144.5 114.548L145.96 109.229" stroke="white" stroke-linecap="round" stroke-linejoin="round"/>
<path opacity="0.8" d="M135.6 124.809L140.853 132.221" stroke="white" stroke-linecap="round" stroke-linejoin="round"/>
<path opacity="0.8" d="M149.608 128.991L140.853 134.882" stroke="white" stroke-linecap="round" stroke-linejoin="round"/>
<path opacity="0.8" d="M144.94 132.408L148.148 132.221" stroke="white" stroke-linecap="round" stroke-linejoin="round"/>
</g>
<path d="M115.497 129.642C115.497 134.954 118.729 139.262 118.729 139.262C118.729 139.262 121.961 134.954 121.961 129.642C121.961 124.33 118.729 120.021 118.729 120.021C118.729 120.021 115.497 124.326 115.497 129.642Z" fill="#92E3A9"/>
<path d="M113.256 137.838C114.834 140.143 117.501 140.393 117.501 140.393C117.501 140.393 117.63 136.903 116.062 134.598C114.495 132.293 111.817 132.043 111.817 132.043C111.817 132.043 111.686 135.533 113.256 137.838Z" fill="#92E3A9"/>
<path d="M121.493 134.519C119.844 136.728 119.855 140.221 119.855 140.221C119.855 140.221 122.535 140.129 124.181 137.916C125.827 135.704 125.822 132.214 125.822 132.214C125.822 132.214 123.14 132.306 121.493 134.519Z" fill="#92E3A9"/>
<g opacity="0.5">
<path opacity="0.5" d="M115.497 129.642C115.497 134.954 118.729 139.262 118.729 139.262C118.729 139.262 121.961 134.954 121.961 129.642C121.961 124.33 118.729 120.021 118.729 120.021C118.729 120.021 115.497 124.326 115.497 129.642Z" fill="white"/>
<path opacity="0.5" d="M118.729 139.262V120.021" stroke="white" stroke-linecap="round" stroke-linejoin="round"/>
<path opacity="0.5" d="M118.729 126.861L116.92 124.802" stroke="white" stroke-linecap="round" stroke-linejoin="round"/>
<path opacity="0.5" d="M118.758 130.039L120.999 125.813" stroke="white" stroke-linecap="round" stroke-linejoin="round"/>
<path opacity="0.5" d="M118.729 131.871L116.057 128.768" stroke="white" stroke-linecap="round" stroke-linejoin="round"/>
<path opacity="0.5" d="M118.758 134.341L121.401 131.275" stroke="white" stroke-linecap="round" stroke-linejoin="round"/>
<path opacity="0.5" d="M118.758 136.475L116.688 134.341" stroke="white" stroke-linecap="round" stroke-linejoin="round"/>
<path opacity="0.5" d="M113.256 137.838C114.834 140.143 117.501 140.393 117.501 140.393C117.501 140.393 117.63 136.903 116.062 134.598C114.495 132.293 111.817 132.043 111.817 132.043C111.817 132.043 111.686 135.533 113.256 137.838Z" fill="white"/>
<path opacity="0.5" d="M117.501 140.393L111.817 132.043" stroke="white" stroke-linecap="round" stroke-linejoin="round"/>
<path opacity="0.5" d="M113.837 135.012L112.443 135.025" stroke="white" stroke-linecap="round" stroke-linejoin="round"/>
<path opacity="0.5" d="M114.789 136.375L114.513 133.419" stroke="white" stroke-linecap="round" stroke-linejoin="round"/>
<path opacity="0.5" d="M115.318 137.187L113.243 137.177" stroke="white" stroke-linecap="round" stroke-linejoin="round"/>
<path opacity="0.5" d="M116.06 138.242L116.299 135.587" stroke="white" stroke-linecap="round" stroke-linejoin="round"/>
<path opacity="0.5" d="M116.691 139.166L115.163 139.279" stroke="white" stroke-linecap="round" stroke-linejoin="round"/>
<path opacity="0.5" d="M121.493 134.519C119.844 136.728 119.855 140.221 119.855 140.221C119.855 140.221 122.535 140.129 124.181 137.916C125.827 135.704 125.822 132.214 125.822 132.214C125.822 132.214 123.14 132.306 121.493 134.519Z" fill="white"/>
<path opacity="0.5" d="M119.855 140.221L125.822 132.214" stroke="white" stroke-linecap="round" stroke-linejoin="round"/>
<path opacity="0.5" d="M123.699 135.06L123.587 133.252" stroke="white" stroke-linecap="round" stroke-linejoin="round"/>
<path opacity="0.5" d="M122.727 136.399L124.97 135.817" stroke="white" stroke-linecap="round" stroke-linejoin="round"/>
<path opacity="0.5" d="M122.145 137.146L121.998 134.45" stroke="white" stroke-linecap="round" stroke-linejoin="round"/>
<path opacity="0.5" d="M121.391 138.187L123.442 138.303" stroke="white" stroke-linecap="round" stroke-linejoin="round"/>
<path opacity="0.5" d="M120.731 139.074L120.531 137.101" stroke="white" stroke-linecap="round" stroke-linejoin="round"/>
</g>
<path d="M118.729 139.262V120.021" stroke="#92E3A9" stroke-linecap="round" stroke-linejoin="round"/>
<path d="M118.729 126.861L116.92 124.802" stroke="#92E3A9" stroke-linecap="round" stroke-linejoin="round"/>
<path d="M118.758 130.039L120.999 125.813" stroke="#92E3A9" stroke-linecap="round" stroke-linejoin="round"/>
<path d="M118.729 131.871L116.057 128.768" stroke="#92E3A9" stroke-linecap="round" stroke-linejoin="round"/>
<path d="M118.758 134.341L121.401 131.275" stroke="#92E3A9" stroke-linecap="round" stroke-linejoin="round"/>
<path d="M118.758 136.475L116.688 134.341" stroke="#92E3A9" stroke-linecap="round" stroke-linejoin="round"/>
<g opacity="0.7">
<path opacity="0.7" d="M118.729 139.262V120.021" stroke="white" stroke-linecap="round" stroke-linejoin="round"/>
<path opacity="0.7" d="M118.729 126.861L116.92 124.802" stroke="white" stroke-linecap="round" stroke-linejoin="round"/>
<path opacity="0.7" d="M118.758 130.039L120.999 125.813" stroke="white" stroke-linecap="round" stroke-linejoin="round"/>
<path opacity="0.7" d="M118.729 131.871L116.057 128.768" stroke="white" stroke-linecap="round" stroke-linejoin="round"/>
<path opacity="0.7" d="M118.758 134.341L121.401 131.275" stroke="white" stroke-linecap="round" stroke-linejoin="round"/>
<path opacity="0.7" d="M118.758 136.475L116.688 134.341" stroke="white" stroke-linecap="round" stroke-linejoin="round"/>
</g>
<path d="M117.501 140.393L111.817 132.043" stroke="#92E3A9" stroke-linecap="round" stroke-linejoin="round"/>
<path d="M113.837 135.012L112.443 135.025" stroke="#92E3A9" stroke-linecap="round" stroke-linejoin="round"/>
<path d="M114.789 136.375L114.513 133.419" stroke="#92E3A9" stroke-linecap="round" stroke-linejoin="round"/>
<path d="M115.318 137.187L113.243 137.177" stroke="#92E3A9" stroke-linecap="round" stroke-linejoin="round"/>
<path d="M116.06 138.242L116.299 135.587" stroke="#92E3A9" stroke-linecap="round" stroke-linejoin="round"/>
<path d="M116.691 139.166L115.163 139.279" stroke="#92E3A9" stroke-linecap="round" stroke-linejoin="round"/>
<g opacity="0.7">
<path opacity="0.7" d="M117.501 140.393L111.817 132.043" stroke="white" stroke-linecap="round" stroke-linejoin="round"/>
<path opacity="0.7" d="M113.837 135.012L112.443 135.025" stroke="white" stroke-linecap="round" stroke-linejoin="round"/>
<path opacity="0.7" d="M114.789 136.375L114.513 133.419" stroke="white" stroke-linecap="round" stroke-linejoin="round"/>
<path opacity="0.7" d="M115.318 137.187L113.243 137.177" stroke="white" stroke-linecap="round" stroke-linejoin="round"/>
<path opacity="0.7" d="M116.06 138.242L116.299 135.587" stroke="white" stroke-linecap="round" stroke-linejoin="round"/>
<path opacity="0.7" d="M116.691 139.166L115.163 139.279" stroke="white" stroke-linecap="round" stroke-linejoin="round"/>
</g>
<path d="M119.855 140.221L125.822 132.214" stroke="#92E3A9" stroke-linecap="round" stroke-linejoin="round"/>
<path d="M123.699 135.06L123.587 133.252" stroke="#92E3A9" stroke-linecap="round" stroke-linejoin="round"/>
<path d="M122.727 136.399L124.97 135.817" stroke="#92E3A9" stroke-linecap="round" stroke-linejoin="round"/>
<path d="M122.145 137.146L121.998 134.45" stroke="#92E3A9" stroke-linecap="round" stroke-linejoin="round"/>
<path d="M121.391 138.187L123.442 138.303" stroke="#92E3A9" stroke-linecap="round" stroke-linejoin="round"/>
<path d="M120.731 139.074L120.531 137.101" stroke="#92E3A9" stroke-linecap="round" stroke-linejoin="round"/>
<g opacity="0.7">
<path opacity="0.7" d="M119.855 140.221L125.822 132.214" stroke="white" stroke-linecap="round" stroke-linejoin="round"/>
<path opacity="0.7" d="M123.699 135.06L123.587 133.252" stroke="white" stroke-linecap="round" stroke-linejoin="round"/>
<path opacity="0.7" d="M122.727 136.399L124.97 135.817" stroke="white" stroke-linecap="round" stroke-linejoin="round"/>
<path opacity="0.7" d="M122.145 137.146L121.998 134.45" stroke="white" stroke-linecap="round" stroke-linejoin="round"/>
<path opacity="0.7" d="M121.391 138.187L123.442 138.303" stroke="white" stroke-linecap="round" stroke-linejoin="round"/>
<path opacity="0.7" d="M120.731 139.074L120.531 137.101" stroke="white" stroke-linecap="round" stroke-linejoin="round"/>
</g>
<path d="M12.6349 92.3201C12.7217 88.0424 12.4692 80.7473 15.349 77.7436C17.8791 75.1064 19.8463 78.6855 20.5538 81.5727C22.2765 88.5767 21.4664 96.2999 21.4638 103.53C21.4638 103.64 21.4638 103.749 21.4638 103.872C21.6005 109.195 22.0897 114.952 21.6453 120.264C21.6453 120.264 22.0818 114.942 25.2931 117.223C28.5043 119.504 23.6861 131.474 23.6861 131.474C23.6861 131.474 27.4812 127.864 29.2328 130.905C30.9844 133.947 27.0499 137.351 27.0499 137.351C27.0499 137.351 30.6977 136.022 30.6977 137.351C30.6977 138.68 29.53 139.821 26.1741 140.393H8.07709C8.07709 140.393 5.15779 138.3 5.74165 136.022C6.32551 133.745 9.38946 135.07 9.38946 135.07C9.38946 135.07 4.72121 127.659 5.01314 124.429C5.30507 121.199 11.2883 125.001 11.2883 125.001C11.2883 125.001 6.61744 109.609 7.49323 102.78C8.18229 97.3925 11.3962 101.067 13.1425 103.15C12.7312 99.5661 12.5614 95.9424 12.6349 92.3201Z" fill="#92E3A9" stroke="white" stroke-linecap="round" stroke-linejoin="round"/>
<path opacity="0.5" d="M12.6349 92.3201C12.7217 88.0424 12.4692 80.7473 15.349 77.7436C17.8791 75.1064 19.8463 78.6855 20.5538 81.5727C22.2765 88.5767 21.4664 96.2999 21.4638 103.53C21.4638 103.64 21.4638 103.749 21.4638 103.872C21.6005 109.195 22.0897 114.952 21.6453 120.264C21.6453 120.264 22.0818 114.942 25.2931 117.223C28.5043 119.504 23.6861 131.474 23.6861 131.474C23.6861 131.474 27.4812 127.864 29.2328 130.905C30.9844 133.947 27.0499 137.351 27.0499 137.351C27.0499 137.351 30.6977 136.022 30.6977 137.351C30.6977 138.68 29.53 139.821 26.1741 140.393H8.07709C8.07709 140.393 5.15779 138.3 5.74165 136.022C6.32551 133.745 9.38946 135.07 9.38946 135.07C9.38946 135.07 4.72121 127.659 5.01314 124.429C5.30507 121.199 11.2883 125.001 11.2883 125.001C11.2883 125.001 6.61744 109.609 7.49323 102.78C8.18229 97.3925 11.3962 101.067 13.1425 103.15C12.7312 99.5661 12.5614 95.9424 12.6349 92.3201Z" fill="white"/>
<path d="M18.4367 140.201L17.1243 87.9465" stroke="white" stroke-linecap="round" stroke-linejoin="round"/>
<path d="M17.7081 118.35L10.8491 109.989" stroke="white" stroke-linecap="round" stroke-linejoin="round"/>
<path d="M14.4969 114.548L13.0373 109.229" stroke="white" stroke-linecap="round" stroke-linejoin="round"/>
<path d="M23.3968 124.809L18.1447 132.221" stroke="white" stroke-linecap="round" stroke-linejoin="round"/>
<path d="M9.38947 128.991L18.1447 134.882" stroke="white" stroke-linecap="round" stroke-linejoin="round"/>
<path d="M14.0604 132.408L10.8491 132.221" stroke="white" stroke-linecap="round" stroke-linejoin="round"/>
<path d="M18.4367 140.201L17.1243 87.9465" stroke="#92E3A9" stroke-linecap="round" stroke-linejoin="round"/>
<path d="M17.7081 118.35L10.8491 109.989" stroke="#92E3A9" stroke-linecap="round" stroke-linejoin="round"/>
<path d="M14.4969 114.548L13.0373 109.229" stroke="#92E3A9" stroke-linecap="round" stroke-linejoin="round"/>
<path d="M23.3968 124.809L18.1447 132.221" stroke="#92E3A9" stroke-linecap="round" stroke-linejoin="round"/>
<path d="M9.38947 128.991L18.1447 134.882" stroke="#92E3A9" stroke-linecap="round" stroke-linejoin="round"/>
<path d="M14.0604 132.408L10.8491 132.221" stroke="#92E3A9" stroke-linecap="round" stroke-linejoin="round"/>
<g opacity="0.8">
<path opacity="0.8" d="M18.4366 140.201L17.1243 87.9465" stroke="white" stroke-linecap="round" stroke-linejoin="round"/>
<path opacity="0.8" d="M17.7081 118.35L10.8491 109.989" stroke="white" stroke-linecap="round" stroke-linejoin="round"/>
<path opacity="0.8" d="M14.4969 114.548L13.0372 109.229" stroke="white" stroke-linecap="round" stroke-linejoin="round"/>
<path opacity="0.8" d="M23.3968 124.809L18.1447 132.221" stroke="white" stroke-linecap="round" stroke-linejoin="round"/>
<path opacity="0.8" d="M9.38948 128.991L18.1448 134.882" stroke="white" stroke-linecap="round" stroke-linejoin="round"/>
<path opacity="0.8" d="M14.0603 132.408L10.8491 132.221" stroke="white" stroke-linecap="round" stroke-linejoin="round"/>
</g>
<path d="M44.0292 129.642C44.0292 134.954 40.7969 139.262 40.7969 139.262C40.7969 139.262 37.5699 134.954 37.5699 129.642C37.5699 124.33 40.8022 120.021 40.8022 120.021C40.8022 120.021 44.0292 124.326 44.0292 129.642Z" fill="#92E3A9"/>
<path d="M46.2673 137.838C44.6893 140.143 42.0225 140.393 42.0225 140.393C42.0225 140.393 41.8936 136.903 43.4637 134.598C45.0338 132.293 47.7086 132.043 47.7086 132.043C47.7086 132.043 47.8269 135.533 46.2673 137.838Z" fill="#92E3A9"/>
<path d="M38.0328 134.519C39.6792 136.728 39.6713 140.221 39.6713 140.221C39.6713 140.221 36.9913 140.129 35.3423 137.916C33.6933 135.704 33.7038 132.214 33.7038 132.214C33.7038 132.214 36.3838 132.306 38.0328 134.519Z" fill="#92E3A9"/>
<g opacity="0.5">
<path opacity="0.5" d="M44.0292 129.642C44.0292 134.954 40.7969 139.262 40.7969 139.262C40.7969 139.262 37.5699 134.954 37.5699 129.642C37.5699 124.33 40.8022 120.021 40.8022 120.021C40.8022 120.021 44.0292 124.326 44.0292 129.642Z" fill="white"/>
<path opacity="0.5" d="M40.7969 139.262V120.021" stroke="white" stroke-linecap="round" stroke-linejoin="round"/>
<path opacity="0.5" d="M40.7969 126.861L42.6064 124.802" stroke="white" stroke-linecap="round" stroke-linejoin="round"/>
<path opacity="0.5" d="M40.768 130.039L38.5272 125.813" stroke="white" stroke-linecap="round" stroke-linejoin="round"/>
<path opacity="0.5" d="M40.7969 131.871L43.469 128.768" stroke="white" stroke-linecap="round" stroke-linejoin="round"/>
<path opacity="0.5" d="M40.768 134.341L38.1249 131.275" stroke="white" stroke-linecap="round" stroke-linejoin="round"/>
<path opacity="0.5" d="M40.768 136.475L42.8352 134.341" stroke="white" stroke-linecap="round" stroke-linejoin="round"/>
<path opacity="0.5" d="M46.2673 137.838C44.6893 140.143 42.0225 140.393 42.0225 140.393C42.0225 140.393 41.8936 136.903 43.4637 134.598C45.0338 132.293 47.7086 132.043 47.7086 132.043C47.7086 132.043 47.8269 135.533 46.2673 137.838Z" fill="white"/>
<path opacity="0.5" d="M42.0225 140.393L47.7086 132.043" stroke="white" stroke-linecap="round" stroke-linejoin="round"/>
<path opacity="0.5" d="M45.6887 135.012L47.08 135.025" stroke="white" stroke-linecap="round" stroke-linejoin="round"/>
<path opacity="0.5" d="M44.7367 136.375L45.0128 133.419" stroke="white" stroke-linecap="round" stroke-linejoin="round"/>
<path opacity="0.5" d="M44.2054 137.187L46.2831 137.177" stroke="white" stroke-linecap="round" stroke-linejoin="round"/>
<path opacity="0.5" d="M43.4637 138.242L43.2244 135.587" stroke="white" stroke-linecap="round" stroke-linejoin="round"/>
<path opacity="0.5" d="M42.8352 139.166L44.3632 139.279" stroke="white" stroke-linecap="round" stroke-linejoin="round"/>
<path opacity="0.5" d="M38.0328 134.519C39.6792 136.728 39.6713 140.221 39.6713 140.221C39.6713 140.221 36.9913 140.129 35.3423 137.916C33.6933 135.704 33.7038 132.214 33.7038 132.214C33.7038 132.214 36.3838 132.306 38.0328 134.519Z" fill="white"/>
<path opacity="0.5" d="M39.6713 140.221L33.7038 132.214" stroke="white" stroke-linecap="round" stroke-linejoin="round"/>
<path opacity="0.5" d="M35.8236 135.06L35.9389 133.252" stroke="white" stroke-linecap="round" stroke-linejoin="round"/>
<path opacity="0.5" d="M36.7993 136.399L34.5559 135.817" stroke="white" stroke-linecap="round" stroke-linejoin="round"/>
<path opacity="0.5" d="M37.3779 137.146L37.5278 134.45" stroke="white" stroke-linecap="round" stroke-linejoin="round"/>
<path opacity="0.5" d="M38.1327 138.187L36.0813 138.303" stroke="white" stroke-linecap="round" stroke-linejoin="round"/>
<path opacity="0.5" d="M38.7955 139.074L38.9928 137.101" stroke="white" stroke-linecap="round" stroke-linejoin="round"/>
</g>
<path d="M40.7969 139.262V120.021" stroke="#92E3A9" stroke-linecap="round" stroke-linejoin="round"/>
<path d="M40.7969 126.861L42.6064 124.802" stroke="#92E3A9" stroke-linecap="round" stroke-linejoin="round"/>
<path d="M40.768 130.039L38.5272 125.813" stroke="#92E3A9" stroke-linecap="round" stroke-linejoin="round"/>
<path d="M40.7969 131.871L43.469 128.768" stroke="#92E3A9" stroke-linecap="round" stroke-linejoin="round"/>
<path d="M40.768 134.341L38.1248 131.275" stroke="#92E3A9" stroke-linecap="round" stroke-linejoin="round"/>
<path d="M40.768 136.475L42.8352 134.341" stroke="#92E3A9" stroke-linecap="round" stroke-linejoin="round"/>
<g opacity="0.7">
<path opacity="0.7" d="M40.7969 139.262V120.021" stroke="white" stroke-linecap="round" stroke-linejoin="round"/>
<path opacity="0.7" d="M40.7969 126.861L42.6064 124.802" stroke="white" stroke-linecap="round" stroke-linejoin="round"/>
<path opacity="0.7" d="M40.768 130.039L38.5272 125.813" stroke="white" stroke-linecap="round" stroke-linejoin="round"/>
<path opacity="0.7" d="M40.7969 131.871L43.469 128.768" stroke="white" stroke-linecap="round" stroke-linejoin="round"/>
<path opacity="0.7" d="M40.768 134.341L38.1248 131.275" stroke="white" stroke-linecap="round" stroke-linejoin="round"/>
<path opacity="0.7" d="M40.768 136.475L42.8352 134.341" stroke="white" stroke-linecap="round" stroke-linejoin="round"/>
</g>
<path d="M42.0225 140.393L47.7085 132.043" stroke="#92E3A9" stroke-linecap="round" stroke-linejoin="round"/>
<path d="M45.6887 135.012L47.08 135.025" stroke="#92E3A9" stroke-linecap="round" stroke-linejoin="round"/>
<path d="M44.7367 136.375L45.0128 133.419" stroke="#92E3A9" stroke-linecap="round" stroke-linejoin="round"/>
<path d="M44.2054 137.187L46.2831 137.177" stroke="#92E3A9" stroke-linecap="round" stroke-linejoin="round"/>
<path d="M43.4638 138.242L43.2244 135.587" stroke="#92E3A9" stroke-linecap="round" stroke-linejoin="round"/>
<path d="M42.8352 139.166L44.3632 139.279" stroke="#92E3A9" stroke-linecap="round" stroke-linejoin="round"/>
<g opacity="0.7">
<path opacity="0.7" d="M42.0225 140.393L47.7085 132.043" stroke="white" stroke-linecap="round" stroke-linejoin="round"/>
<path opacity="0.7" d="M45.6887 135.012L47.08 135.025" stroke="white" stroke-linecap="round" stroke-linejoin="round"/>
<path opacity="0.7" d="M44.7367 136.375L45.0128 133.419" stroke="white" stroke-linecap="round" stroke-linejoin="round"/>
<path opacity="0.7" d="M44.2054 137.187L46.2831 137.177" stroke="white" stroke-linecap="round" stroke-linejoin="round"/>
<path opacity="0.7" d="M43.4638 138.242L43.2244 135.587" stroke="white" stroke-linecap="round" stroke-linejoin="round"/>
<path opacity="0.7" d="M42.8352 139.166L44.3632 139.279" stroke="white" stroke-linecap="round" stroke-linejoin="round"/>
</g>
<path d="M39.6713 140.221L33.7038 132.214" stroke="#92E3A9" stroke-linecap="round" stroke-linejoin="round"/>
<path d="M35.8236 135.06L35.9389 133.252" stroke="#92E3A9" stroke-linecap="round" stroke-linejoin="round"/>
<path d="M36.7993 136.399L34.5559 135.817" stroke="#92E3A9" stroke-linecap="round" stroke-linejoin="round"/>
<path d="M37.3779 137.146L37.5278 134.45" stroke="#92E3A9" stroke-linecap="round" stroke-linejoin="round"/>
<path d="M38.1327 138.187L36.0813 138.303" stroke="#92E3A9" stroke-linecap="round" stroke-linejoin="round"/>
<path d="M38.7955 139.074L38.9928 137.101" stroke="#92E3A9" stroke-linecap="round" stroke-linejoin="round"/>
<g opacity="0.7">
<path opacity="0.7" d="M39.6713 140.221L33.7038 132.214" stroke="white" stroke-linecap="round" stroke-linejoin="round"/>
<path opacity="0.7" d="M35.8236 135.06L35.9389 133.252" stroke="white" stroke-linecap="round" stroke-linejoin="round"/>
<path opacity="0.7" d="M36.7993 136.399L34.5559 135.817" stroke="white" stroke-linecap="round" stroke-linejoin="round"/>
<path opacity="0.7" d="M37.3779 137.146L37.5278 134.45" stroke="white" stroke-linecap="round" stroke-linejoin="round"/>
<path opacity="0.7" d="M38.1327 138.187L36.0813 138.303" stroke="white" stroke-linecap="round" stroke-linejoin="round"/>
<path opacity="0.7" d="M38.7955 139.074L38.9928 137.101" stroke="white" stroke-linecap="round" stroke-linejoin="round"/>
</g>
<path d="M116.832 38.6033H45.7347C45.7134 38.6037 45.6923 38.5986 45.6725 38.5884C45.6528 38.5781 45.6348 38.5628 45.6196 38.5433C45.6044 38.5239 45.5923 38.5007 45.5841 38.4751C45.5759 38.4496 45.5717 38.4221 45.5717 38.3944C45.5717 38.3381 45.5888 38.2841 45.6194 38.2443C45.65 38.2045 45.6915 38.1821 45.7347 38.1821H116.832C116.853 38.1821 116.874 38.1877 116.894 38.1984C116.913 38.2091 116.931 38.2248 116.946 38.2445C116.961 38.2643 116.973 38.2877 116.98 38.3134C116.988 38.3392 116.992 38.3667 116.992 38.3944C116.992 38.4498 116.975 38.5029 116.945 38.5421C116.915 38.5813 116.874 38.6033 116.832 38.6033Z" fill="#92E3A9"/>
<g opacity="0.3">
<path opacity="0.3" d="M116.832 38.6033H45.7347C45.7134 38.6037 45.6923 38.5986 45.6725 38.5884C45.6528 38.5781 45.6348 38.5628 45.6196 38.5433C45.6044 38.5239 45.5923 38.5007 45.5841 38.4751C45.5759 38.4496 45.5717 38.4221 45.5717 38.3944C45.5717 38.3381 45.5888 38.2841 45.6194 38.2443C45.65 38.2045 45.6915 38.1821 45.7347 38.1821H116.832C116.853 38.1821 116.874 38.1877 116.894 38.1984C116.913 38.2091 116.931 38.2248 116.946 38.2445C116.961 38.2643 116.973 38.2877 116.98 38.3134C116.988 38.3392 116.992 38.3667 116.992 38.3944C116.992 38.4498 116.975 38.5029 116.945 38.5421C116.915 38.5813 116.874 38.6033 116.832 38.6033Z" fill="white"/>
</g>
<path d="M116.691 75.3256H45.5941C45.5728 75.3261 45.5516 75.321 45.5319 75.3107C45.5121 75.3004 45.4941 75.2851 45.4789 75.2657C45.4637 75.2462 45.4517 75.223 45.4435 75.1974C45.4352 75.1719 45.431 75.1444 45.431 75.1167C45.431 75.0603 45.4482 75.0063 45.4788 74.9665C45.5093 74.9267 45.5508 74.9043 45.5941 74.9043H116.691C116.712 74.9043 116.733 74.9098 116.753 74.9205C116.772 74.9312 116.79 74.9469 116.805 74.9667C116.82 74.9865 116.832 75.0099 116.84 75.0357C116.848 75.0614 116.852 75.0889 116.851 75.1167C116.851 75.1441 116.847 75.1713 116.839 75.1966C116.831 75.222 116.819 75.245 116.804 75.2644C116.789 75.2838 116.772 75.2992 116.752 75.3097C116.733 75.3202 116.712 75.3256 116.691 75.3256Z" fill="#92E3A9"/>
<g opacity="0.3">
<path opacity="0.3" d="M116.691 75.3256H45.5941C45.5728 75.3261 45.5516 75.321 45.5319 75.3107C45.5121 75.3004 45.4941 75.2851 45.4789 75.2657C45.4637 75.2462 45.4517 75.223 45.4435 75.1974C45.4352 75.1719 45.431 75.1444 45.431 75.1167C45.431 75.0603 45.4482 75.0063 45.4788 74.9665C45.5093 74.9267 45.5508 74.9043 45.5941 74.9043H116.691C116.712 74.9043 116.733 74.9098 116.753 74.9205C116.772 74.9312 116.79 74.9469 116.805 74.9667C116.82 74.9865 116.832 75.0099 116.84 75.0357C116.848 75.0614 116.852 75.0889 116.851 75.1167C116.851 75.1441 116.847 75.1713 116.839 75.1966C116.831 75.222 116.819 75.245 116.804 75.2644C116.789 75.2838 116.772 75.2992 116.752 75.3097C116.733 75.3202 116.712 75.3256 116.691 75.3256Z" fill="white"/>
</g>
<path d="M116.691 105.345H45.5941C45.5508 105.345 45.5093 105.323 45.4788 105.283C45.4482 105.243 45.431 105.189 45.431 105.133C45.431 105.105 45.4352 105.078 45.4435 105.052C45.4517 105.026 45.4637 105.003 45.4789 104.984C45.4941 104.964 45.5121 104.949 45.5319 104.939C45.5516 104.928 45.5728 104.923 45.5941 104.924H116.691C116.712 104.924 116.733 104.929 116.752 104.94C116.772 104.95 116.789 104.966 116.804 104.985C116.819 105.004 116.831 105.028 116.839 105.053C116.847 105.078 116.851 105.105 116.851 105.133C116.852 105.161 116.848 105.188 116.84 105.214C116.832 105.24 116.82 105.263 116.805 105.283C116.79 105.303 116.772 105.318 116.753 105.329C116.733 105.34 116.712 105.345 116.691 105.345Z" fill="#92E3A9"/>
<g opacity="0.3">
<path opacity="0.3" d="M116.691 105.345H45.5941C45.5508 105.345 45.5093 105.323 45.4788 105.283C45.4482 105.243 45.431 105.189 45.431 105.133C45.431 105.105 45.4352 105.078 45.4435 105.052C45.4517 105.026 45.4637 105.003 45.4789 104.984C45.4941 104.964 45.5121 104.949 45.5319 104.939C45.5516 104.928 45.5728 104.923 45.5941 104.924H116.691C116.712 104.924 116.733 104.929 116.752 104.94C116.772 104.95 116.789 104.966 116.804 104.985C116.819 105.004 116.831 105.028 116.839 105.053C116.847 105.078 116.851 105.105 116.851 105.133C116.852 105.161 116.848 105.188 116.84 105.214C116.832 105.24 116.82 105.263 116.805 105.283C116.79 105.303 116.772 105.318 116.753 105.329C116.733 105.34 116.712 105.345 116.691 105.345Z" fill="white"/>
</g>
<path d="M60.7086 110.424V141.667" stroke="#263238" stroke-width="0.265171" stroke-miterlimit="10"/>
<path d="M64.1356 110.424V141.667" stroke="#263238" stroke-width="0.265171" stroke-miterlimit="10"/>
<path d="M67.5625 110.424V141.667" stroke="#263238" stroke-width="0.265171" stroke-miterlimit="10"/>
<path d="M70.9893 110.424V141.667" stroke="#263238" stroke-width="0.265171" stroke-miterlimit="10"/>
<path d="M74.4162 110.424V141.667" stroke="#263238" stroke-width="0.265171" stroke-miterlimit="10"/>
<path d="M77.8431 110.424V141.667" stroke="#263238" stroke-width="0.265171" stroke-miterlimit="10"/>
<path d="M81.27 110.424V141.667" stroke="#263238" stroke-width="0.265171" stroke-miterlimit="10"/>
<path d="M84.6969 110.424V141.667" stroke="#263238" stroke-width="0.265171" stroke-miterlimit="10"/>
<path d="M88.1238 110.424V141.667" stroke="#263238" stroke-width="0.265171" stroke-miterlimit="10"/>
<path d="M91.5506 110.424V141.667" stroke="#263238" stroke-width="0.265171" stroke-miterlimit="10"/>
<path d="M94.9775 110.424V141.667" stroke="#263238" stroke-width="0.265171" stroke-miterlimit="10"/>
<path d="M98.4044 110.424V141.667" stroke="#263238" stroke-width="0.265171" stroke-miterlimit="10"/>
<path d="M60.8796 113.325H98.2335" stroke="#263238" stroke-width="0.265171" stroke-miterlimit="10"/>
<path d="M60.8796 117.565H98.2335" stroke="#263238" stroke-width="0.265171" stroke-miterlimit="10"/>
<path d="M60.8796 121.805H98.2335" stroke="#263238" stroke-width="0.265171" stroke-miterlimit="10"/>
<path d="M60.8796 126.045H98.2335" stroke="#263238" stroke-width="0.265171" stroke-miterlimit="10"/>
<path d="M60.8796 130.286H98.2335" stroke="#263238" stroke-width="0.265171" stroke-miterlimit="10"/>
<path d="M60.8796 134.526H98.2335" stroke="#263238" stroke-width="0.265171" stroke-miterlimit="10"/>
<path d="M60.8796 138.766H98.2335" stroke="#263238" stroke-width="0.265171" stroke-miterlimit="10"/>
<path d="M68.7275 121.384L63.7148 141.509H74.2137L69.1983 121.384C69.1823 121.319 69.1509 121.263 69.1086 121.223C69.0663 121.182 69.0153 121.161 68.9629 121.161C68.9106 121.161 68.8596 121.182 68.8173 121.223C68.775 121.263 68.7435 121.319 68.7275 121.384Z" fill="#92E3A9" stroke="#263238" stroke-width="1.06068" stroke-miterlimit="10"/>
<path d="M78.285 114.719L71.6126 141.509H85.4359L78.7557 114.719C78.7397 114.654 78.7083 114.598 78.666 114.557C78.6237 114.517 78.5727 114.496 78.5203 114.496C78.468 114.496 78.417 114.517 78.3747 114.557C78.3324 114.598 78.301 114.654 78.285 114.719Z" fill="#263238" stroke="#263238" stroke-width="1.06068" stroke-miterlimit="10"/>
<path d="M87.0797 125.987L83.211 141.509H91.4166L87.5399 125.987C87.5218 125.927 87.4901 125.875 87.4491 125.839C87.408 125.803 87.3595 125.783 87.3098 125.783C87.2601 125.783 87.2116 125.803 87.1706 125.839C87.1295 125.875 87.0978 125.927 87.0797 125.987Z" fill="#92E3A9" stroke="#263238" stroke-width="1.06068" stroke-miterlimit="10"/>
<path d="M92.3791 131.317L89.8412 141.509H95.3878L92.8499 131.317C92.8339 131.252 92.8025 131.195 92.7602 131.155C92.7179 131.115 92.6669 131.093 92.6145 131.093C92.5622 131.093 92.5111 131.115 92.4688 131.155C92.4265 131.195 92.3951 131.252 92.3791 131.317Z" fill="#263238" stroke="#263238" stroke-width="1.06068" stroke-miterlimit="10"/>
<path d="M60.2563 100.55C58.7525 100.55 57.2825 99.9696 56.0321 98.8816C54.7817 97.7936 53.8072 96.2472 53.2317 94.4379C52.6562 92.6287 52.5057 90.6378 52.7991 88.7171C53.0924 86.7964 53.8166 85.0321 54.8799 83.6474C55.9433 82.2626 57.298 81.3196 58.7729 80.9375C60.2479 80.5555 61.7766 80.7516 63.166 81.501C64.5553 82.2504 65.7428 83.5195 66.5782 85.1478C67.4137 86.7761 67.8596 88.6904 67.8596 90.6488C67.8575 93.274 67.0558 95.7909 65.6303 97.6472C64.2049 99.5035 62.2722 100.548 60.2563 100.55ZM60.2563 83.6551C59.1942 83.6557 58.1562 84.0665 57.2733 84.8354C56.3905 85.6043 55.7026 86.6968 55.2965 87.9748C54.8904 89.2528 54.7845 90.6589 54.992 92.0153C55.1995 93.3717 55.7112 94.6176 56.4624 95.5953C57.2135 96.573 58.1705 97.2388 59.2122 97.5084C60.2539 97.778 61.3335 97.6393 62.3147 97.1098C63.2959 96.5804 64.1345 95.684 64.7245 94.5339C65.3145 93.3839 65.6294 92.0319 65.6294 90.6488C65.628 88.7939 65.0614 87.0155 64.0539 85.7043C63.0465 84.393 61.6807 83.656 60.2563 83.6551Z" fill="#263238" stroke="#263238" stroke-width="1.06068" stroke-miterlimit="10"/>
<path d="M60.2563 100.55C59.2301 100.554 58.2141 100.286 57.2704 99.7612C56.3266 99.2365 55.475 98.4666 54.7675 97.4987L56.3797 95.4882C56.8792 96.1721 57.4807 96.7159 58.1473 97.0863C58.8139 97.4568 59.5315 97.646 60.2563 97.6425C60.9615 97.6425 61.6599 97.4616 62.3115 97.1102C62.963 96.7587 63.5551 96.2435 64.0538 95.5941C64.5525 94.9447 64.948 94.1737 65.2179 93.3252C65.4878 92.4767 65.6267 91.5672 65.6267 90.6488C65.6267 89.7304 65.4878 88.8209 65.2179 87.9724C64.948 87.1239 64.5525 86.3529 64.0538 85.7035C63.5551 85.0541 62.963 84.5389 62.3115 84.1874C61.6599 83.836 60.9615 83.6551 60.2563 83.6551V80.7473C61.2548 80.7473 62.2435 81.0034 63.1659 81.501C64.0884 81.9986 64.9266 82.7279 65.6326 83.6474C66.3387 84.5668 66.8987 85.6584 67.2808 86.8597C67.6629 88.061 67.8596 89.3485 67.8596 90.6488C67.8596 91.9491 67.6629 93.2366 67.2808 94.4379C66.8987 95.6392 66.3387 96.7308 65.6326 97.6502C64.9266 98.5697 64.0884 99.299 63.1659 99.7966C62.2435 100.294 61.2548 100.55 60.2563 100.55Z" fill="#92E3A9" stroke="#263238" stroke-width="1.06068" stroke-miterlimit="10"/>
<path d="M79.0082 100.55C77.5043 100.551 76.034 99.9709 74.7833 98.8833C73.5326 97.7957 72.5576 96.2496 71.9817 94.4403C71.4059 92.6311 71.2549 90.6402 71.548 88.7192C71.8411 86.7983 72.565 85.0337 73.6283 83.6486C74.6915 82.2635 76.0463 81.3201 77.5212 80.9378C78.9962 80.5555 80.5251 80.7514 81.9146 81.5007C83.3041 82.25 84.4917 83.5191 85.3273 85.1475C86.1629 86.7759 86.6089 88.6903 86.6089 90.6488C86.6068 93.2734 85.8054 95.7898 84.3805 97.646C82.9557 99.5023 81.0236 100.547 79.0082 100.55ZM79.0082 83.6551C77.9462 83.6564 76.9084 84.0678 76.0259 84.8371C75.1435 85.6064 74.4559 86.6991 74.0503 87.9772C73.6446 89.2552 73.539 90.6612 73.7468 92.0174C73.9546 93.3736 74.4665 94.6192 75.2178 95.5966C75.9691 96.574 76.926 97.2394 77.9676 97.5087C79.0093 97.778 80.0888 97.6391 81.0698 97.1095C82.0509 96.58 82.8893 95.6836 83.4792 94.5336C84.0691 93.3837 84.3839 92.0318 84.3839 90.6488C84.3818 88.7936 83.8146 87.0153 82.8068 85.7041C81.7989 84.3929 80.4328 83.656 79.0082 83.6551Z" fill="#263238" stroke="#263238" stroke-width="1.06068" stroke-miterlimit="10"/>
<path d="M81.9669 99.7694L81.099 97.0945C82.2396 96.465 83.1781 95.3415 83.7556 93.9143C84.3331 92.4871 84.5142 90.8439 84.2683 89.2628C84.0223 87.6817 83.3643 86.2599 82.4058 85.238C81.4472 84.2161 80.247 83.6569 79.0082 83.6551V80.7473C80.7625 80.7476 82.4629 81.5378 83.8209 82.9842C85.1789 84.4305 86.1111 86.4439 86.4594 88.6831C86.8077 90.9223 86.5506 93.2494 85.7319 95.2699C84.9131 97.2905 83.5829 98.8801 81.9669 99.7694Z" fill="#92E3A9" stroke="#263238" stroke-width="1.06068" stroke-miterlimit="10"/>
<path d="M97.7574 100.55C96.2537 100.55 94.7836 99.9696 93.5333 98.8816C92.2829 97.7937 91.3084 96.2472 90.7329 94.438C90.1574 92.6287 90.0068 90.6378 90.3002 88.7171C90.5936 86.7964 91.3177 85.0322 92.3811 83.6474C93.4444 82.2627 94.7992 81.3196 96.2741 80.9376C97.749 80.5555 99.2778 80.7516 100.667 81.501C102.056 82.2504 103.244 83.5195 104.079 85.1478C104.915 86.7761 105.361 88.6905 105.361 90.6488C105.359 93.274 104.557 95.7909 103.131 97.6473C101.706 99.5036 99.7733 100.548 97.7574 100.55ZM97.7574 83.6551C96.6953 83.6551 95.6569 84.0653 94.7738 84.8337C93.8906 85.6022 93.2023 86.6945 92.7958 87.9724C92.3893 89.2504 92.283 90.6566 92.4902 92.0132C92.6974 93.3699 93.2089 94.6161 93.96 95.5942C94.711 96.5722 95.668 97.2383 96.7097 97.5082C97.7515 97.778 98.8313 97.6395 99.8126 97.1102C100.794 96.5809 101.633 95.6845 102.223 94.5343C102.813 93.3842 103.128 92.0321 103.128 90.6488C103.127 88.7945 102.56 87.0167 101.553 85.7055C100.547 84.3943 99.1814 83.6569 97.7574 83.6551Z" fill="#263238" stroke="#263238" stroke-width="1.06068" stroke-miterlimit="10"/>
<path d="M103.023 89.2548C102.773 87.6767 102.114 86.2585 101.156 85.2387C100.198 84.2189 99 83.6597 97.7627 83.6551V80.7473C99.5151 80.7531 101.212 81.5445 102.569 82.9885C103.926 84.4325 104.86 86.4409 105.214 88.676L103.023 89.2548Z" fill="#92E3A9" stroke="#263238" stroke-width="1.06068" stroke-miterlimit="10"/>
<path d="M63.2887 69.7841H98.9962" stroke="#263238" stroke-width="1.06068" stroke-miterlimit="10"/>
<path d="M63.2887 69.7841V68.7942" stroke="#263238" stroke-width="1.06068" stroke-miterlimit="10"/>
<path d="M70.4291 69.7841V68.7942" stroke="#263238" stroke-width="1.06068" stroke-miterlimit="10"/>
<path d="M77.5722 69.7841V68.7942" stroke="#263238" stroke-width="1.06068" stroke-miterlimit="10"/>
<path d="M84.7127 69.7841V68.7942" stroke="#263238" stroke-width="1.06068" stroke-miterlimit="10"/>
<path d="M91.8531 69.7841V68.7942" stroke="#263238" stroke-width="1.06068" stroke-miterlimit="10"/>
<path d="M98.9962 69.7841V68.7942" stroke="#263238" stroke-width="1.06068" stroke-miterlimit="10"/>
<path d="M69.4297 56.5672H64.2881V64.4959H69.4297V56.5672Z" fill="#92E3A9" stroke="#263238" stroke-width="1.06068" stroke-miterlimit="10"/>
<path d="M76.5702 47.3164H71.4285V65.8179H76.5702V47.3164Z" fill="#92E3A9" stroke="#263238" stroke-width="1.06068" stroke-miterlimit="10"/>
<path d="M83.7133 34.3666H78.5716V54.9847H83.7133V34.3666Z" fill="#92E3A9" stroke="#263238" stroke-width="1.06068" stroke-miterlimit="10"/>
<path d="M90.8537 53.6628H85.712V57.6289H90.8537V53.6628Z" fill="#92E3A9" stroke="#263238" stroke-width="1.06068" stroke-miterlimit="10"/>
<path d="M97.9942 51.2825H92.8525V61.5916H97.9942V51.2825Z" fill="#92E3A9" stroke="#263238" stroke-width="1.06068" stroke-miterlimit="10"/>
<path d="M69.4297 64.4994H64.2881V69.7875H69.4297V64.4994Z" fill="#263238" stroke="#263238" stroke-width="1.06068" stroke-miterlimit="10"/>
<path d="M76.5702 65.8214H71.4285V69.7875H76.5702V65.8214Z" fill="#263238" stroke="#263238" stroke-width="1.06068" stroke-miterlimit="10"/>
<path d="M83.7133 54.9814H78.5716V69.7841H83.7133V54.9814Z" fill="#263238" stroke="#263238" stroke-width="1.06068" stroke-miterlimit="10"/>
<path d="M90.8537 57.6256H85.712V69.7841H90.8537V57.6256Z" fill="#263238" stroke="#263238" stroke-width="1.06068" stroke-miterlimit="10"/>
<path d="M97.9942 61.5916H92.8525V69.7841H97.9942V61.5916Z" fill="#263238" stroke="#263238" stroke-width="1.06068" stroke-miterlimit="10"/>
<path d="M108.512 30.6233C108.45 30.6239 108.389 30.6044 108.334 30.5668C108.28 30.5291 108.233 30.4744 108.199 30.4075L97.1368 9.39885L85.9146 24.9824L74.4557 15.2555L63.3702 18.6051L52.1112 30.5137C52.0331 30.5963 51.9329 30.6352 51.8328 30.6217C51.7327 30.6082 51.6408 30.5435 51.5773 30.4418C51.5138 30.34 51.484 30.2096 51.4943 30.0792C51.5047 29.9488 51.5544 29.8292 51.6325 29.7465L63.0283 17.6941L74.6003 14.1972L85.7989 23.7049L97.2315 7.8268L108.825 29.8492C108.864 29.9232 108.887 30.0096 108.891 30.0994C108.895 30.1891 108.881 30.2787 108.849 30.3584C108.817 30.4381 108.769 30.5049 108.71 30.5516C108.651 30.5982 108.583 30.6231 108.514 30.6233H108.512Z" fill="#263238"/>
<path d="M52.8239 30.1301C52.8239 30.3719 52.7688 30.6083 52.6657 30.8094C52.5625 31.0104 52.4159 31.1672 52.2443 31.2597C52.0727 31.3522 51.884 31.3765 51.7018 31.3293C51.5197 31.2821 51.3524 31.1656 51.2211 30.9947C51.0898 30.8237 51.0004 30.6058 50.9641 30.3686C50.9279 30.1314 50.9465 29.8856 51.0176 29.6622C51.0886 29.4388 51.209 29.2478 51.3634 29.1135C51.5178 28.9791 51.6993 28.9074 51.885 28.9074C52.134 28.9074 52.3728 29.0362 52.5489 29.2655C52.725 29.4948 52.8239 29.8058 52.8239 30.1301Z" fill="#92E3A9"/>
<path d="M63.1993 19.3723C63.7178 19.3723 64.1382 18.8249 64.1382 18.1496C64.1382 17.4743 63.7178 16.9268 63.1993 16.9268C62.6807 16.9268 62.2604 17.4743 62.2604 18.1496C62.2604 18.8249 62.6807 19.3723 63.1993 19.3723Z" fill="#92E3A9"/>
<path d="M74.5267 15.9473C75.0452 15.9473 75.4656 15.3999 75.4656 14.7246C75.4656 14.0493 75.0452 13.5019 74.5267 13.5019C74.0081 13.5019 73.5878 14.0493 73.5878 14.7246C73.5878 15.3999 74.0081 15.9473 74.5267 15.9473Z" fill="#92E3A9"/>
<path d="M85.8541 25.5645C86.3726 25.5645 86.793 25.0171 86.793 24.3419C86.793 23.6666 86.3726 23.1192 85.8541 23.1192C85.3355 23.1192 84.9152 23.6666 84.9152 24.3419C84.9152 25.0171 85.3355 25.5645 85.8541 25.5645Z" fill="#92E3A9"/>
<path d="M98.1204 8.61459C98.1204 8.85642 98.0653 9.09283 97.9622 9.29391C97.859 9.49499 97.7123 9.65171 97.5408 9.74426C97.3692 9.83681 97.1804 9.86102 96.9983 9.81384C96.8162 9.76666 96.6489 9.65021 96.5176 9.4792C96.3863 9.3082 96.2968 9.09032 96.2606 8.85313C96.2244 8.61594 96.243 8.37009 96.314 8.14666C96.3851 7.92323 96.5054 7.73227 96.6598 7.59791C96.8142 7.46355 96.9958 7.39184 97.1815 7.39184C97.4305 7.39184 97.6693 7.52066 97.8454 7.74997C98.0215 7.97928 98.1204 8.29029 98.1204 8.61459Z" fill="#92E3A9"/>
<path d="M109.448 30.1301C109.448 30.3719 109.393 30.6083 109.29 30.8094C109.186 31.0104 109.04 31.1672 108.868 31.2597C108.697 31.3522 108.508 31.3765 108.326 31.3293C108.144 31.2821 107.976 31.1656 107.845 30.9947C107.714 30.8237 107.624 30.6058 107.588 30.3686C107.552 30.1314 107.57 29.8856 107.641 29.6622C107.713 29.4388 107.833 29.2478 107.987 29.1135C108.142 28.9791 108.323 28.9074 108.509 28.9074C108.758 28.9074 108.997 29.0362 109.173 29.2655C109.349 29.4948 109.448 29.8058 109.448 30.1301Z" fill="#92E3A9"/>
<path d="M128.757 146.667C138.782 146.667 146.91 145.246 146.91 143.492C146.91 141.739 138.782 140.317 128.757 140.317C118.732 140.317 110.605 141.739 110.605 143.492C110.605 145.246 118.732 146.667 128.757 146.667Z" fill="#92E3A9"/>
<path opacity="0.7" d="M128.757 146.667C138.782 146.667 146.91 145.246 146.91 143.492C146.91 141.739 138.782 140.317 128.757 140.317C118.732 140.317 110.605 141.739 110.605 143.492C110.605 145.246 118.732 146.667 128.757 146.667Z" fill="white"/>
<path d="M29.3065 146.667C38.5575 146.667 46.0569 145.246 46.0569 143.492C46.0569 141.739 38.5575 140.317 29.3065 140.317C20.0554 140.317 12.556 141.739 12.556 143.492C12.556 145.246 20.0554 146.667 29.3065 146.667Z" fill="#92E3A9"/>
<path opacity="0.7" d="M29.3065 146.667C38.5575 146.667 46.0569 145.246 46.0569 143.492C46.0569 141.739 38.5575 140.317 29.3065 140.317C20.0554 140.317 12.556 141.739 12.556 143.492C12.556 145.246 20.0554 146.667 29.3065 146.667Z" fill="white"/>
<path d="M123.634 31.6438C123.634 31.6438 130.53 30.7739 130.924 32.2706C131.319 33.7673 131.187 37.1854 131.187 37.1854C131.535 37.303 131.874 37.46 132.2 37.6546C132.292 37.771 133.312 38.641 132.36 40.0692C132.112 40.4313 131.81 40.7258 131.474 40.9357C131.054 41.1777 130.655 41.4761 130.283 41.8262L128.899 43.8708L129.162 46.5046C129.162 46.5046 129.78 47.0869 130.535 49.1179C130.535 49.1179 132.318 50.4878 133.365 51.2653C134.226 51.8543 135.121 52.3536 136.042 52.7586C136.042 52.7586 136.521 52.9606 136.487 53.4093C136.453 53.858 134.104 64.0266 134.104 64.0266L132.868 69.164C132.844 69.7954 132.781 70.4231 132.679 71.0409C132.502 72.1472 131.84 72.8733 131.153 72.6472L131.222 76.4146C131.222 76.4146 127.997 78.5141 122.679 78.1579C122.679 78.1579 120.176 77.8429 118.324 76.0585L118.29 67.2564L109.758 65.1055C109.758 65.1055 108.677 64.8075 109.232 63.5403C109.787 62.2731 111.652 59.129 111.652 59.129L117.645 49.5802C117.645 49.5802 118.058 48.9466 118.211 48.7445C118.363 48.5425 118.737 48.402 120.218 48.2411C121.698 48.0801 123.358 47.7068 123.358 47.7068C123.358 47.7068 124.257 46.6998 124.386 46.6998C124.515 46.6998 124.541 45.1929 124.541 45.1929C124.086 44.7654 123.708 44.2146 123.433 43.5784C123.157 42.9422 122.991 42.2357 122.945 41.5076C122.816 39.0622 123.639 33.3323 123.639 33.3323L123.634 31.6438Z" fill="white"/>
<path d="M118.429 76.0243C118.429 76.0243 117.703 90.0666 117.703 96.7863C117.703 103.506 118.027 108.948 118.187 113.668C118.348 118.387 117.703 121.638 118.266 125.097C118.829 128.556 120.12 138.625 120.12 138.625L121.638 139.817C121.638 139.817 121.901 131.806 122.453 128.977C123.005 126.148 123.179 114.192 123.505 110.52C123.831 106.849 124.875 93.8477 124.875 93.8477C124.875 93.8477 128.902 107.479 129.872 112.829C130.843 118.178 134.141 130.234 134.869 133.169C135.598 136.105 136.721 140.454 136.721 140.454C137.062 140.584 137.421 140.619 137.773 140.557C137.925 140.541 138.072 140.475 138.199 140.365C138.326 140.254 138.429 140.104 138.499 139.927C138.499 139.927 137.428 131.145 136.958 126.878C136.376 121.6 135.43 113.668 134.854 110.733C134.278 107.797 133.404 103.181 133.404 100.978C133.404 98.7762 131.232 76.6613 131.232 76.6613C131.232 76.6613 123.663 80.9528 118.429 76.0243Z" fill="#263238"/>
<path d="M124.87 93.8478L121.64 88.9431" stroke="white" stroke-width="0.530341" stroke-miterlimit="10" stroke-linecap="round"/>
<path d="M120.815 89.3027L123.474 92.5258" stroke="white" stroke-width="0.530341" stroke-miterlimit="10" stroke-linecap="round"/>
<path d="M126.498 89.6623C127.179 87.419 128.444 85.5591 130.072 84.4085" stroke="white" stroke-width="0.530341" stroke-miterlimit="10" stroke-linecap="round"/>
<path d="M130.254 77.8464C130.254 77.8464 129.888 79.6342 130.346 80.7096C130.803 81.785 131.264 81.785 131.264 81.785C131.264 81.785 132.087 87.6314 132.087 90.9741C132.087 94.3169 131.537 94.6731 132.087 98.372C132.637 102.071 133.005 103.266 133.005 105.414C133.005 107.561 133.736 108.996 134.378 110.308C135.019 111.62 135.203 115.445 135.203 116.99C135.203 118.535 135.569 120.213 135.937 121.764C135.937 121.764 136.024 125.244 136.487 126.059C136.95 126.874 137.036 129.642 137.036 129.642" stroke="white" stroke-width="0.530341" stroke-miterlimit="10" stroke-linecap="round"/>
<path d="M124.207 93.3613C124.207 93.3613 124.389 96.1013 123.747 100.879C123.105 105.657 122.648 106.965 122.556 112.455C122.464 117.946 122.832 118.901 122.648 121.764C122.464 124.628 121.364 129.152 121.364 131.207C121.364 133.262 121.533 139.831 121.533 139.831" stroke="white" stroke-width="0.530341" stroke-miterlimit="10" stroke-linecap="round"/>
<path d="M122.19 78.5621L122.374 79.5177L123.566 79.8739L123.382 78.682" stroke="white" stroke-width="0.530341" stroke-miterlimit="10" stroke-linecap="round"/>
<path d="M123.571 79.8739C123.571 79.8739 125.77 79.754 126.869 79.278L126.606 78.3224" stroke="white" stroke-width="0.530341" stroke-miterlimit="10" stroke-linecap="round"/>
<path d="M127.597 78.0827L127.86 79.2779C127.86 79.2779 129.62 79.1478 129.883 78.8053" stroke="white" stroke-width="0.530341" stroke-miterlimit="10" stroke-linecap="round"/>
<path d="M122.374 79.5177C121.766 79.4929 121.171 79.2879 120.633 78.9184L119.807 78.3225L120.07 77.4868" stroke="white" stroke-width="0.530341" stroke-miterlimit="10" stroke-linecap="round"/>
<path d="M120.12 138.625C120.12 138.625 116.175 141.978 115.61 143.55C115.044 145.123 117.301 144.496 118.911 143.657C120.52 142.817 121.541 139.817 121.541 139.817L120.12 138.625Z" fill="white" stroke="#263238" stroke-width="1.06068" stroke-miterlimit="10" stroke-linecap="round"/>
<path d="M136.847 140.499C137.046 141.935 137.438 143.315 138.004 144.574C138.872 146.331 140.511 147.838 140.511 145.074C140.511 142.311 138.488 139.937 138.488 139.937C138.488 139.937 137.484 140.646 136.847 140.499Z" fill="white" stroke="#263238" stroke-width="1.06068" stroke-miterlimit="10" stroke-linecap="round"/>
<path d="M123.61 33.5414C123.61 33.5414 122.756 40.446 123.045 42.1585C123.705 45.9909 126.022 45.8265 127.471 45.0936C128.826 44.4086 130.177 41.9872 130.351 41.6687C130.363 41.6462 130.381 41.6294 130.401 41.6207C130.617 41.542 131.955 40.9871 132.544 39.6411C133.189 38.1719 131.982 37.5451 131.982 37.5451" fill="white"/>
<g style="mix-blend-mode:multiply" opacity="0.5">
<path d="M129.094 43.4462L130.372 41.6172C130.372 41.6172 131.884 41.011 132.544 39.6239C132.931 38.8122 132.718 38.1033 132.484 37.9115C132.163 37.6853 131.832 37.4852 131.492 37.3121L131.064 38.5417L130.698 38.6238C130.698 38.6238 130.851 37.3566 130.409 36.6066C129.967 35.8565 129.867 33.6851 129.867 33.6851C129.867 33.6851 129.249 38.0142 129.173 39.826C129.153 40.8343 128.911 41.814 128.476 42.6481C128.476 42.6481 128.555 43.7544 128.707 44.8607C128.726 44.9908 128.744 45.186 128.763 45.4292L128.973 44.9908L129.089 45.4086C128.957 44.6894 128.897 43.9256 129.094 43.4462Z" fill="#92E3A9"/>
</g>
<path d="M123.61 33.5414C123.61 33.5414 122.756 40.446 123.045 42.1585C123.705 45.9909 126.022 45.8265 127.471 45.0936C128.826 44.4086 130.177 41.9872 130.351 41.6687C130.363 41.6462 130.381 41.6294 130.401 41.6207C130.617 41.542 131.955 40.9871 132.544 39.6411C133.189 38.1719 131.982 37.5451 131.982 37.5451" stroke="#263238" stroke-width="1.06068" stroke-miterlimit="10" stroke-linecap="round"/>
<path d="M126.882 37.0519C126.832 37.3259 126.882 37.5724 126.979 37.6033C127.077 37.6341 127.208 37.4423 127.258 37.1717C127.308 36.9012 127.258 36.6546 127.161 36.6203C127.064 36.5861 126.932 36.7813 126.882 37.0519Z" fill="#263238"/>
<path d="M124.623 36.3361C124.573 36.6101 124.623 36.8567 124.72 36.8875C124.818 36.9184 124.949 36.7266 124.999 36.456C125.049 36.1854 124.999 35.9353 124.902 35.9045C124.804 35.8737 124.67 36.0621 124.623 36.3361Z" fill="#263238"/>
<path d="M128.284 35.8532C128.16 35.5684 127.983 35.3286 127.769 35.1557C127.555 34.9828 127.312 34.8823 127.061 34.8633" stroke="#263238" stroke-width="1.06068" stroke-miterlimit="10" stroke-linecap="round"/>
<path d="M125.33 34.9147C125.123 34.7969 124.894 34.7639 124.672 34.8202C124.45 34.8765 124.247 35.0194 124.089 35.2298" stroke="#263238" stroke-width="1.06068" stroke-miterlimit="10" stroke-linecap="round"/>
<path d="M125.483 36.1613C125.488 36.6201 125.461 37.0786 125.404 37.5313C125.317 38.1032 124.975 38.2163 125.062 38.6581C125.149 39.0999 125.588 39.1444 125.588 39.1444" stroke="#263238" stroke-width="1.06068" stroke-miterlimit="10" stroke-linecap="round"/>
<path d="M126.046 40.9295C126.232 41.0069 126.429 41.0307 126.623 40.9993C126.816 40.9679 127.003 40.8819 127.169 40.7474" stroke="#263238" stroke-width="1.06068" stroke-miterlimit="10" stroke-linecap="round"/>
<path d="M130.212 28.719C130.212 28.719 128.442 26.7256 126.751 26.7256C125.059 26.7256 123.689 27.986 122.643 28.0956C121.596 28.2052 120.873 26.9414 120.228 28.6196C119.584 30.2979 122.001 33.1303 123.61 33.5481C125.22 33.966 127.474 33.3392 128.118 33.233C128.735 33.1779 129.355 33.1779 129.972 33.233C129.972 33.233 129.488 35.2264 129.972 35.8565C130.456 36.4867 130.535 36.9046 130.535 37.3224C130.563 37.7836 130.616 38.2415 130.696 38.6924L131.179 38.9047L131.421 37.7505C132.074 36.8439 132.521 35.7185 132.71 34.5003C132.949 32.6131 131.742 30.7328 131.742 30.7328L130.212 28.719Z" fill="#263238"/>
<path d="M123.432 32.6884C123.432 32.6884 126.185 33.3734 128.342 32.2055C130.498 31.0376 128.639 28.7189 128.639 28.7189" stroke="white" stroke-width="0.530341" stroke-miterlimit="10" stroke-linecap="round"/>
<path d="M129.094 28.5237C129.317 28.5237 131.177 30.3629 130.803 31.7192C130.43 33.0755 129.688 33.1748 129.688 33.1748" stroke="white" stroke-width="0.530341" stroke-miterlimit="10" stroke-linecap="round"/>
<path d="M128.789 70.1265L126.464 68.5305C125.866 68.4874 125.272 68.3867 124.686 68.2291C124.144 68.027 118.584 67.3352 118.584 67.3352L118.5 69.0477C118.5 69.0477 124.841 70.1573 126.154 70.3594C127.466 70.5615 128.628 71.3663 128.86 71.8698C129.091 72.3733 129.557 72.8767 129.325 74.2673C129.094 75.6578 127.547 77.6922 127.547 77.6922C127.474 77.5484 131.266 77.1922 131.229 76.6647C131.148 75.6167 130.719 72.5548 130.719 72.5548L128.789 70.1265Z" fill="#92E3A9"/>
<path opacity="0.5" d="M128.789 70.1265L126.464 68.5305C125.866 68.4874 125.272 68.3867 124.686 68.2291C124.144 68.027 118.584 67.3352 118.584 67.3352L118.5 69.0477C118.5 69.0477 124.841 70.1573 126.154 70.3594C127.466 70.5615 128.628 71.3663 128.86 71.8698C129.091 72.3733 129.557 72.8767 129.325 74.2673C129.094 75.6578 127.547 77.6922 127.547 77.6922C127.487 77.5381 131.274 77.1888 131.229 76.6647C131.106 75.329 130.719 72.5548 130.719 72.5548L128.789 70.1265Z" fill="white"/>
<path d="M136.458 53.3717C136.253 52.1182 134.722 52.286 133.799 51.5907C132.876 50.8955 130.643 49.2858 130.643 49.2858L129.562 47.1692C129.367 46.5985 129.209 46.0073 129.091 45.4019L128.976 44.984L128.765 45.4224C128.899 47.2993 129.028 52.1045 129.028 52.1045L129.491 55.1253C129.491 55.1253 131.272 65.0918 131.734 67.3078C132.197 69.5237 132.197 71.0307 131.89 71.7362C131.582 72.4417 131.684 72.7637 131.684 72.7637C131.684 72.7637 132.892 71.5478 132.818 70.3423C132.721 68.9243 136.603 54.2211 136.458 53.3717Z" fill="#92E3A9"/>
<path opacity="0.5" d="M136.458 53.3717C136.353 52.0976 134.722 52.286 133.799 51.5907C132.876 50.8955 130.643 49.2858 130.643 49.2858L129.562 47.1692C129.367 46.5985 129.209 46.0073 129.091 45.4019L128.976 44.984L128.765 45.4224C128.899 47.2993 129.028 52.1045 129.028 52.1045L129.491 55.1253C129.491 55.1253 131.272 65.0918 131.734 67.3078C132.197 69.5237 132.197 71.0307 131.89 71.7362C131.582 72.4417 131.684 72.7637 131.684 72.7637C131.684 72.7637 132.926 71.5444 132.818 70.3423C132.694 69.0511 136.553 54.43 136.458 53.3717Z" fill="white"/>
<path d="M129.701 52.1147C129.701 52.1147 129.217 46.4533 128.976 44.984C128.734 43.5147 128.897 42.679 127.85 42.679C126.803 42.679 125.514 42.4667 125.746 43.203C125.977 43.9394 127.587 43.3058 127.85 43.6209C128.113 43.936 127.929 44.6689 127.929 44.6689C127.929 44.6689 125.825 44.8813 125.825 45.6142C125.825 46.3471 125.906 48.3541 126.309 48.5493C126.711 48.7446 126.872 47.6075 126.872 47.6075C126.872 47.6075 126.953 50.0049 127.355 50.8577C127.612 51.3844 127.909 51.8756 128.242 52.3236L129.701 52.1147Z" fill="white" stroke="#263238" stroke-width="1.06068" stroke-miterlimit="10" stroke-linecap="round"/>
<path d="M128.252 53.6868C128.252 53.6868 128.01 66.7016 128.413 68.7874C128.815 70.8732 130.99 73.7159 132.116 72.3528C133.241 70.9896 132.681 68.0544 132.681 66.6913C132.681 65.3282 130.104 55.2622 130.104 54.5259C130.065 53.9144 129.956 53.314 129.78 52.7449" stroke="#263238" stroke-width="1.06068" stroke-miterlimit="10" stroke-linecap="round"/>
<path d="M128.413 55.2614L130.022 55.05" stroke="#263238" stroke-width="1.06068" stroke-miterlimit="10" stroke-linecap="round"/>
<path d="M118.119 61.7696L118.429 50.1899C118.429 50.1899 118.043 49.8885 117.887 50.9948C117.732 52.101 117.656 54.3204 117.656 54.3204C117.656 54.3204 115.799 52.81 116.265 53.7142C116.73 54.6184 117.501 56.6356 117.501 56.6356L114.629 60.3586L115.944 61.0641L118.119 61.7696Z" fill="#92E3A9"/>
<path opacity="0.5" d="M118.119 61.7696L118.429 50.1899C118.429 50.1899 118.043 49.8885 117.887 50.9948C117.732 52.101 117.656 54.3204 117.656 54.3204C117.656 54.3204 115.799 52.81 116.265 53.7142C116.73 54.6184 117.501 56.6356 117.501 56.6356L114.629 60.3586L115.944 61.0641L118.119 61.7696Z" fill="white"/>
<path d="M121.969 52.7757C121.969 52.7757 121.822 53.4608 122.44 53.4608C123.058 53.4608 124.144 52.8888 124.144 52.8888L124.065 51.7516C124.065 51.7516 122.579 52.6935 121.969 52.7757Z" fill="#92E3A9"/>
<path opacity="0.5" d="M121.969 52.7757C121.969 52.7757 121.822 53.4608 122.44 53.4608C123.058 53.4608 124.144 52.8888 124.144 52.8888L124.065 51.7516C124.065 51.7516 122.579 52.6935 121.969 52.7757Z" fill="white"/>
<path d="M124.623 45.1175C124.623 45.1175 123.818 51.2825 124.302 52.6525C124.786 54.0224 125.509 53.7005 126.072 53.0737C126.635 52.447 127.361 50.8715 127.361 50.8715" stroke="#263238" stroke-width="1.06068" stroke-miterlimit="10" stroke-linecap="round"/>
<path d="M118.266 67.4242L118.429 76.0243C118.429 76.0243 120.27 78.3293 123.823 78.3293C127.376 78.3293 131.232 76.6511 131.232 76.6511V73.6097" stroke="#263238" stroke-width="1.06068" stroke-miterlimit="10" stroke-linecap="round"/>
<path d="M129.139 46.3471C129.139 46.3471 130.588 48.2343 130.588 50.0186C130.588 51.803 130.346 52.2208 130.346 52.2208" stroke="#263238" stroke-width="1.06068" stroke-miterlimit="10" stroke-linecap="round"/>
<path d="M130.425 48.9707C130.425 48.9707 132.6 50.6455 133.807 51.5908C135.014 52.5361 136.466 52.5326 136.466 53.3717C136.466 54.2109 133.084 68.4723 133.084 68.4723" stroke="#263238" stroke-width="1.06068" stroke-miterlimit="10" stroke-linecap="round"/>
<path d="M131.795 53.6867L130.99 57.8824" stroke="#263238" stroke-width="1.06068" stroke-miterlimit="10" stroke-linecap="round"/>
<path d="M118.287 56.1494L116.985 52.5942" stroke="#263238" stroke-width="0.530341" stroke-miterlimit="10" stroke-linecap="round"/>
<path d="M118.287 57.1666L116.336 55.6424" stroke="#263238" stroke-width="0.530341" stroke-miterlimit="10" stroke-linecap="round"/>
<path d="M124.654 65.1193L124.265 67.6606" stroke="#263238" stroke-width="0.530341" stroke-miterlimit="10" stroke-linecap="round"/>
<path d="M135.182 53.2724C135.182 53.2724 133.234 53.7793 131.414 56.6562" stroke="#263238" stroke-width="0.530341" stroke-miterlimit="10" stroke-linecap="round"/>
<path d="M133.883 53.1183C133.883 53.1183 133.357 52.947 131.545 54.9781" stroke="#263238" stroke-width="0.530341" stroke-miterlimit="10" stroke-linecap="round"/>
<path d="M124.654 53.9506L123.876 61.9032L124.526 62.0744L125.046 59.5366" stroke="#263238" stroke-width="0.530341" stroke-miterlimit="10" stroke-linecap="round"/>
<path d="M125.175 74.7673C122.834 77.3086 119.586 77.1374 119.586 77.1374" stroke="#263238" stroke-width="0.530341" stroke-miterlimit="10" stroke-linecap="round"/>
<path d="M115.284 60.9545C115.284 60.9545 113.693 59.0572 111.439 61.4716" stroke="#263238" stroke-width="0.530341" stroke-miterlimit="10" stroke-linecap="round"/>
<path d="M124.468 46.6622C124.468 46.6622 123.823 46.8711 123.098 48.3404C122.372 49.8097 121.488 52.3236 122.132 52.5325C122.777 52.7415 123.973 51.7996 123.973 51.7996" stroke="#263238" stroke-width="1.06068" stroke-miterlimit="10" stroke-linecap="round"/>
<path d="M126.964 52.2209L127.768 53.1629" stroke="#263238" stroke-width="1.06068" stroke-miterlimit="10" stroke-linecap="round"/>
<path d="M123.339 47.7103C123.339 47.7103 120.36 48.2343 119.152 48.3405C117.945 48.4466 118.179 49.0255 117.785 49.3885C117.148 49.9673 109.848 62.0197 109.369 63.1739C108.89 64.3281 108.967 64.8521 109.771 65.1672C110.576 65.4823 118.592 67.318 118.592 67.318L125.675 68.2633L126.238 65.9549C126.238 65.9549 127.884 66.2392 128.173 66.2392" stroke="#263238" stroke-width="1.06068" stroke-miterlimit="10" stroke-linecap="round"/>
<path d="M125.433 65.1055C123.87 64.515 122.359 63.7114 120.925 62.7081" stroke="#263238" stroke-width="1.06068" stroke-miterlimit="10" stroke-linecap="round"/>
<path d="M120.281 62.4958C120.281 62.4958 117.914 61.3518 116.633 61.1429C115.352 60.9339 113.39 60.8654 113.39 60.8654" stroke="#263238" stroke-width="1.06068" stroke-miterlimit="10" stroke-linecap="round"/>
<path d="M118.106 61.1326L118.348 52.8477" stroke="#263238" stroke-width="1.06068" stroke-miterlimit="10" stroke-linecap="round"/>
<path d="M125.675 68.2634C126.227 68.6252 126.806 68.9143 127.403 69.1264" stroke="#263238" stroke-width="1.06068" stroke-miterlimit="10" stroke-linecap="round"/>
<path d="M20.2987 61.5881L21.2481 54.8307L27.2577 51.7483C27.2577 51.7483 27.5496 49.6488 27.8442 49.5563C28.1387 49.4638 28.428 48.6007 28.428 48.6007L28.2834 46.8711C28.2834 46.8711 28.833 44.1312 31.5972 46.2649C31.5972 46.2649 30.7608 46.991 30.9055 47.2924C31.0501 47.5938 30.745 48.5528 31.1106 48.5528C31.4762 48.5528 32.2152 49.159 32.5887 49.6488C32.8501 50.0145 33.081 50.4151 33.2777 50.8441L36.389 51.077C36.7079 51.0804 37.0252 51.1368 37.3332 51.2448C37.3858 49.2652 37.1991 47.7548 36.8309 46.58C35.4922 42.3399 33.0516 40.8261 32.7018 38.7026C32.352 36.5792 32.5282 36.3566 32.5282 36.3566C32.8839 35.8856 33.1443 35.3071 33.2861 34.673C33.4279 34.0388 33.4467 33.3687 33.3409 32.7227C32.9937 30.4519 31.655 28.8593 26.829 28.5579C22.0029 28.2565 22.7025 32.5686 22.7025 32.5686L22.7604 32.87C22.7604 32.87 19.678 34.2399 20.2619 39.3054C20.8457 44.3709 22.5289 46.5732 22.4711 48.1623C22.4132 49.7515 20.609 50.3577 18.05 53.9848C15.4911 57.6118 14.9703 63.0677 16.0171 66.6262C16.5431 68.3764 17.5714 69.8354 18.8627 70.9246L20.2987 61.5881Z" fill="#263238"/>
<path d="M24.3279 62.256V63.7836L22.1003 72.7467C23.4922 73.2263 24.952 73.2662 26.3582 72.8631C27.152 72.5937 27.9107 72.1724 28.6095 71.613L24.3279 62.256Z" fill="#263238"/>
<path d="M30.7319 47.2376L30.9949 48.7788C30.9949 48.7788 31.7839 47.7513 33.3251 50.8715C33.3251 50.8715 36.5284 50.7721 37.4016 51.3407C37.4016 51.3407 37.5831 51.4092 38.1748 52.2277C38.7666 53.0463 40.9915 55.6527 40.9915 55.6527C40.9915 55.6527 43.8477 59.105 44.1318 59.3722C44.4158 59.6393 45.481 60.9648 46.2779 61.4271L48.4134 55.0944L49.3655 51.9606L49.8915 49.3816H50.0598L50.0966 47.3027L49.9677 44.823C49.9887 44.6969 50.0329 44.5794 50.0966 44.4805C50.3171 44.0825 50.4868 43.6407 50.5989 43.1722C50.5989 42.9393 50.4175 41.5625 50.4175 41.5625C50.4175 41.5625 50.3281 41.22 50.5227 41.1789C50.7173 41.1378 51.4353 41.4631 51.5247 42.1173L51.7877 42.0008C52.0055 41.3232 52.277 40.6769 52.5977 40.0726C53.0238 39.3534 53.4604 38.9013 53.7313 39.1342C53.8056 39.2009 53.8592 39.3001 53.8823 39.4138C53.9055 39.5274 53.8967 39.6481 53.8575 39.7541L53.0107 41.7817C53.0107 41.7817 52.6372 42.4358 53.1001 42.6687C53.1001 42.6687 54.1021 43.5078 54.1679 44.2442C54.2336 44.9806 53.8707 45.6142 53.5498 46.1553C53.2289 46.6964 52.6635 47.8678 52.6635 47.8678L52.006 48.6247L51.743 49.9296L52.0533 50.4331L51.5905 53.0463L51.2564 55.0054L51.0881 56.1938L50.0361 60.886L48.9841 64.9754C48.9841 64.9754 48.4423 67.318 47.13 67.253C45.8176 67.1879 44.379 66.2631 43.9135 65.9618C43.448 65.6604 39.6108 63.0505 39.6108 63.0505L38.8218 62.5642C38.9271 63.032 38.9724 63.5191 38.9559 64.0061C38.9428 64.9103 38.1959 66.9036 37.9776 67.3557L37.8487 70.8902C37.7978 71.5034 37.8066 72.1226 37.875 72.7329C37.9907 73.6542 38.5825 78.8669 38.7113 79.5177C38.7113 79.5177 37.4332 81.0246 33.6249 81.7405C29.8167 82.4563 28.0335 81.2952 28.0335 81.2952L26.3372 79.9972L28.428 74.6166C28.428 74.6166 28.954 73.0171 28.9014 72.5959C28.8488 72.1746 27.9494 70.3594 27.9494 70.3594L24.6487 62.7081L24.4936 62.7766L23.9807 65.0096L22.1266 72.5822L19.6859 82.035C19.6859 82.035 19.0179 84.4325 18.7417 85.1414L17.9712 88.1999C18.014 88.7463 18.1176 89.2816 18.2789 89.7891L16.3406 88.1554L16.6851 85.7579L17.1138 82.1823L17.6398 78.295L18.1027 75.0789L18.8417 70.7909L19.1047 69.6059L19.6307 66.2563L20.5564 60.1804L21.3454 54.978L26.8684 52.1181L27.213 51.7756C27.2896 51.1135 27.4763 50.4812 27.76 49.9227C27.9569 49.5554 28.1914 49.2247 28.457 48.9398C28.457 48.9398 28.4307 48.4911 28.4123 48.0664C28.3938 47.6417 28.3097 46.8608 28.3097 46.8608C28.3097 46.8608 30.0166 47.8164 30.7319 47.2376Z" fill="white"/>
<path d="M23.3337 33.4728C23.3337 33.4728 24.3568 30.524 26.4029 30.524C28.4491 30.524 32.686 35.7572 32.686 35.7572" stroke="white" stroke-width="0.530341" stroke-miterlimit="10" stroke-linecap="round"/>
<path d="M24.2095 33.9386C24.2095 33.9386 25.4509 32.2262 26.9868 32.8906C28.5227 33.555 28.741 35.9353 28.741 35.9353" stroke="white" stroke-width="0.530341" stroke-miterlimit="10" stroke-linecap="round"/>
<path d="M23.1864 34.2331C23.1864 34.2331 21.3612 35.5654 21.214 38.0417C21.0667 40.5179 23.7703 43.4634 24.1359 46.7958C24.5014 50.1283 22.6026 50.8852 19.5334 53.6457C16.4642 56.4062 16.977 62.5883 17.6345 63.9206" stroke="white" stroke-width="0.530341" stroke-miterlimit="10" stroke-linecap="round"/>
<path d="M18.0001 64.6844C18.0001 64.6844 18.4367 65.9207 19.0942 66.3008" stroke="white" stroke-width="0.530341" stroke-miterlimit="10" stroke-linecap="round"/>
<path d="M23.4073 40.7028C23.3209 40.9445 23.2821 41.2105 23.2945 41.4766C23.3069 41.7427 23.3701 42.0006 23.4784 42.2269C23.8439 43.0832 26.6344 47.3643 26.4029 49.3645C26.1715 51.3646 24.7224 52.5976 24.7224 52.5976" stroke="white" stroke-width="0.530341" stroke-miterlimit="10" stroke-linecap="round"/>
<path d="M24.7934 34.2331C24.7934 34.2331 23.1128 35.1853 23.1865 37.3738C23.2601 39.5623 23.6257 40.1343 23.6257 40.1343" stroke="white" stroke-width="0.530341" stroke-miterlimit="10" stroke-linecap="round"/>
<path d="M32.686 41.4735C33.2082 43.013 33.9247 44.4276 34.8058 45.6588C36.1208 47.3713 36.2654 49.8475 36.2654 49.8475" stroke="white" stroke-width="0.530341" stroke-miterlimit="10" stroke-linecap="round"/>
<path d="M34.2193 46.8882C34.2193 46.8882 34.8768 48.8884 34.8768 50.1249" stroke="white" stroke-width="0.530341" stroke-miterlimit="10" stroke-linecap="round"/>
<path d="M30.582 47.4192L28.5175 49.8406C28.5175 49.8406 28.2965 50.5736 27.881 51.7483C27.4655 52.9231 27.5338 55.1733 27.5338 55.1733L28.8068 58.4715C28.8068 58.4715 26.3582 54.8136 26.2188 54.3616C26.0794 53.9095 23.5178 54.7246 23.0339 54.9952C22.55 55.2657 21.924 55.8069 22.0634 56.6186C22.2028 57.4303 22.8261 58.5092 22.5474 58.6907C22.2686 58.8722 21.5085 58.4201 21.5085 58.9613C21.5085 59.5024 22.4106 61.5779 21.995 62.2972C21.5795 63.0164 18.9469 74.6544 18.9469 74.6544C18.9469 74.6544 20.609 72.8494 20.1935 73.5721C19.778 74.2948 17.7713 80.1549 17.7713 80.1549L17.0086 83.5798L18.8101 71.4075L20.3329 61.1327L21.2481 54.8308C22.1318 54.4472 27.2577 51.7483 27.2577 51.7483C27.2577 51.7483 27.6627 49.5289 28.428 48.6008L28.2834 46.8712C28.2834 46.8712 29.6799 47.5082 30.582 47.4192Z" fill="#92E3A9"/>
<path opacity="0.5" d="M30.582 47.4192L28.5175 49.8406C28.5175 49.8406 28.2965 50.5736 27.881 51.7483C27.4655 52.9231 27.5338 55.1733 27.5338 55.1733L28.8068 58.4715C28.8068 58.4715 26.3582 54.8136 26.2188 54.3616C26.0794 53.9095 23.5178 54.7246 23.0339 54.9952C22.55 55.2657 21.924 55.8069 22.0634 56.6186C22.2028 57.4303 22.8261 58.5092 22.5474 58.6907C22.2686 58.8722 21.5085 58.4201 21.5085 58.9613C21.5085 59.5024 22.4106 61.5779 21.995 62.2972C21.5795 63.0164 18.9469 74.6544 18.9469 74.6544C18.9469 74.6544 20.609 72.8494 20.1935 73.5721C19.778 74.2948 17.7713 80.1549 17.7713 80.1549L17.0086 83.5798L18.8101 71.4075L20.3329 61.1327L21.2481 54.8308C22.1318 54.4472 27.2577 51.7483 27.2577 51.7483C27.2577 51.7483 27.3681 49.6933 28.4307 48.9741L28.2834 46.8712C28.2834 46.8712 29.6799 47.5082 30.582 47.4192Z" fill="white"/>
<path d="M38.2669 59.5915C38.2669 59.5915 39.5135 56.8892 39.6529 57.5194C39.7923 58.1496 39.3057 60.3107 39.3057 60.3107C39.3057 60.3107 40.6207 59.6805 40.484 60.2217C40.3472 60.7628 40.0684 61.0334 40.1368 61.304C40.2052 61.5745 44.7077 64.6398 45.2627 64.9995C45.8176 65.3591 47.1326 63.287 47.7559 63.9172C48.3792 64.5474 47.7559 66.7085 46.5093 66.7119C45.2627 66.7154 41.6622 64.657 41.6622 64.657L38.8271 62.5095" fill="#92E3A9"/>
<path opacity="0.5" d="M38.2669 59.5915C38.2669 59.5915 39.5135 56.8892 39.6529 57.5194C39.7923 58.1496 39.3057 60.3107 39.3057 60.3107C39.3057 60.3107 40.6207 59.6805 40.484 60.2217C40.3472 60.7628 40.0684 61.0334 40.1368 61.304C40.2052 61.5745 44.7077 64.6398 45.2627 64.9995C45.8176 65.3591 47.1326 63.287 47.7559 63.9172C48.3792 64.5474 47.7559 66.7085 46.5093 66.7119C45.2627 66.7154 41.6622 64.657 41.6622 64.657L38.8376 62.5164" fill="white"/>
<path d="M30.7898 70.5033C30.7898 70.5033 38.8849 64.9136 37.5699 66.9858C36.2549 69.058 31.897 71.4076 30.7898 70.5033Z" fill="#92E3A9"/>
<path opacity="0.5" d="M30.7898 70.5033C30.7898 70.5033 38.8849 64.9136 37.5699 66.9858C36.2549 69.058 31.897 71.4076 30.7898 70.5033Z" fill="white"/>
<path d="M28.2834 46.8882C28.2834 46.8882 28.3412 48.3267 28.5174 49.8406C28.6937 51.3544 28.6332 51.3544 29.7378 53.1696C30.8424 54.9849 32.0048 56.5021 32.1784 56.2007" stroke="#263238" stroke-width="1.06068" stroke-miterlimit="10" stroke-linecap="round"/>
<path d="M32.2363 55.6699C32.2363 55.6699 32.352 53.019 31.947 51.2791C31.5419 49.5393 30.9581 48.9296 30.9581 48.5392C30.9384 48.1323 30.8998 47.7275 30.8424 47.3267" stroke="#263238" stroke-width="1.06068" stroke-miterlimit="10" stroke-linecap="round"/>
<path d="M28.2834 49.0837C27.8189 49.6285 27.4939 50.3458 27.3524 51.1387C27.1788 52.3477 27.0052 53.7862 27.0052 53.7862L28.8068 58.4818C28.9636 57.6641 29.1977 56.8749 29.5037 56.1323C29.6553 55.7657 29.8516 55.4337 30.0849 55.1493" stroke="#263238" stroke-width="1.06068" stroke-miterlimit="10" stroke-linecap="round"/>
<path d="M32.6439 54.3821C32.7711 54.3406 32.9034 54.3325 33.033 54.3584C33.1626 54.3843 33.2869 54.4436 33.3987 54.5328C33.8643 54.8376 34.7953 56.4268 34.7953 56.4268C34.7953 56.4268 34.1562 52.4881 33.0516 50.4468C31.947 48.4055 31.1895 48.5528 31.1895 48.5528" stroke="#263238" stroke-width="1.06068" stroke-miterlimit="10" stroke-linecap="round"/>
<path d="M26.829 52.036L21.2481 54.8308C21.2481 54.8308 19.2152 69.2909 18.4577 73.1508C17.7003 77.0107 16.4247 87.9157 16.4247 87.9157L17.9343 88.2924L18.4603 86.3265" stroke="#263238" stroke-linecap="round" stroke-linejoin="round"/>
<path d="M18.7496 85.1962C18.7496 85.1962 19.0968 84.5112 20.0278 80.7438C20.9588 76.9764 23.4468 67.7291 23.865 65.9036C24.2832 64.0781 24.6198 62.8759 24.6198 62.8759" stroke="#263238" stroke-width="1.06068" stroke-miterlimit="10" stroke-linecap="round"/>
<path d="M23.6309 60.6531C23.6309 60.6531 28.3387 71.6129 28.7463 72.0856C29.154 72.5582 28.5727 73.8254 28.4544 74.507" stroke="#263238" stroke-width="1.06068" stroke-miterlimit="10" stroke-linecap="round"/>
<path d="M27.9336 75.8838L26.424 79.9732C26.424 79.9732 27.4129 81.9426 31.5972 81.9426C34.0874 81.9525 36.5418 81.1719 38.7482 79.6684C38.7482 79.6684 37.7593 72.8562 37.8172 71.6438C37.875 70.4313 37.9934 67.253 37.9934 67.253C37.9934 67.253 39.0454 65.198 38.9217 63.6191C38.7981 62.0402 38.2827 60.2113 38.2827 59.9099C38.2827 59.6085 38.1669 56.3514 38.1669 56.3514" stroke="#263238" stroke-width="1.06068" stroke-miterlimit="10" stroke-linecap="round"/>
<path d="M31.5893 69.154L35.7552 65.8248" stroke="#263238" stroke-width="0.530341" stroke-miterlimit="10" stroke-linecap="round"/>
<path d="M33.7827 68.1092L36.0472 66.3967" stroke="#263238" stroke-width="0.530341" stroke-miterlimit="10" stroke-linecap="round"/>
<path d="M46.2489 61.4992L45.3994 64.2082" stroke="#263238" stroke-width="0.530341" stroke-miterlimit="10" stroke-linecap="round"/>
<path d="M45.9097 62.6842L45.1075 63.7322" stroke="#263238" stroke-width="0.530341" stroke-miterlimit="10" stroke-linecap="round"/>
<path d="M22.1634 72.298C22.1634 72.298 20.7747 74.3906 19.8253 75.2468" stroke="#263238" stroke-width="0.530341" stroke-miterlimit="10" stroke-linecap="round"/>
<path d="M21.3612 72.8664C21.3612 72.8664 18.9495 75.3394 18.3656 75.9114" stroke="#263238" stroke-width="0.530341" stroke-miterlimit="10" stroke-linecap="round"/>
<path d="M21.7899 55.2623C22.5169 56.6009 23.1758 58.0002 23.7624 59.451" stroke="#263238" stroke-width="0.530341" stroke-miterlimit="10" stroke-linecap="round"/>
<path d="M23.9912 60.1155L24.5015 61.256" stroke="#263238" stroke-width="0.530341" stroke-miterlimit="10" stroke-linecap="round"/>
<path d="M38.2827 59.91L38.9217 55.6699" stroke="#263238" stroke-width="0.530341" stroke-miterlimit="10" stroke-linecap="round"/>
<path d="M38.5167 60.2113L39.503 58.396" stroke="#263238" stroke-width="0.530341" stroke-miterlimit="10" stroke-linecap="round"/>
<path d="M24.6198 62.8621L21.8294 60.8929" stroke="#263238" stroke-width="0.530341" stroke-miterlimit="10" stroke-linecap="round"/>
<path d="M32.1206 56.5774C32.1206 56.5774 33.1726 59.3174 33.5171 61.273" stroke="#263238" stroke-width="0.530341" stroke-miterlimit="10" stroke-linecap="round"/>
<path d="M49.3865 51.8066C49.6648 51.7798 49.9443 51.8268 50.2083 51.9445C50.4722 52.0622 50.7152 52.2483 50.9224 52.4915" stroke="#263238" stroke-width="0.530341" stroke-miterlimit="10" stroke-linecap="round"/>
<path d="M17.4347 86.0353L18.1553 86.3847" stroke="#263238" stroke-width="0.530341" stroke-miterlimit="10" stroke-linecap="round"/>
<path d="M16.4063 88.0528C16.4154 89.3549 16.3627 90.6566 16.2485 91.9503C16.0749 93.5429 16.1328 97.1767 16.3642 98.3104C16.5957 99.444 16.714 99.6804 16.9455 98.9954C17.1769 98.3104 17.8765 94.3032 17.8765 94.3032C17.8765 94.3032 17.9922 96.9507 18.5156 96.7247C19.0389 96.4986 18.7496 95.2108 18.7496 94.0738C18.7496 92.9367 18.8075 92.56 18.7496 91.6524C18.6918 90.7448 17.9159 88.5014 17.9159 88.5014" fill="white"/>
<path d="M16.4063 88.0528C16.4154 89.3549 16.3627 90.6566 16.2485 91.9503C16.0749 93.5429 16.1328 97.1767 16.3642 98.3104C16.5957 99.444 16.714 99.6804 16.9455 98.9954C17.1769 98.3104 17.8765 94.3032 17.8765 94.3032C17.8765 94.3032 17.9922 96.9507 18.5156 96.7247C19.0389 96.4986 18.7496 95.2108 18.7496 94.0738C18.7496 92.9367 18.8075 92.56 18.7496 91.6524C18.6918 90.7448 17.9159 88.5014 17.9159 88.5014" stroke="#263238" stroke-miterlimit="10" stroke-linecap="round"/>
<path d="M50.065 49.3234C50.0386 48.6537 50.0386 47.9826 50.065 47.3129C50.1124 46.6828 49.9204 45.7409 49.9677 44.9155C50.0151 44.0901 50.6436 43.7853 50.5463 42.7167C50.449 41.6482 50.257 41.5214 50.4017 41.2714C50.5463 41.0214 51.4537 41.3947 51.5115 42.0866C51.5631 42.7985 51.5631 43.5152 51.5115 44.2271C51.4642 44.4155 51.8008 45.5971 51.6088 46.1108C51.4988 46.3891 51.4175 46.685 51.3669 46.991" stroke="#263238" stroke-width="0.880843" stroke-miterlimit="10" stroke-linecap="round"/>
<path d="M51.7062 42.0317C51.7062 42.0317 52.816 39.1411 53.4446 39.076C54.0732 39.0109 53.8786 39.761 53.6839 40.1446C53.4893 40.5282 52.8634 41.905 52.816 42.4735C52.7687 43.0421 52.1875 44.9223 52.1875 44.9223" stroke="#263238" stroke-width="0.880843" stroke-miterlimit="10" stroke-linecap="round"/>
<path d="M52.8239 42.4736C52.8239 42.4736 54.515 43.7921 54.1389 44.871C53.7629 45.9498 53.5577 46.3814 53.2684 46.241C53.0119 46.0703 52.7825 45.8379 52.5925 45.556" stroke="#263238" stroke-width="0.880843" stroke-miterlimit="10" stroke-linecap="round"/>
<path d="M53.4446 46.2445C53.4446 46.2445 53.008 47.1863 52.6714 47.7548C52.4778 48.0832 52.2483 48.3728 51.9902 48.6145L51.7851 49.5426" stroke="#263238" stroke-width="0.880843" stroke-miterlimit="10" stroke-linecap="round"/>
<path d="M33.1673 50.8235C33.1673 50.8235 37.178 50.7482 37.7014 51.5804C38.2248 52.4127 44.5631 59.9853 45.3284 60.6668C46.0937 61.3484 46.2594 61.4991 46.2594 61.4991C46.2594 61.4991 49.397 52.2517 49.397 51.8065C49.397 51.3612 49.923 49.3097 49.923 49.3097C49.923 49.3097 50.9119 49.4604 51.146 49.4604C51.38 49.4604 52.0165 50.4468 52.0165 50.4468C52.0165 50.4468 51.146 55.0636 51.146 55.5842C51.146 56.1048 49.518 63.3075 48.7606 65.5166C48.0031 67.7257 46.959 67.4072 45.2732 66.7256C43.5873 66.044 38.9954 62.6396 38.9954 62.6396" stroke="#263238" stroke-width="1.06068" stroke-miterlimit="10" stroke-linecap="round"/>
<path d="M26.424 79.9732C26.424 79.9732 24.0964 87.556 23.4678 92.7174C22.8393 97.8788 23.1075 109.948 22.9261 111.239C22.7446 112.531 20.225 118.624 20.225 121.555C20.225 124.487 18.8759 139.608 18.8759 139.608L19.7753 140.31C19.7753 140.31 22.9313 127.638 24.0964 124.367C25.2615 121.096 26.8868 113.349 27.3366 111.825C27.7863 110.301 30.9397 98.1083 31.1185 96.5842C31.2973 95.0601 32.3783 91.3098 32.3783 91.3098C32.3783 91.3098 34.719 109.948 35.1687 113.818C35.6184 117.689 38.7692 138.67 38.7692 138.67C38.9761 138.736 39.1875 138.775 39.4004 138.786C39.6634 138.786 39.7607 138.201 39.7607 138.201C39.7607 138.201 41.0205 123.312 40.6601 119.326C40.2998 115.339 39.2215 110.421 39.2215 109.01C39.2215 107.599 40.8416 95.4128 40.8416 91.2002C40.8416 86.9875 38.7376 79.6752 38.7376 79.6752C38.7376 79.6752 31.271 84.5798 26.424 79.9732Z" fill="#263238"/>
<path d="M39.1874 109.784C39.1874 109.784 38.3852 114.257 37.2885 116.634" stroke="white" stroke-width="0.530341" stroke-miterlimit="10" stroke-linecap="round"/>
<path d="M38.9691 114.353C38.9691 114.353 38.3116 117.586 36.9966 119.11" stroke="white" stroke-width="0.530341" stroke-miterlimit="10" stroke-linecap="round"/>
<path d="M23.4074 112.925C23.4074 112.925 23.9176 116.826 24.5014 118.442" stroke="white" stroke-width="0.530341" stroke-miterlimit="10" stroke-linecap="round"/>
<path d="M23.2601 115.209C23.2601 115.209 23.6993 117.97 24.5014 119.586" stroke="white" stroke-width="0.530341" stroke-miterlimit="10" stroke-linecap="round"/>
<path d="M32.6124 91.3269L35.5343 88.1863" stroke="white" stroke-width="0.530341" stroke-miterlimit="10" stroke-linecap="round"/>
<path d="M34.001 89.9946L37.4358 87.9945" stroke="white" stroke-width="0.530341" stroke-miterlimit="10" stroke-linecap="round"/>
<path d="M26.474 84.6654C26.474 84.6654 28.741 86.5663 30.056 88.1863" stroke="white" stroke-width="0.530341" stroke-miterlimit="10" stroke-linecap="round"/>
<path d="M18.9704 139.598C18.9704 139.598 15.5514 143.365 15.5514 145.235C15.5514 147.105 16.9006 146.992 18.3418 145.235C19.783 143.478 19.8567 139.858 19.8567 139.858L18.9704 139.598Z" fill="white" stroke="#263238" stroke-width="1.06068" stroke-miterlimit="10" stroke-linecap="round"/>
<path d="M38.7692 138.67C38.7692 138.67 39.9396 142.42 41.2019 144.064C42.4643 145.708 43.1823 146.29 43.1823 144.53C43.1823 142.77 42.3723 140.78 39.7633 138.201C39.7607 138.201 40.4813 138.903 38.7692 138.67Z" fill="white" stroke="#263238" stroke-width="1.06068" stroke-miterlimit="10" stroke-linecap="round"/>
<path d="M26.6923 34.8633C26.4582 34.7503 26.2373 34.6133 26.0085 34.4866C25.7796 34.3599 25.3615 34.2914 25.2037 35.2264C24.9696 36.5963 26.5976 37.7266 26.0742 38.8602C25.7486 39.5499 25.2593 40.0825 24.6803 40.3775C24.5861 40.4197 24.4879 40.445 24.3884 40.4528C23.9229 40.5282 23.1681 40.4528 23.3995 41.5111C23.6309 42.5694 24.3884 43.4804 24.8539 43.4804H25.3194C25.3194 43.4804 25.8454 45.5354 27.8179 46.6588C29.7904 47.7821 31.1317 47.7205 31.5972 46.282C32.0627 44.8436 32.4125 43.6311 32.4125 41.7372C32.4125 39.8432 31.8865 36.6648 31.8865 36.6648C31.8865 36.6648 31.421 37.5005 29.6194 36.4388C28.428 35.7367 27.3129 35.1682 26.6923 34.8633Z" fill="white"/>
<g style="mix-blend-mode:multiply" opacity="0.5">
<path d="M29.6221 36.4389C29.6221 36.4389 26.8421 36.2368 26.4266 36.3258C26.0111 36.4149 26.495 38.0383 26.3582 39.6617C26.2215 41.2851 26.2872 43.9018 26.8421 44.7135C27.497 45.5504 28.1909 46.3339 28.9198 47.0596C28.9198 47.0596 26.7869 46.6109 26.0111 45.4361C25.2352 44.2614 25.1116 43.6312 25.1116 43.6312C25.1116 43.6312 23.3101 42.2612 23.1707 41.1961C23.0313 40.1309 24.2227 40.696 24.7934 40.1686C25.1142 39.8809 26.4424 39.3398 26.1084 37.8979C25.7744 36.456 25.2352 36.1854 25.2142 35.2196C25.1984 34.5346 25.6613 34.3359 25.9453 34.2743C26.0734 34.2462 26.205 34.2714 26.3214 34.3462L29.6221 36.4389Z" fill="#92E3A9"/>
</g>
<path d="M26.6923 34.8633C26.4582 34.7503 26.2373 34.6133 26.0085 34.4866C25.7796 34.3599 25.3615 34.2914 25.2037 35.2264C24.9696 36.5963 26.5976 37.7266 26.0742 38.8602C25.7486 39.5499 25.2593 40.0825 24.6803 40.3775C24.5861 40.4197 24.4879 40.445 24.3884 40.4528C23.9229 40.5282 23.1681 40.4528 23.3995 41.5111C23.6309 42.5694 24.3884 43.4804 24.8539 43.4804H25.3194C25.3194 43.4804 25.8454 45.5354 27.8179 46.6588C29.7904 47.7821 31.1317 47.7205 31.5972 46.282C32.0627 44.8436 32.4125 43.6311 32.4125 41.7372C32.4125 39.8432 31.8865 36.6648 31.8865 36.6648C31.8865 36.6648 31.421 37.5005 29.6194 36.4388C28.428 35.7367 27.3129 35.1682 26.6923 34.8633Z" stroke="#263238" stroke-width="1.06068" stroke-miterlimit="10" stroke-linecap="round"/>
<path d="M28.7463 39.35C28.7831 39.6377 28.7226 39.8911 28.6095 39.9151C28.4964 39.9391 28.3807 39.7233 28.3465 39.4356C28.3123 39.1479 28.3728 38.8911 28.4833 38.8671C28.5937 38.8431 28.7094 39.076 28.7463 39.35Z" fill="#263238"/>
<path d="M31.1527 38.826C31.1869 39.1137 31.1264 39.3672 31.0159 39.3911C30.9055 39.4151 30.7871 39.1994 30.7529 38.9117C30.7188 38.624 30.7766 38.3705 30.8871 38.3465C30.9975 38.3226 31.1159 38.5383 31.1527 38.826Z" fill="#263238"/>
<path d="M27.3524 37.9526C27.4995 37.6677 27.6991 37.4354 27.933 37.2769C28.1668 37.1183 28.4274 37.0386 28.691 37.045" stroke="#263238" stroke-width="1.06068" stroke-miterlimit="10" stroke-linecap="round"/>
<path d="M30.4926 37.2711C30.716 37.1694 30.9578 37.1585 31.1861 37.2399C31.4144 37.3212 31.6183 37.4909 31.7708 37.7266" stroke="#263238" stroke-width="1.06068" stroke-miterlimit="10" stroke-linecap="round"/>
<path d="M30.2611 38.5588C30.229 39.0374 30.229 39.5187 30.2611 39.9973C30.319 40.6035 30.6662 40.7542 30.5504 41.2097C30.4347 41.6652 29.9692 41.6618 29.9692 41.6618" stroke="#263238" stroke-width="1.06068" stroke-miterlimit="10" stroke-linecap="round"/>
<path d="M29.388 43.4805C29.1888 43.5417 28.9818 43.5462 28.7812 43.4936C28.5805 43.441 28.391 43.3325 28.2255 43.1756" stroke="#263238" stroke-width="1.06068" stroke-miterlimit="10" stroke-linecap="round"/>
</g>
<defs>
<filter id="filter0_d" x="0.500061" y="7.39184" width="158" height="147.737" filterUnits="userSpaceOnUse" color-interpolation-filters="sRGB">
<feFlood flood-opacity="0" result="BackgroundImageFix"/>
<feColorMatrix in="SourceAlpha" type="matrix" values="0 0 0 0 0 0 0 0 0 0 0 0 0 0 0 0 0 0 127 0" result="hardAlpha"/>
<feOffset dy="4"/>
<feGaussianBlur stdDeviation="2"/>
<feComposite in2="hardAlpha" operator="out"/>
<feColorMatrix type="matrix" values="0 0 0 0 0 0 0 0 0 0 0 0 0 0 0 0 0 0 0.25 0"/>
<feBlend mode="normal" in2="BackgroundImageFix" result="effect1_dropShadow"/>
<feBlend mode="normal" in="SourceGraphic" in2="effect1_dropShadow" result="shape"/>
</filter>
</defs>
</svg>
