<svg width="149" height="150" viewBox="0 0 149 150" fill="none" xmlns="http://www.w3.org/2000/svg">
<g filter="url(#filter0_d)">
<path d="M15.4484 128.782H145" stroke="#263238" stroke-miterlimit="10"/>
<path d="M9.94046 128.782H11.9713" stroke="#263238" stroke-miterlimit="10"/>
<path d="M135.731 50.1039C135.731 50.1039 135.731 47.9468 133.058 44.9214C130.385 41.8961 128.665 40.1711 128.665 40.1711C128.665 40.1711 127.314 45.1433 129.808 48.1609C131.632 50.2892 133.611 52.2403 135.724 53.9936L135.731 50.1039Z" fill="#92E3A9"/>
<path d="M131.855 63.5898C131.855 63.5898 131.855 61.4288 129.182 58.4073C126.51 55.3858 124.79 53.6532 124.79 53.6532C124.79 53.6532 123.438 58.6253 125.935 61.6468C127.761 63.7739 129.74 65.7249 131.852 67.4795L131.855 63.5898Z" fill="#92E3A9"/>
<path d="M135.562 53.7794C135.562 53.7794 135.765 51.6338 138.705 48.945C141.645 46.2562 143.51 44.7378 143.51 44.7378C143.51 44.7378 144.375 49.8362 141.628 52.5479C139.616 54.4433 137.468 56.1461 135.207 57.6386L135.562 53.7794Z" fill="#92E3A9"/>
<path d="M130.879 69.7093C130.879 69.7093 131.277 67.5981 134.45 65.2765C137.623 62.9549 139.624 61.6698 139.624 61.6698C139.624 61.6698 140.009 66.8446 137.022 69.2121C134.844 70.8594 132.549 72.2974 130.159 73.5111L130.879 69.7093Z" fill="#92E3A9"/>
<path d="M131.761 87.0773C131.761 87.0773 131.761 84.9201 134.43 81.8948C137.1 78.8695 138.823 77.1445 138.823 77.1445C138.823 77.1445 140.158 82.1166 137.677 85.1343C135.854 87.2621 133.876 89.2132 131.764 90.967L131.761 87.0773Z" fill="#92E3A9"/>
<path d="M131.717 91.3189C131.717 91.3189 131.987 89.1809 129.723 85.7578C127.459 82.3347 125.972 80.3496 125.972 80.3496C125.972 80.3496 124.029 85.0502 126.104 88.4427C127.642 90.8422 129.356 93.0914 131.227 95.1665L131.717 91.3189Z" fill="#92E3A9"/>
<path d="M129.081 103.883C129.081 103.883 129.081 101.722 131.754 98.7005C134.427 95.679 136.147 93.9464 136.147 93.9464C136.147 93.9464 137.498 98.9186 135.005 101.94C133.179 104.065 131.2 106.015 129.088 107.769L129.081 103.883Z" fill="#92E3A9"/>
<path d="M130.865 115.273C130.865 115.273 130.382 113.185 132.288 109.494C134.194 105.803 135.471 103.65 135.471 103.65C135.471 103.65 137.877 108.071 136.147 111.708C134.857 114.29 133.379 116.745 131.727 119.048L130.865 115.273Z" fill="#92E3A9"/>
<path d="M135.974 49.5493C135.838 51.7976 135.593 54.0359 135.241 56.254C134.187 62.4309 131.544 66.4124 130.49 71.9927C129.436 77.5729 132.463 84.7557 131.652 91.9232C130.841 99.0907 128.378 103.072 129.081 107.853C129.784 112.634 133.474 125.581 133.474 125.581" stroke="#263238" stroke-linecap="round" stroke-linejoin="round"/>
<path d="M135.535 55.2137L138.414 52.7162" stroke="#263238" stroke-linecap="round" stroke-linejoin="round"/>
<path d="M135.67 52.3375L134.464 49.9088" stroke="#263238" stroke-linecap="round" stroke-linejoin="round"/>
<path d="M130.649 71.7364C130.649 71.7364 133.058 69.6902 135.535 67.644" stroke="#263238" stroke-linecap="round" stroke-linejoin="round"/>
<path d="M131.855 67.4795C131.855 67.4795 129.845 63.0199 127.571 60.0672" stroke="#263238" stroke-linecap="round" stroke-linejoin="round"/>
<path d="M131.855 90.1523C133.231 87.2822 134.967 84.6529 137.008 82.3461" stroke="#263238" stroke-linecap="round" stroke-linejoin="round"/>
<path d="M131.386 93.1815C130.653 91.2378 129.779 89.3662 128.774 87.586C127.368 85.2376 127.168 84.9355 127.168 84.9355" stroke="#263238" stroke-linecap="round" stroke-linejoin="round"/>
<path d="M129.081 107.857C129.691 106.139 130.416 104.477 131.25 102.885C132.085 101.41 133.027 100.015 134.065 98.7159" stroke="#263238" stroke-linecap="round" stroke-linejoin="round"/>
<path d="M131.734 119.037C131.734 119.037 131.453 116.447 132.457 114.252C133.46 112.056 134.599 109.173 135.069 108.037" stroke="#263238" stroke-linecap="round" stroke-linejoin="round"/>
<path d="M118.237 78.9574C118.237 78.9574 118.028 77.6035 119.413 75.3775C120.799 73.1515 121.711 71.8588 121.711 71.8588C121.711 71.8588 123.026 74.8076 121.759 77.0107C120.819 78.5687 119.765 80.0349 118.609 81.3938L118.237 78.9574Z" fill="#92E3A9"/>
<path d="M121.961 86.9396C121.961 86.9396 121.755 85.5857 123.141 83.3597C124.526 81.1337 125.435 79.841 125.435 79.841C125.435 79.841 126.749 82.7898 125.486 84.9928C124.545 86.5499 123.491 88.0159 122.336 89.3759L121.961 86.9396Z" fill="#92E3A9"/>
<path d="M118.694 81.2408C118.694 81.2408 118.356 79.9213 116.261 78.5979C114.166 77.2746 112.844 76.5517 112.844 76.5517C112.844 76.5517 112.79 79.8562 114.774 81.2178C116.218 82.1604 117.729 82.9651 119.292 83.6236L118.694 81.2408Z" fill="#92E3A9"/>
<path d="M123.174 90.6457C123.174 90.6457 122.722 89.3683 120.508 88.3012C118.295 87.2341 116.92 86.6757 116.92 86.6757C116.92 86.6757 117.173 89.9688 119.285 91.0894C120.814 91.8543 122.396 92.4735 124.016 92.9406L123.174 90.6457Z" fill="#92E3A9"/>
<path d="M124.273 101.657C124.273 101.657 124.066 100.303 122.1 98.735C120.133 97.1668 118.893 96.2948 118.893 96.2948C118.893 96.2948 118.531 99.5726 120.376 101.164C121.726 102.273 123.154 103.253 124.648 104.093L124.273 101.657Z" fill="#92E3A9"/>
<path d="M124.708 104.308C124.708 104.308 124.333 103.003 125.425 100.578C126.516 98.1536 127.256 96.7232 127.256 96.7232C127.256 96.7232 128.929 99.4349 127.952 101.818C127.217 103.511 126.358 105.132 125.384 106.664L124.708 104.308Z" fill="#92E3A9"/>
<path d="M128.06 115.235C128.06 115.235 128.199 113.869 130.088 112.175C131.977 110.481 133.166 109.532 133.166 109.532C133.166 109.532 133.693 112.783 131.93 114.504C130.638 115.698 129.262 116.769 127.814 117.706L128.06 115.235Z" fill="#92E3A9"/>
<path d="M127.567 111.865C127.567 111.865 127.361 110.511 125.398 108.943C123.435 107.375 122.188 106.503 122.188 106.503C122.188 106.503 121.823 109.769 123.668 111.372C125.017 112.481 126.446 113.461 127.939 114.302L127.567 111.865Z" fill="#92E3A9"/>
<path d="M127.54 119.228C127.54 119.228 127.642 117.858 126.091 115.786C124.54 113.713 123.533 112.504 123.533 112.504C123.533 112.504 122.451 115.564 123.87 117.64C124.926 119.101 126.088 120.458 127.344 121.698L127.54 119.228Z" fill="#92E3A9"/>
<path d="M118.031 78.64C118.33 80.0325 118.693 81.4062 119.119 82.7554C120.376 86.4959 122.414 88.6722 123.61 92.0379C124.806 95.4037 123.61 100.288 124.793 104.679C125.976 109.069 127.915 111.269 127.932 114.355C127.949 117.442 126.891 126.013 126.891 126.013" stroke="#263238" stroke-linecap="round" stroke-linejoin="round"/>
<path d="M118.849 82.1396L116.805 80.9233" stroke="#263238" stroke-linecap="round" stroke-linejoin="round"/>
<path d="M118.488 80.3496L119.011 78.6821" stroke="#263238" stroke-linecap="round" stroke-linejoin="round"/>
<path d="M123.512 91.9002C123.512 91.9002 121.823 90.9096 120.055 89.9343" stroke="#263238" stroke-linecap="round" stroke-linejoin="round"/>
<path d="M122.336 89.3759C122.837 87.5797 123.499 85.8458 124.31 84.2011" stroke="#263238" stroke-linecap="round" stroke-linejoin="round"/>
<path d="M124.526 103.596C123.389 101.964 122.048 100.527 120.545 99.3316" stroke="#263238" stroke-linecap="round" stroke-linejoin="round"/>
<path d="M125.094 105.436C125.366 104.129 125.733 102.849 126.192 101.611C126.851 99.9665 126.945 99.7523 126.945 99.7523" stroke="#263238" stroke-linecap="round" stroke-linejoin="round"/>
<path d="M127.854 116.692C127.854 116.692 129.206 114.814 130.051 114.11C130.56 113.686 131.038 113.215 131.48 112.703" stroke="#263238" stroke-linecap="round" stroke-linejoin="round"/>
<path d="M127.946 114.359C127.398 113.357 126.784 112.404 126.107 111.509C125.443 110.687 124.72 109.928 123.945 109.241" stroke="#263238" stroke-linecap="round" stroke-linejoin="round"/>
<path d="M127.354 121.691C127.285 120.646 126.97 119.641 126.442 118.78C125.601 117.526 124.61 115.858 124.208 115.204" stroke="#263238" stroke-linecap="round" stroke-linejoin="round"/>
<path d="M121.431 124.517H138.907V131.436C138.907 131.791 138.783 132.132 138.561 132.383C138.339 132.634 138.038 132.775 137.725 132.775H122.613C122.3 132.775 121.999 132.634 121.777 132.383C121.555 132.132 121.431 131.791 121.431 131.436V124.517Z" fill="#263238" stroke="#263238" stroke-linecap="round" stroke-linejoin="round"/>
<path d="M138.752 127.095H121.431C121.072 127.095 120.728 126.934 120.475 126.647C120.221 126.36 120.079 125.971 120.079 125.565C120.077 125.363 120.11 125.162 120.177 124.974C120.244 124.786 120.343 124.615 120.469 124.471C120.595 124.327 120.744 124.213 120.909 124.135C121.075 124.056 121.252 124.016 121.431 124.016H138.752C138.931 124.016 139.108 124.056 139.273 124.135C139.438 124.213 139.588 124.327 139.714 124.471C139.839 124.615 139.939 124.786 140.006 124.974C140.073 125.162 140.106 125.363 140.104 125.565C140.104 125.971 139.961 126.36 139.708 126.647C139.454 126.934 139.11 127.095 138.752 127.095Z" fill="#263238" stroke="#263238" stroke-linecap="round" stroke-linejoin="round"/>
<path d="M122.117 127.164H134.697" stroke="white" stroke-linecap="round" stroke-linejoin="round"/>
<path d="M135.88 127.164H137.951" stroke="white" stroke-linecap="round" stroke-linejoin="round"/>
<path d="M114.216 137.189C114.216 138.405 89.5488 139.392 59.1098 139.392C28.6709 139.392 4 138.405 4 137.189C4 135.972 28.6675 134.985 59.1098 134.985C89.5522 134.985 114.216 135.972 114.216 137.189Z" fill="#CCCCCC"/>
<path d="M55.1461 117.384C55.1461 117.384 57.8224 130.426 56.6566 132.568C55.1326 135.372 38.8926 137.062 38.8926 137.062H74.7112C74.7112 137.062 79.1986 135.636 77.8504 131.551C76.8062 128.392 71.795 117.4 71.795 117.4L55.1461 117.384Z" fill="white" stroke="#263238" stroke-linecap="round" stroke-linejoin="round"/>
<path d="M54.3588 117.384C54.3588 117.384 57.2175 130.534 55.8727 132.568C54.5278 134.603 38.8926 136.16 38.8926 136.16H74.8734C74.8734 136.16 77.8977 134.775 77.0563 131.57C76.2149 128.365 71.0043 117.419 71.0043 117.419L54.3588 117.384Z" fill="white" stroke="#263238" stroke-linecap="round" stroke-linejoin="round"/>
<path d="M71.0044 117.384H54.3589C54.3589 117.384 56.0484 125.175 56.2174 129.692H76.4346C74.7991 125.351 71.0044 117.384 71.0044 117.384Z" fill="#263238" stroke="#263238" stroke-linecap="round" stroke-linejoin="round"/>
<path d="M74.7044 136.221H38.8926V137.058H74.7044V136.221Z" fill="white" stroke="#263238" stroke-linecap="round" stroke-linejoin="round"/>
<path d="M115.061 26.9453H12.7418C11.1592 26.9453 9.87628 28.3974 9.87628 30.1887V115.426C9.87628 117.217 11.1592 118.669 12.7418 118.669H115.061C116.644 118.669 117.927 117.217 117.927 115.426V30.1887C117.927 28.3974 116.644 26.9453 115.061 26.9453Z" fill="white" stroke="#263238" stroke-linecap="round" stroke-linejoin="round"/>
<path d="M112.513 26.9453H10.1939C8.61135 26.9453 7.32843 28.3974 7.32843 30.1887V115.426C7.32843 117.217 8.61135 118.669 10.1939 118.669H112.513C114.096 118.669 115.379 117.217 115.379 115.426V30.1887C115.379 28.3974 114.096 26.9453 112.513 26.9453Z" fill="#263238" stroke="#263238" stroke-linecap="round" stroke-linejoin="round"/>
<path d="M7.32843 104.415H115.382V115.426C115.382 116.286 115.08 117.111 114.543 117.719C114.005 118.328 113.277 118.669 112.517 118.669H10.1973C9.82099 118.669 9.44838 118.585 9.10072 118.422C8.75306 118.259 8.43717 118.021 8.17109 117.719C7.90501 117.418 7.69394 117.061 7.54993 116.667C7.40593 116.274 7.33181 115.852 7.33181 115.426V104.415H7.32843Z" fill="white" stroke="#263238" stroke-linecap="round" stroke-linejoin="round"/>
<path d="M109.945 32.6518H12.7654V97.4537H109.945V32.6518Z" fill="#92E3A9" stroke="#263238" stroke-linecap="round" stroke-linejoin="round"/>
<path d="M63.3641 111.54C63.3641 111.094 63.2472 110.657 63.0281 110.286C62.8091 109.915 62.4977 109.626 62.1334 109.455C61.7691 109.284 61.3682 109.24 60.9815 109.327C60.5948 109.414 60.2395 109.629 59.9607 109.944C59.6819 110.26 59.492 110.662 59.4151 111.1C59.3382 111.538 59.3776 111.991 59.5285 112.404C59.6794 112.816 59.935 113.168 60.2628 113.416C60.5907 113.664 60.9761 113.797 61.3704 113.797C61.8992 113.797 62.4063 113.559 62.7802 113.136C63.1541 112.713 63.3641 112.139 63.3641 111.54Z" fill="#263238" stroke="#263238" stroke-linecap="round" stroke-linejoin="round"/>
<path d="M109.033 37.2223H13.5291V42.902H109.033V37.2223Z" fill="#263238" stroke="#263238" stroke-linecap="round" stroke-linejoin="round"/>
<path d="M102.548 38.7828H86.5516V42.2786H102.548V38.7828Z" fill="white"/>
<path d="M107.205 41.5366L105.873 40.699C105.91 40.5573 105.931 40.4107 105.934 40.2629C105.939 39.8732 105.823 39.494 105.605 39.1922C105.386 38.8905 105.081 38.6857 104.743 38.6141C104.404 38.5425 104.054 38.6086 103.755 38.8008C103.455 38.993 103.225 39.2989 103.106 39.6644C102.986 40.0299 102.984 40.4315 103.101 40.7982C103.218 41.1649 103.445 41.4731 103.743 41.6683C104.041 41.8635 104.391 41.9332 104.73 41.865C105.069 41.7968 105.376 41.5951 105.596 41.2956L106.914 42.1256C106.958 42.1524 107.006 42.1668 107.056 42.1676C107.109 42.1674 107.162 42.151 107.207 42.12C107.253 42.0891 107.291 42.0447 107.316 41.9917C107.336 41.9537 107.349 41.9116 107.354 41.8679C107.359 41.8243 107.356 41.7799 107.346 41.7374C107.335 41.695 107.317 41.6553 107.293 41.6208C107.269 41.5863 107.239 41.5577 107.205 41.5366ZM104.501 41.2229C104.333 41.2229 104.168 41.1663 104.028 41.0602C103.888 40.9542 103.779 40.8034 103.714 40.6271C103.65 40.4507 103.633 40.2567 103.666 40.0697C103.7 39.8826 103.781 39.7109 103.9 39.5762C104.02 39.4416 104.172 39.3501 104.337 39.3133C104.503 39.2766 104.674 39.2962 104.83 39.3698C104.985 39.4433 105.118 39.5674 105.211 39.7264C105.304 39.8854 105.354 40.0722 105.353 40.2629C105.352 40.3905 105.33 40.5167 105.286 40.6342C105.242 40.7517 105.178 40.8582 105.098 40.9475C105.017 41.0368 104.922 41.1071 104.817 41.1544C104.712 41.2017 104.601 41.225 104.488 41.2229H104.501Z" fill="white"/>
<path d="M32.2764 39.3947H41.6872C41.956 39.3947 42.2139 39.5156 42.404 39.7308C42.5941 39.946 42.7009 40.2378 42.7009 40.5421V45.4225H31.2829V40.5421C31.2828 40.2418 31.3869 39.9533 31.5726 39.7388C31.7584 39.5243 32.011 39.4007 32.2764 39.3947Z" fill="#808080" stroke="#808080" stroke-miterlimit="10"/>
<path d="M44.9818 39.3947H54.3926C54.6615 39.3947 54.9193 39.5156 55.1095 39.7308C55.2996 39.946 55.4064 40.2378 55.4064 40.5421V45.4225H43.9749V40.5421C43.9748 40.2392 44.0807 39.9485 44.2694 39.7335C44.458 39.5185 44.7141 39.3968 44.9818 39.3947Z" fill="#808080" stroke="#808080" stroke-miterlimit="10"/>
<path d="M57.6737 39.3947H67.0812C67.35 39.3947 67.6079 39.5156 67.798 39.7308C67.9881 39.946 68.0949 40.2378 68.0949 40.5421V45.4225H56.6667V40.5421C56.6667 40.2392 56.7726 39.9485 56.9613 39.7335C57.1499 39.5185 57.406 39.3968 57.6737 39.3947Z" fill="#92E3A9" stroke="#263238" stroke-linecap="round" stroke-linejoin="round"/>
<path d="M70.3657 39.3947H79.7765C80.0453 39.3947 80.3032 39.5156 80.4933 39.7308C80.6834 39.946 80.7902 40.2378 80.7902 40.5421V45.4225H69.3587V40.5421C69.3587 40.2392 69.4646 39.9485 69.6532 39.7335C69.8419 39.5185 70.098 39.3968 70.3657 39.3947Z" fill="#808080" stroke="#808080" stroke-miterlimit="10"/>
<path d="M29.2859 42.902L28.1437 39.3909H13.5291V42.902V47.5528V94.6961H109.033V42.902H29.2859Z" fill="white" stroke="#263238" stroke-linecap="round" stroke-linejoin="round"/>
<path d="M79.0567 74.5093H53.977V91.7817H78.9418" stroke="#999999" stroke-width="0.5" stroke-linecap="round" stroke-linejoin="round"/>
<path d="M54.0919 79.4317H79.1682" stroke="#999999" stroke-width="0.5" stroke-linecap="round" stroke-linejoin="round"/>
<path d="M54.0919 84.3464H79.1682" stroke="#999999" stroke-width="0.5" stroke-linecap="round" stroke-linejoin="round"/>
<path d="M54.0919 89.2574H79.1682" stroke="#999999" stroke-width="0.5" stroke-linecap="round" stroke-linejoin="round"/>
<path d="M53.291 74.6202H52.2604" stroke="#999999" stroke-width="0.5" stroke-linecap="round" stroke-linejoin="round"/>
<path d="M53.291 77.0566H52.2604" stroke="#999999" stroke-width="0.5" stroke-linecap="round" stroke-linejoin="round"/>
<path d="M53.291 79.4929H52.2604" stroke="#999999" stroke-width="0.5" stroke-linecap="round" stroke-linejoin="round"/>
<path d="M53.291 81.9292H52.2604" stroke="#999999" stroke-width="0.5" stroke-linecap="round" stroke-linejoin="round"/>
<path d="M53.291 84.3617H52.2604" stroke="#999999" stroke-width="0.5" stroke-linecap="round" stroke-linejoin="round"/>
<path d="M53.291 86.7981H52.2604" stroke="#999999" stroke-width="0.5" stroke-linecap="round" stroke-linejoin="round"/>
<path d="M53.291 89.2344H52.2604" stroke="#999999" stroke-width="0.5" stroke-linecap="round" stroke-linejoin="round"/>
<path d="M53.291 91.6707H52.2604" stroke="#999999" stroke-width="0.5" stroke-linecap="round" stroke-linejoin="round"/>
<path d="M56.0416 81.4244H54.8893V91.7128H56.0416V81.4244Z" fill="#263238" stroke="#999999" stroke-linecap="round" stroke-linejoin="round"/>
<path d="M58.0893 76.4982H56.9371V91.7128H58.0893V76.4982Z" fill="#92E3A9" stroke="#999999" stroke-linecap="round" stroke-linejoin="round"/>
<path d="M60.1371 81.4244H58.9849V91.7128H60.1371V81.4244Z" fill="white" stroke="#999999" stroke-linecap="round" stroke-linejoin="round"/>
<path d="M64.7496 78.0931H63.5973V91.7166H64.7496V78.0931Z" fill="#263238" stroke="#999999" stroke-linecap="round" stroke-linejoin="round"/>
<path d="M66.7973 80.1202H65.645V91.7128H66.7973V80.1202Z" fill="#92E3A9" stroke="#999999" stroke-linecap="round" stroke-linejoin="round"/>
<path d="M68.8451 85.9184H67.6928V91.7166H68.8451V85.9184Z" fill="white" stroke="#999999" stroke-linecap="round" stroke-linejoin="round"/>
<path d="M73.4542 81.4244H72.3019V91.7128H73.4542V81.4244Z" fill="#263238" stroke="#999999" stroke-linecap="round" stroke-linejoin="round"/>
<path d="M75.5019 76.4982H74.3497V91.7128H75.5019V76.4982Z" fill="#92E3A9" stroke="#999999" stroke-linecap="round" stroke-linejoin="round"/>
<path d="M77.553 81.4244H76.4008V91.7128H77.553V81.4244Z" fill="white" stroke="#999999" stroke-linecap="round" stroke-linejoin="round"/>
<path d="M27.1503 51.9015C27.2187 51.6683 27.2541 51.4243 27.255 51.1786C27.255 50.2798 26.4508 50.2301 25.6601 50.2301H25.4607V50.0159H28.8973V50.2301C28.0018 50.2301 27.6875 50.8727 27.3969 51.8365L25.5688 58.044C25.4269 58.5068 25.312 58.851 24.893 58.851H24.8423L23.2237 52.9189L21.7099 58.044C21.568 58.5068 21.4531 58.851 21.0341 58.851H21.0003L18.6349 50.2301H17.8206V50.0159H20.8618V50.2301H19.9866L21.7336 57.0304H21.8011L23.1156 52.4943L22.5006 50.2301H21.6761V50.0159H24.7173V50.2301H23.8286L25.5756 57.0304H25.6466L27.1503 51.9015Z" fill="#808080"/>
<path d="M52.7841 63.4024H78.6647" stroke="#999999" stroke-width="0.5" stroke-linecap="round" stroke-linejoin="round"/>
<path d="M52.7841 65.0891H78.6647" stroke="#999999" stroke-width="0.5" stroke-linecap="round" stroke-linejoin="round"/>
<path d="M52.7841 66.772H78.6647" stroke="#999999" stroke-width="0.5" stroke-linecap="round" stroke-linejoin="round"/>
<path d="M52.7841 68.4548H78.6647" stroke="#999999" stroke-width="0.5" stroke-linecap="round" stroke-linejoin="round"/>
<path d="M52.7841 70.1377H78.6647" stroke="#999999" stroke-width="0.5" stroke-linecap="round" stroke-linejoin="round"/>
<path d="M52.7841 71.8206H78.6647" stroke="#999999" stroke-width="0.5" stroke-linecap="round" stroke-linejoin="round"/>
<path d="M17.236 63.4024H43.1165" stroke="#999999" stroke-width="0.5" stroke-linecap="round" stroke-linejoin="round"/>
<path d="M17.236 65.0891H43.1165" stroke="#999999" stroke-width="0.5" stroke-linecap="round" stroke-linejoin="round"/>
<path d="M17.236 66.772H43.1165" stroke="#999999" stroke-width="0.5" stroke-linecap="round" stroke-linejoin="round"/>
<path d="M17.236 68.4548H43.1165" stroke="#999999" stroke-width="0.5" stroke-linecap="round" stroke-linejoin="round"/>
<path d="M17.236 70.1377H43.1165" stroke="#999999" stroke-width="0.5" stroke-linecap="round" stroke-linejoin="round"/>
<path d="M17.236 71.8206H43.1165" stroke="#999999" stroke-width="0.5" stroke-linecap="round" stroke-linejoin="round"/>
<path d="M29.5833 49.7673H45.3468" stroke="#999999" stroke-width="0.5" stroke-linecap="round" stroke-linejoin="round"/>
<path d="M29.5833 51.4502H45.3468" stroke="#999999" stroke-width="0.5" stroke-linecap="round" stroke-linejoin="round"/>
<path d="M29.5833 53.1369H45.3468" stroke="#999999" stroke-width="0.5" stroke-linecap="round" stroke-linejoin="round"/>
<path d="M29.5833 54.8198H45.3468" stroke="#999999" stroke-width="0.5" stroke-linecap="round" stroke-linejoin="round"/>
<path d="M29.5833 56.5026H45.3468" stroke="#999999" stroke-width="0.5" stroke-linecap="round" stroke-linejoin="round"/>
<path d="M29.5833 58.1855H45.3468" stroke="#999999" stroke-width="0.5" stroke-linecap="round" stroke-linejoin="round"/>
<path d="M45.6441 74.1766H16.6412V91.8543H45.6441V74.1766Z" stroke="#999999" stroke-width="0.5" stroke-linecap="round" stroke-linejoin="round"/>
<path d="M16.6412 91.8543L45.6441 74.1766" stroke="#999999" stroke-width="0.5" stroke-linecap="round" stroke-linejoin="round"/>
<path d="M22.92 84.1902C24.3575 83.8013 25.2444 82.167 24.9009 80.5399C24.5573 78.9127 23.1135 77.9089 21.6759 78.2977C20.2383 78.6866 19.3514 80.3209 19.695 81.948C20.0385 83.5751 21.4824 84.579 22.92 84.1902Z" stroke="#999999" stroke-width="0.5" stroke-linecap="round" stroke-linejoin="round"/>
<path d="M88.7784 62.8975H93.3875" stroke="#808080" stroke-miterlimit="10"/>
<path d="M87.2882 62.3927H84.1659V65.9267H87.2882V62.3927Z" fill="#808080" stroke="#808080" stroke-miterlimit="10"/>
<path d="M88.7784 64.4159H97.1046" stroke="#808080" stroke-miterlimit="10"/>
<path d="M88.7784 70.306H93.3875" stroke="#808080" stroke-miterlimit="10"/>
<path d="M87.2882 69.8011H84.1659V73.3351H87.2882V69.8011Z" fill="#808080" stroke="#808080" stroke-miterlimit="10"/>
<path d="M88.7784 71.8206H97.1046" stroke="#808080" stroke-miterlimit="10"/>
<path d="M88.7784 77.7144H93.3875" stroke="#808080" stroke-miterlimit="10"/>
<path d="M87.2882 77.2096H84.1659V80.7436H87.2882V77.2096Z" fill="#808080" stroke="#808080" stroke-miterlimit="10"/>
<path d="M88.7784 79.229H97.1046" stroke="#808080" stroke-miterlimit="10"/>
<path d="M88.7784 85.119H93.3875" stroke="#808080" stroke-miterlimit="10"/>
<path d="M87.2882 84.6142H84.1659V88.1482H87.2882V84.6142Z" fill="#808080" stroke="#808080" stroke-miterlimit="10"/>
<path d="M88.7784 86.6336H97.1046" stroke="#808080" stroke-miterlimit="10"/>
<path d="M82.0338 42.7872V94.6349" stroke="#263238" stroke-linecap="round" stroke-linejoin="round"/>
<path opacity="0.5" d="M67.5982 49.1133H63.719L62.1916 45.8241L60.3568 49.1133H53.0748C52.9585 49.1133 52.8434 49.1392 52.736 49.1896C52.6286 49.2399 52.531 49.3138 52.4488 49.4068C52.3666 49.4999 52.3013 49.6103 52.2569 49.7319C52.2124 49.8535 52.1895 49.9838 52.1895 50.1154V59.6121C52.189 59.744 52.2116 59.8747 52.2559 59.9968C52.3002 60.1188 52.3653 60.2297 52.4476 60.3232C52.5298 60.4166 52.6276 60.4908 52.7352 60.5414C52.8428 60.592 52.9582 60.618 53.0748 60.618H67.6049C67.7215 60.618 67.8369 60.592 67.9445 60.5414C68.0522 60.4908 68.1499 60.4166 68.2322 60.3232C68.3144 60.2297 68.3796 60.1188 68.4239 59.9968C68.4681 59.8747 68.4907 59.744 68.4903 59.6121V50.1039C68.4876 49.8388 68.3922 49.5857 68.225 49.4C68.0578 49.2144 67.8324 49.1113 67.5982 49.1133Z" fill="black"/>
<path d="M66.3073 47.6523H62.4281L60.9007 44.363L59.0659 47.6523H51.7839C51.5491 47.6523 51.3239 47.7578 51.1579 47.9458C50.9918 48.1337 50.8986 48.3886 50.8986 48.6543V58.1358C50.8981 58.2677 50.9207 58.3984 50.965 58.5204C51.0093 58.6424 51.0744 58.7534 51.1567 58.8468C51.2389 58.9403 51.3367 59.0144 51.4443 59.065C51.5519 59.1156 51.6673 59.1417 51.7839 59.1417H66.314C66.4306 59.1417 66.546 59.1156 66.6536 59.065C66.7613 59.0144 66.859 58.9403 66.9413 58.8468C67.0235 58.7534 67.0887 58.6424 67.133 58.5204C67.1772 58.3984 67.1998 58.2677 67.1994 58.1358V48.6543C67.1994 48.5221 67.1763 48.3912 67.1313 48.2691C67.0864 48.147 67.0206 48.0362 66.9377 47.9431C66.8548 47.8499 66.7564 47.7762 66.6482 47.7263C66.54 47.6764 66.4241 47.6513 66.3073 47.6523Z" fill="#92E3A9" stroke="#263238" stroke-width="2" stroke-linecap="round" stroke-linejoin="round"/>
<path d="M52.5104 50.0236H65.5808" stroke="#263238" stroke-linecap="round" stroke-linejoin="round"/>
<path d="M52.5104 52.4599H65.5808" stroke="#263238" stroke-linecap="round" stroke-linejoin="round"/>
<path d="M52.5104 54.8963H65.5808" stroke="#263238" stroke-linecap="round" stroke-linejoin="round"/>
<path d="M52.5104 57.3288H65.5808" stroke="#263238" stroke-linecap="round" stroke-linejoin="round"/>
<path opacity="0.5" d="M100.102 49.1133H96.226L94.6952 45.8241L92.8604 49.1133H85.5784C85.4621 49.1133 85.347 49.1392 85.2396 49.1896C85.1322 49.2399 85.0346 49.3138 84.9524 49.4068C84.8702 49.4999 84.8049 49.6103 84.7605 49.7319C84.716 49.8535 84.6931 49.9838 84.6931 50.1154V59.6121C84.6926 59.744 84.7152 59.8747 84.7595 59.9968C84.8038 60.1188 84.8689 60.2297 84.9512 60.3232C85.0334 60.4166 85.1312 60.4908 85.2388 60.5414C85.3464 60.592 85.4618 60.618 85.5784 60.618H100.109C100.225 60.618 100.34 60.592 100.448 60.5414C100.556 60.4908 100.654 60.4166 100.736 60.3232C100.818 60.2297 100.883 60.1188 100.927 59.9968C100.972 59.8747 100.994 59.744 100.994 59.6121V50.1039C100.991 49.8388 100.896 49.5857 100.729 49.4C100.561 49.2144 100.336 49.1113 100.102 49.1133Z" fill="black"/>
<path d="M98.811 47.6523H94.9351L93.4044 44.3669L91.5695 47.6561H84.2876C84.0528 47.6561 83.8276 47.7617 83.6615 47.9496C83.4955 48.1375 83.4022 48.3924 83.4022 48.6582V58.1358C83.4018 58.2677 83.4244 58.3984 83.4686 58.5204C83.5129 58.6424 83.5781 58.7534 83.6603 58.8468C83.7426 58.9403 83.8403 59.0144 83.948 59.065C84.0556 59.1156 84.171 59.1417 84.2876 59.1417H98.8177C98.9343 59.1417 99.0497 59.1156 99.1573 59.065C99.2649 59.0144 99.3627 58.9403 99.4449 58.8468C99.5272 58.7534 99.5923 58.6424 99.6366 58.5204C99.6809 58.3984 99.7035 58.2677 99.703 58.1358V48.6543C99.703 48.5221 99.6799 48.3912 99.635 48.2691C99.5901 48.147 99.5243 48.0362 99.4414 47.9431C99.3584 47.8499 99.26 47.7762 99.1518 47.7263C99.0436 47.6764 98.9278 47.6513 98.811 47.6523Z" fill="#92E3A9" stroke="#263238" stroke-width="2" stroke-linecap="round" stroke-linejoin="round"/>
<path d="M85.0141 50.0236H98.0845" stroke="#263238" stroke-linecap="round" stroke-linejoin="round"/>
<path d="M85.0141 52.4599H98.0845" stroke="#263238" stroke-linecap="round" stroke-linejoin="round"/>
<path d="M85.0141 54.8963H98.0845" stroke="#263238" stroke-linecap="round" stroke-linejoin="round"/>
<path d="M85.0141 57.3288H98.0845" stroke="#263238" stroke-linecap="round" stroke-linejoin="round"/>
<path opacity="0.5" d="M31.5769 62.756H19.4121C19.1119 62.756 18.8239 62.891 18.6117 63.1313C18.3994 63.3716 18.2801 63.6975 18.2801 64.0373V71.7249C18.2797 71.8935 18.3086 72.0605 18.3653 72.2164C18.422 72.3723 18.5053 72.514 18.6105 72.6334C18.7156 72.7528 18.8406 72.8475 18.9781 72.9121C19.1157 72.9768 19.2632 73.01 19.4121 73.01H24.2645L25.3559 75.7332L26.4508 73.01H31.587C31.736 73.01 31.8834 72.9768 32.021 72.9121C32.1586 72.8475 32.2835 72.7528 32.3887 72.6334C32.4938 72.514 32.5771 72.3723 32.6338 72.2164C32.6905 72.0605 32.7195 71.8935 32.719 71.7249V64.0373C32.719 63.8681 32.6894 63.7005 32.6319 63.5443C32.5744 63.3881 32.4901 63.2463 32.3839 63.1272C32.2777 63.0081 32.1517 62.9139 32.0132 62.8502C31.8747 62.7865 31.7264 62.7545 31.5769 62.756Z" fill="black"/>
<path d="M30.4449 61.6316H18.2801C17.9799 61.6316 17.692 61.7665 17.4797 62.0068C17.2674 62.2471 17.1481 62.573 17.1481 62.9128V70.6043C17.1459 70.7732 17.1732 70.9409 17.2284 71.0978C17.2837 71.2548 17.3658 71.3978 17.4701 71.5186C17.5743 71.6395 17.6987 71.7358 17.836 71.8021C17.9732 71.8683 18.1207 71.9032 18.27 71.9047H23.1224L24.2138 74.6317L25.3086 71.9047H30.4449C30.7451 71.9047 31.033 71.7697 31.2453 71.5294C31.4576 71.2891 31.5769 70.9632 31.5769 70.6234V62.9128C31.5769 62.573 31.4576 62.2471 31.2453 62.0068C31.033 61.7665 30.7451 61.6316 30.4449 61.6316Z" fill="#92E3A9" stroke="#263238" stroke-width="2" stroke-linecap="round" stroke-linejoin="round"/>
<path d="M18.5538 63.5554H30.161" stroke="#263238" stroke-linecap="round" stroke-linejoin="round"/>
<path d="M18.5538 65.8502H30.161" stroke="#263238" stroke-linecap="round" stroke-linejoin="round"/>
<path d="M18.5538 68.1488H30.161" stroke="#263238" stroke-linecap="round" stroke-linejoin="round"/>
<path d="M18.5538 70.4437H30.161" stroke="#263238" stroke-linecap="round" stroke-linejoin="round"/>
<path d="M129.848 139.797C129.848 141.013 123.208 142 115.02 142C106.833 142 100.196 141.013 100.196 139.797C100.196 138.581 106.833 137.594 115.02 137.594C123.208 137.594 129.848 138.581 129.848 139.797Z" fill="#CCCCCC"/>
<path d="M91.2451 74.5246C91.2451 74.5246 90.5389 73.7597 90.6572 74.3908C90.7754 75.0218 91.5188 75.6759 91.8703 75.9857C92.2217 76.2955 93.0462 76.1195 93.0462 76.1195L91.2451 74.5246Z" fill="white" stroke="#263238" stroke-linecap="round" stroke-linejoin="round"/>
<path d="M98.8447 76.2075C98.8447 76.2075 97.9053 74.7885 97.3545 74.123C96.8037 73.4575 96.0941 72.9756 95.5095 73.0139C94.9249 73.0521 94.2018 73.251 93.7321 73.251C93.2624 73.251 92.7893 72.8953 92.7183 73.251C92.6474 73.6067 92.7927 73.6335 93.1847 73.8247C93.5766 74.0159 94.4045 74.2722 94.4045 74.2722C94.4045 74.2722 93.3671 74.6547 93.0529 74.8344C92.7386 75.0142 92.0729 74.6547 92.0729 74.6547C92.0729 74.6547 90.9376 73.6373 90.9376 74.1689C90.9376 74.7006 91.7215 75.3661 92.154 75.7218C92.5866 76.0775 92.742 76.3834 93.3266 76.2534C93.9112 76.1233 96.3441 75.4081 96.3441 75.4081L97.6383 77.1407L98.8447 76.2075Z" fill="white" stroke="#263238" stroke-linecap="round" stroke-linejoin="round"/>
<path d="M93.9484 75.9857C93.9484 75.9857 93.1645 76.2534 92.8502 75.9857C92.536 75.7179 91.4411 74.6547 91.3229 73.9892C91.2046 73.3237 93.2827 75.2322 93.2827 75.2322C93.2827 75.2322 94.9723 74.3449 95.3575 74.211C95.4795 74.1767 95.6068 74.1751 95.7294 74.2063C95.852 74.2375 95.9665 74.3007 96.0637 74.3908" fill="white"/>
<path d="M93.9484 75.9857C93.9484 75.9857 93.1645 76.2534 92.8502 75.9857C92.536 75.7179 91.4411 74.6547 91.3229 73.9892C91.2046 73.3237 93.2827 75.2322 93.2827 75.2322C93.2827 75.2322 94.9723 74.3449 95.3575 74.211C95.4795 74.1767 95.6068 74.1751 95.7294 74.2063C95.852 74.2375 95.9665 74.3007 96.0637 74.3908" stroke="#263238" stroke-linecap="round" stroke-linejoin="round"/>
<path d="M109.55 138.585C109.451 138.718 109.381 138.875 109.344 139.044C109.307 139.213 109.305 139.39 109.337 139.56C109.479 140.049 110.27 140.742 111.527 140.742C112.784 140.742 113.361 140.21 113.466 139.399C113.545 138.67 113.581 137.935 113.574 137.2C113.574 136.875 113.145 137.77 111.851 138.259C111.113 138.55 110.329 138.66 109.55 138.585Z" fill="#92E3A9" stroke="#263238" stroke-linecap="round" stroke-linejoin="round"/>
<path d="M108.509 110.24C108.509 110.24 109.523 113.575 109.371 115.036C109.219 116.497 108.725 118.861 109.337 122.112C109.949 125.363 111.493 132.362 111.456 134.274C111.418 136.186 110.341 137.039 109.624 138.34C108.908 139.64 110.638 140.374 112.246 140.13C113.855 139.885 113.432 136.837 113.598 134.152C113.764 131.467 113.071 130.423 113.179 126.598C113.287 122.773 113.72 120.012 113.753 116.512C113.787 113.013 113.899 110.167 113.899 110.167L108.509 110.24Z" fill="white" stroke="#263238" stroke-linecap="round" stroke-linejoin="round"/>
<path d="M120.616 137.732C120.616 137.732 120.008 139.262 120.008 140.049C120.008 140.837 121.194 141.472 121.948 141.392C122.701 141.312 123.168 140.86 123.384 139.724C123.6 138.588 123.313 136.186 123.313 136.186L120.616 137.732Z" fill="#92E3A9" stroke="#263238" stroke-linecap="round" stroke-linejoin="round"/>
<path d="M112.75 110.305C112.75 110.305 113.017 113.613 113.378 114.913C113.74 116.214 116.379 122.073 117.744 125.083C119.109 128.093 121.299 133.012 121.407 133.88C121.515 134.748 120.691 137.625 120.295 138.722C119.9 139.82 120.366 140.512 121.228 140.757C122.09 141.002 122.955 140.374 123.276 139.005C123.597 137.636 123.614 136.565 123.455 134.572C123.296 132.58 123.134 132.947 122.779 131.807C122.424 130.667 121.089 124.923 120.414 122.089C119.738 119.254 119.623 116.921 118.795 115.296C117.967 113.67 117.359 112.695 117.359 112.695C117.359 112.695 117.609 110.293 117.609 110.171C117.609 110.048 112.75 110.305 112.75 110.305Z" fill="white" stroke="#263238" stroke-linecap="round" stroke-linejoin="round"/>
<path d="M110.479 69.9579C110.479 69.9579 106.481 71.1971 106.404 71.6408C106.326 72.0845 103.586 81.8833 103.309 82.0593C103.031 82.2352 102.879 82.1052 102.879 82.1052L98.767 75.7294L96.4557 77.5461C97.1826 79.3592 98.0064 81.1206 98.9224 82.8204C100.45 85.6583 103.116 87.7925 103.7 87.5669C104.285 87.3412 108.245 80.2043 108.245 80.2043C108.245 80.2043 109.577 83.0422 109.259 83.8875C109.027 84.555 108.71 85.181 108.32 85.7463C108.124 85.9681 104.64 90.7184 104.718 95.9888C104.795 101.259 108.097 111.154 108.097 111.154H118.008C118.008 111.154 120.356 104.946 120.512 99.7141C120.667 94.4819 119.768 89.4716 119.18 87.5669C118.592 85.6622 118.166 83.8875 118.166 83.8875L119.734 79.0072C119.734 79.0072 123.573 84.8628 124.316 85.0846C125.06 85.3064 126.665 84.8169 126.705 83.1723C126.746 81.5276 122.542 74.582 122.113 73.0521C121.684 71.5222 121.562 71.1015 120.978 70.9256C120.393 70.7496 117.217 69.9503 116 69.7782C114.609 69.6034 113.21 69.5293 111.81 69.5563C111.343 69.551 110.882 69.6898 110.479 69.9579Z" fill="#92E3A9" stroke="#263238" stroke-linecap="round" stroke-linejoin="round"/>
<path d="M119.724 78.9995L120.897 75.0983" stroke="#263238" stroke-linecap="round" stroke-linejoin="round"/>
<path d="M108.245 80.1966L106.914 75.8097" stroke="#263238" stroke-linecap="round" stroke-linejoin="round"/>
<path d="M112.402 108.048C112.402 108.048 112.652 98.4099 115.156 93.8738" stroke="#263238" stroke-linecap="round" stroke-linejoin="round"/>
<path d="M112.28 68.8908C111.669 68.9181 111.069 69.0846 110.516 69.3804C110.336 69.4714 110.179 69.613 110.061 69.7917C109.943 69.9704 109.867 70.1804 109.84 70.4016C109.84 70.4016 111.094 73.6373 111.868 75.6759C112.642 77.7144 113.557 79.2672 114.179 78.7356C114.801 78.204 116.923 72.9259 117.22 71.419C117.518 69.912 117.301 69.8241 116.713 69.2924C116.254 68.8154 115.647 68.5602 115.024 68.581C114.389 68.581 112.28 68.8908 112.28 68.8908Z" fill="white" stroke="#263238" stroke-linecap="round" stroke-linejoin="round"/>
<path d="M114.473 54.5482C114.473 54.5482 112.996 55.1793 112.307 56.2923C111.618 57.4053 111.631 57.9943 111.293 58.6253C110.955 59.2564 109.878 59.6312 109.746 59.8531C109.684 59.9771 109.649 60.1157 109.643 60.2578C109.637 60.3999 109.661 60.5416 109.712 60.6716C109.813 60.8551 110.107 60.8666 110.107 60.8666C110.036 61.6302 110.047 62.4006 110.138 63.1614C110.259 63.6701 110.333 64.1919 110.357 64.7181C110.357 65.0126 110.401 65.3759 110.763 65.3759C111.124 65.3759 112.179 65.418 112.277 65.418C112.375 65.418 112.321 67.0665 112.175 68.015C112.03 68.9635 111.922 69.128 111.665 69.2504C111.532 69.3105 111.409 69.3944 111.3 69.499C111.3 69.499 111.665 70.6464 111.848 71.4993C112.03 72.3522 113.344 76.1386 113.598 75.6453C114.568 73.6443 115.303 71.5086 115.784 69.2924C115.784 69.2924 115.321 68.91 115.257 67.1965C115.193 65.483 115.845 64.5957 116.173 64.4504C116.501 64.305 119.484 64.0029 120.042 61.666C120.599 59.3291 119.812 56.4682 118.352 55.0225C116.893 53.5767 114.473 54.5482 114.473 54.5482Z" fill="white" stroke="#263238" stroke-linecap="round" stroke-linejoin="round"/>
<path d="M112.456 59.2182C112.365 59.44 112.202 59.5739 112.094 59.5203C111.986 59.4668 111.976 59.2373 112.071 59.0116C112.165 58.786 112.321 58.6559 112.429 58.7133C112.537 58.7707 112.547 58.9963 112.456 59.2182Z" fill="#263238"/>
<path d="M111.891 58.8089C111.891 58.8089 112.361 58.1128 112.537 58.3117C112.713 58.5106 112.537 58.9581 112.449 59.1417" stroke="#263238" stroke-width="0.75" stroke-linecap="round" stroke-linejoin="round"/>
<path d="M110.584 62.4194C110.818 62.481 111.063 62.4635 111.288 62.369C111.513 62.2744 111.709 62.1071 111.851 61.8878" stroke="#263238" stroke-linecap="round" stroke-linejoin="round"/>
<path d="M112.155 57.6577C112.155 57.6577 112.615 56.9386 113.003 57.3785C113.119 57.524 113.206 57.6949 113.261 57.8804C113.316 58.0659 113.336 58.2622 113.321 58.457" stroke="#263238" stroke-linecap="round" stroke-linejoin="round"/>
<path d="M121.556 66.072C121.556 66.6125 121.415 67.141 121.151 67.5906C120.886 68.0403 120.509 68.3909 120.068 68.5981C119.627 68.8053 119.141 68.8597 118.673 68.7544C118.205 68.6492 117.775 68.389 117.437 68.0068C117.099 67.6247 116.87 67.1378 116.777 66.6077C116.684 66.0776 116.732 65.5282 116.915 65.029C117.098 64.5299 117.407 64.1034 117.805 63.8037C118.202 63.5039 118.669 63.3443 119.146 63.345C119.785 63.345 120.398 63.6323 120.85 64.1437C121.302 64.6552 121.556 65.3488 121.556 66.072Z" fill="#263238" stroke="#263238" stroke-linecap="round" stroke-linejoin="round"/>
<path d="M113.277 54.2767C113.277 56.3114 114.389 59.1493 114.787 60.0864C114.877 60.3727 115.056 60.6121 115.291 60.7595C115.629 60.924 116.017 60.6792 116.305 60.4229C116.592 60.1667 116.926 59.8645 117.298 59.9066C117.48 59.9442 117.647 60.0483 117.772 60.203C117.897 60.3577 117.974 60.5545 117.991 60.7633C118.015 61.181 117.893 61.5927 117.653 61.9108C117.418 62.2341 117.116 62.4862 116.774 62.6445C116.432 62.8027 116.06 62.8621 115.693 62.8172C115.771 63.2703 115.956 63.6909 116.229 64.0343C116.501 64.3778 116.851 64.6313 117.241 64.7678C117.633 64.8966 118.044 64.9363 118.45 64.8844C118.856 64.8325 119.249 64.6902 119.606 64.4657C120.115 64.1427 120.561 63.7075 120.919 63.1859C121.276 62.6643 121.538 62.0668 121.688 61.4288C121.979 60.1465 121.932 58.7954 121.552 57.5429C121.181 56.2895 120.555 55.1521 119.724 54.2222C118.894 53.2922 117.882 52.5957 116.771 52.1884C116.005 51.9381 115.194 51.9262 114.422 52.1539C113.574 52.3987 113.28 53.2402 113.277 54.2767Z" fill="#263238" stroke="#263238" stroke-linecap="round" stroke-linejoin="round"/>
<path d="M116.159 62.5571C116.165 62.4817 116.157 62.4058 116.135 62.3342C116.113 62.2626 116.079 62.1969 116.033 62.1412C115.988 62.0855 115.933 62.041 115.872 62.0106C115.811 61.9802 115.745 61.9645 115.678 61.9645C115.611 61.9645 115.545 61.9802 115.484 62.0106C115.422 62.041 115.367 62.0855 115.322 62.1412C115.277 62.1969 115.242 62.2626 115.221 62.3342C115.199 62.4058 115.191 62.4817 115.196 62.5571C115.206 62.6938 115.261 62.8212 115.351 62.914C115.44 63.0068 115.557 63.0584 115.678 63.0584C115.799 63.0584 115.916 63.0068 116.005 62.914C116.094 62.8212 116.149 62.6938 116.159 62.5571Z" fill="#92E3A9" stroke="#263238" stroke-width="0.75" stroke-linecap="round" stroke-linejoin="round"/>
<path d="M119.684 77.9822H111.026V91.5063H119.684V77.9822Z" fill="#263238" stroke="#263238" stroke-linecap="round" stroke-linejoin="round"/>
<path d="M116.98 77.2708H113.73V78.5138H116.98V77.2708Z" fill="white" stroke="#263238" stroke-linecap="round" stroke-linejoin="round"/>
<path d="M116.196 84.4994C115.649 84.3546 115.112 84.1615 114.591 83.9219C114.036 83.5445 113.577 83.0092 113.26 82.3691C112.946 81.7495 112.75 81.8374 112.006 81.8374H110.516C110.361 81.8374 110.283 82.0172 110.479 82.2811C110.637 82.467 110.843 82.5915 111.067 82.6368C111.185 82.6827 111.496 82.7707 111.496 82.7707L111.851 82.9045C111.851 82.9045 110.283 82.9925 110.087 83.3903C109.891 83.788 109.969 84.3235 110.242 84.4115C110.516 84.4994 110.516 84.4994 110.58 84.6754C110.645 84.8513 110.618 85.3409 110.695 85.6507C110.728 85.7758 110.783 85.8918 110.857 85.9913C110.932 86.0908 111.024 86.1715 111.128 86.2282C111.324 86.3621 111.466 86.538 112.733 86.538C114 86.538 115.281 86.3162 115.477 86.3162H116.416L116.196 84.4994Z" fill="white" stroke="#263238" stroke-linecap="round" stroke-linejoin="round"/>
<path d="M124.58 82.2811C124.58 82.2811 121.37 83.7001 118.863 84.0099C116.355 84.3197 116.041 84.3235 116.041 84.3235V87.586C118.389 87.6456 120.734 87.3485 123.012 86.7025C126.655 85.6354 127.52 85.1037 127.743 84.2164C127.966 83.3291 125.979 81.0266 125.979 81.0266" fill="#92E3A9"/>
<path d="M124.58 82.2811C124.58 82.2811 121.37 83.7001 118.863 84.0099C116.355 84.3197 116.041 84.3235 116.041 84.3235V87.586C118.389 87.6456 120.734 87.3485 123.012 86.7025C126.655 85.6354 127.52 85.1037 127.743 84.2164C127.966 83.3291 125.979 81.0266 125.979 81.0266" stroke="#263238" stroke-linecap="round" stroke-linejoin="round"/>
<path d="M109.996 137.77C109.996 137.77 111.074 136.102 113.48 137.77L113.588 136.592C113.588 136.592 112.618 135.827 111.864 135.861L111.111 135.9C110.709 136.499 110.336 137.123 109.996 137.77Z" fill="#92E3A9" stroke="#263238" stroke-linecap="round" stroke-linejoin="round"/>
<path d="M120.295 138.707C120.526 138.501 120.793 138.355 121.078 138.278C121.363 138.201 121.66 138.194 121.948 138.259C122.223 138.335 122.482 138.476 122.705 138.674C122.928 138.872 123.111 139.122 123.242 139.407L123.455 138.145C123.386 137.869 123.247 137.622 123.055 137.434C122.864 137.247 122.628 137.127 122.377 137.089C121.832 136.993 121.275 137.063 120.762 137.292C120.645 137.779 120.489 138.253 120.295 138.707Z" fill="#92E3A9" stroke="#263238" stroke-linecap="round" stroke-linejoin="round"/>
</g>
<defs>
<filter id="filter0_d" x="0" y="26.4453" width="149" height="123.555" filterUnits="userSpaceOnUse" color-interpolation-filters="sRGB">
<feFlood flood-opacity="0" result="BackgroundImageFix"/>
<feColorMatrix in="SourceAlpha" type="matrix" values="0 0 0 0 0 0 0 0 0 0 0 0 0 0 0 0 0 0 127 0" result="hardAlpha"/>
<feOffset dy="4"/>
<feGaussianBlur stdDeviation="2"/>
<feComposite in2="hardAlpha" operator="out"/>
<feColorMatrix type="matrix" values="0 0 0 0 0 0 0 0 0 0 0 0 0 0 0 0 0 0 0.25 0"/>
<feBlend mode="normal" in2="BackgroundImageFix" result="effect1_dropShadow"/>
<feBlend mode="normal" in="SourceGraphic" in2="effect1_dropShadow" result="shape"/>
</filter>
</defs>
</svg>
