<svg width="20" height="20" viewBox="0 0 20 20" fill="none" xmlns="http://www.w3.org/2000/svg">
<path d="M13 10C13 10.7957 12.6839 11.5587 12.1213 12.1213C11.5587 12.684 10.7956 13 9.99999 13C9.20434 13 8.44128 12.684 7.87867 12.1213C7.31606 11.5587 6.99999 10.7957 6.99999 10C6.99999 9.82903 7.01799 9.66202 7.04899 9.50002H5.99999V13.497C5.99999 13.775 6.22499 14 6.50299 14H13.498C13.6312 13.9998 13.7589 13.9466 13.853 13.8523C13.9471 13.758 14 13.6303 14 13.497V9.50002H12.951C12.982 9.66202 13 9.82903 13 10ZM9.99999 12C10.2627 12 10.5228 11.9481 10.7655 11.8476C11.0082 11.747 11.2287 11.5995 11.4144 11.4137C11.6001 11.2279 11.7474 11.0074 11.8479 10.7646C11.9484 10.5219 12.0001 10.2617 12 9.99902C11.9999 9.73631 11.9481 9.47619 11.8475 9.2335C11.7469 8.99082 11.5995 8.77032 11.4137 8.5846C11.2279 8.39889 11.0073 8.25159 10.7646 8.15111C10.5219 8.05064 10.2617 7.99896 9.99899 7.99902C9.46843 7.99916 8.95965 8.21005 8.58457 8.58531C8.2095 8.96057 7.99886 9.46946 7.99899 10C7.99913 10.5306 8.21002 11.0394 8.58528 11.4144C8.96054 11.7895 9.46943 12.0002 9.99999 12ZM12.4 7.90002H13.599C13.6787 7.90002 13.7551 7.86845 13.8115 7.81222C13.8679 7.75598 13.8997 7.67968 13.9 7.60002V6.40102C13.9 6.32119 13.8683 6.24463 13.8118 6.18819C13.7554 6.13174 13.6788 6.10002 13.599 6.10002H12.4C12.3202 6.10002 12.2436 6.13174 12.1872 6.18819C12.1307 6.24463 12.099 6.32119 12.099 6.40102V7.60002C12.1 7.76502 12.235 7.90002 12.4 7.90002ZM9.99999 0.400024C7.45392 0.400024 5.01212 1.41145 3.21177 3.2118C1.41142 5.01215 0.399994 7.45395 0.399994 10C0.399994 12.5461 1.41142 14.9879 3.21177 16.7882C5.01212 18.5886 7.45392 19.6 9.99999 19.6C11.2607 19.6 12.509 19.3517 13.6738 18.8693C14.8385 18.3868 15.8968 17.6797 16.7882 16.7882C17.6797 15.8968 18.3868 14.8385 18.8692 13.6738C19.3517 12.5091 19.6 11.2607 19.6 10C19.6 8.73934 19.3517 7.49099 18.8692 6.32626C18.3868 5.16154 17.6797 4.10324 16.7882 3.2118C15.8968 2.32036 14.8385 1.61323 13.6738 1.13078C12.509 0.648336 11.2607 0.400024 9.99999 0.400024ZM15 13.889C15 14.5 14.5 15 13.889 15H6.11099C5.49999 15 4.99999 14.5 4.99999 13.889V6.11102C4.99999 5.50002 5.49999 5.00002 6.11099 5.00002H13.889C14.5 5.00002 15 5.50002 15 6.11102V13.889Z" fill="white"/>
</svg>
