<svg width="62" height="55" viewBox="0 0 62 55" fill="none" xmlns="http://www.w3.org/2000/svg">
<g clip-path="url(#clip0)">
<g filter="url(#filter0_d)">
<path d="M31 32.0834V36.6667C26.8892 36.6667 22.9467 38.1153 20.0399 40.694C17.133 43.2726 15.5 46.77 15.5 50.4167H10.3333C10.3333 45.5544 12.5107 40.8912 16.3865 37.4531C20.2622 34.0149 25.5189 32.0834 31 32.0834ZM31 29.7917C22.4363 29.7917 15.5 23.6386 15.5 16.0417C15.5 8.44481 22.4363 2.29169 31 2.29169C39.5638 2.29169 46.5 8.44481 46.5 16.0417C46.5 23.6386 39.5638 29.7917 31 29.7917ZM31 25.2084C36.7092 25.2084 41.3333 21.1063 41.3333 16.0417C41.3333 10.9771 36.7092 6.87502 31 6.87502C25.2908 6.87502 20.6667 10.9771 20.6667 16.0417C20.6667 21.1063 25.2908 25.2084 31 25.2084ZM54.25 38.9584H56.8333V50.4167H36.1667V38.9584H38.75V36.6667C38.75 34.8433 39.5665 33.0946 41.0199 31.8053C42.4733 30.516 44.4446 29.7917 46.5 29.7917C48.5554 29.7917 50.5267 30.516 51.9801 31.8053C53.4335 33.0946 54.25 34.8433 54.25 36.6667V38.9584ZM49.0833 38.9584V36.6667C49.0833 36.0589 48.8112 35.476 48.3267 35.0462C47.8422 34.6165 47.1852 34.375 46.5 34.375C45.8149 34.375 45.1578 34.6165 44.6733 35.0462C44.1888 35.476 43.9167 36.0589 43.9167 36.6667V38.9584H49.0833Z" fill="#060505"/>
<path d="M53.75 38.9584V39.4584H54.25H56.3333V49.9167H36.6667V39.4584H38.75H39.25V38.9584V36.6667C39.25 34.9966 39.9974 33.3808 41.3517 32.1794C42.708 30.9762 44.5591 30.2917 46.5 30.2917C48.4409 30.2917 50.292 30.9762 51.6483 32.1794C53.0026 33.3808 53.75 34.9966 53.75 36.6667V38.9584ZM49.0833 39.4584H49.5833V38.9584V36.6667C49.5833 35.9056 49.242 35.1898 48.6585 34.6722C48.0769 34.1563 47.2997 33.875 46.5 33.875C45.7003 33.875 44.9231 34.1563 44.3415 34.6722C43.758 35.1898 43.4167 35.9056 43.4167 36.6667V38.9584V39.4584H43.9167H49.0833ZM10.8413 49.9167C10.9849 45.388 13.0754 41.0587 16.7183 37.8271C20.3794 34.5793 25.3152 32.7024 30.5 32.5888V36.1736C26.4552 36.2861 22.5933 37.7604 19.708 40.3199C16.8343 42.8692 15.1522 46.2994 15.0098 49.9167H10.8413ZM31 29.2917C22.6544 29.2917 16 23.3078 16 16.0417C16 8.77558 22.6544 2.79169 31 2.79169C39.3456 2.79169 46 8.77558 46 16.0417C46 23.3078 39.3456 29.2917 31 29.2917ZM31 25.7084C36.9273 25.7084 41.8333 21.437 41.8333 16.0417C41.8333 10.6463 36.9273 6.37502 31 6.37502C25.0727 6.37502 20.1667 10.6463 20.1667 16.0417C20.1667 21.437 25.0727 25.7084 31 25.7084Z" stroke="black"/>
</g>
</g>
<defs>
<filter id="filter0_d" x="6.33334" y="2.29169" width="54.5" height="56.125" filterUnits="userSpaceOnUse" color-interpolation-filters="sRGB">
<feFlood flood-opacity="0" result="BackgroundImageFix"/>
<feColorMatrix in="SourceAlpha" type="matrix" values="0 0 0 0 0 0 0 0 0 0 0 0 0 0 0 0 0 0 127 0" result="hardAlpha"/>
<feOffset dy="4"/>
<feGaussianBlur stdDeviation="2"/>
<feComposite in2="hardAlpha" operator="out"/>
<feColorMatrix type="matrix" values="0 0 0 0 0 0 0 0 0 0 0 0 0 0 0 0 0 0 0.25 0"/>
<feBlend mode="normal" in2="BackgroundImageFix" result="effect1_dropShadow"/>
<feBlend mode="normal" in="SourceGraphic" in2="effect1_dropShadow" result="shape"/>
</filter>
<clipPath id="clip0">
<rect width="62" height="55" fill="white"/>
</clipPath>
</defs>
</svg>
