<svg width="65" height="67" viewBox="0 0 65 67" fill="none" xmlns="http://www.w3.org/2000/svg">
<g filter="url(#filter0_d)">
<path d="M55.375 20.3333C56.7232 20.3333 58.0162 20.8689 58.9695 21.8222C59.9228 22.7755 60.4583 24.0685 60.4583 25.4166V35.5833C60.4583 36.9315 59.9228 38.2244 58.9695 39.1778C58.0162 40.1311 56.7232 40.6666 55.375 40.6666H52.6758C52.0561 45.5804 49.6646 50.0992 45.9499 53.375C42.2352 56.6507 37.4527 58.4582 32.5 58.4583V53.375C36.5446 53.375 40.4235 51.7683 43.2834 48.9083C46.1433 46.0484 47.75 42.1695 47.75 38.125V22.875C47.75 18.8304 46.1433 14.9515 43.2834 12.0916C40.4235 9.23166 36.5446 7.62497 32.5 7.62497C28.4555 7.62497 24.5766 9.23166 21.7166 12.0916C18.8567 14.9515 17.25 18.8304 17.25 22.875V40.6666H9.625C8.27682 40.6666 6.98386 40.1311 6.03055 39.1778C5.07724 38.2244 4.54167 36.9315 4.54167 35.5833V25.4166C4.54167 24.0685 5.07724 22.7755 6.03055 21.8222C6.98386 20.8689 8.27682 20.3333 9.625 20.3333H12.3243C12.9445 15.42 15.3363 10.9019 19.051 7.62669C22.7656 4.3515 27.5477 2.54437 32.5 2.54437C37.4523 2.54437 42.2344 4.3515 45.949 7.62669C49.6637 10.9019 52.0555 15.42 52.6758 20.3333H55.375ZM21.7233 40.1202L24.4175 35.8095C26.8399 37.327 29.6416 38.1296 32.5 38.125C35.3584 38.1296 38.1601 37.327 40.5825 35.8095L43.2767 40.1202C40.0469 42.1437 36.3113 43.2142 32.5 43.2083C28.6887 43.2142 24.9531 42.1437 21.7233 40.1202Z" fill="#060505"/>
</g>
<defs>
<filter id="filter0_d" x="-2" y="0" width="69" height="69" filterUnits="userSpaceOnUse" color-interpolation-filters="sRGB">
<feFlood flood-opacity="0" result="BackgroundImageFix"/>
<feColorMatrix in="SourceAlpha" type="matrix" values="0 0 0 0 0 0 0 0 0 0 0 0 0 0 0 0 0 0 127 0" result="hardAlpha"/>
<feOffset dy="4"/>
<feGaussianBlur stdDeviation="2"/>
<feComposite in2="hardAlpha" operator="out"/>
<feColorMatrix type="matrix" values="0 0 0 0 0 0 0 0 0 0 0 0 0 0 0 0 0 0 0.25 0"/>
<feBlend mode="normal" in2="BackgroundImageFix" result="effect1_dropShadow"/>
<feBlend mode="normal" in="SourceGraphic" in2="effect1_dropShadow" result="shape"/>
</filter>
</defs>
</svg>
