<svg width="66" height="61" viewBox="0 0 66 61" fill="none" xmlns="http://www.w3.org/2000/svg">
<path d="M33 55.9166C17.8118 55.9166 5.5 44.5376 5.5 30.5C5.5 16.4624 17.8118 5.08331 33 5.08331C48.1882 5.08331 60.5 16.4624 60.5 30.5C60.5 44.5376 48.1882 55.9166 33 55.9166ZM33 50.8333C38.8348 50.8333 44.4305 48.6911 48.5564 44.8778C52.6822 41.0646 55 35.8927 55 30.5C55 25.1072 52.6822 19.9354 48.5564 16.1221C44.4305 12.3089 38.8348 10.1666 33 10.1666C27.1652 10.1666 21.5695 12.3089 17.4437 16.1221C13.3179 19.9354 11 25.1072 11 30.5C11 35.8927 13.3179 41.0646 17.4437 44.8778C21.5695 48.6911 27.1652 50.8333 33 50.8333ZM23.375 35.5833H38.5C38.8647 35.5833 39.2144 35.4494 39.4723 35.2111C39.7301 34.9728 39.875 34.6495 39.875 34.3125C39.875 33.9754 39.7301 33.6522 39.4723 33.4139C39.2144 33.1755 38.8647 33.0416 38.5 33.0416H27.5C25.6766 33.0416 23.928 32.3722 22.6386 31.1806C21.3493 29.9889 20.625 28.3727 20.625 26.6875C20.625 25.0023 21.3493 23.386 22.6386 22.1944C23.928 21.0028 25.6766 20.3333 27.5 20.3333H30.25V15.25H35.75V20.3333H42.625V25.4166H27.5C27.1353 25.4166 26.7856 25.5505 26.5277 25.7889C26.2699 26.0272 26.125 26.3504 26.125 26.6875C26.125 27.0245 26.2699 27.3478 26.5277 27.5861C26.7856 27.8244 27.1353 27.9583 27.5 27.9583H38.5C40.3234 27.9583 42.072 28.6278 43.3614 29.8194C44.6507 31.011 45.375 32.6273 45.375 34.3125C45.375 35.9977 44.6507 37.6139 43.3614 38.8056C42.072 39.9972 40.3234 40.6666 38.5 40.6666H35.75V45.75H30.25V40.6666H23.375V35.5833Z" fill="black"/>
</svg>
