<svg width="65" height="62" viewBox="0 0 65 62" fill="none" xmlns="http://www.w3.org/2000/svg">
<g filter="url(#filter0_d)">
<path d="M24.786 45.75C24.4839 47.8705 23.4268 49.8107 21.8089 51.2144C20.1911 52.6181 18.1211 53.3909 15.9792 53.3909C13.8373 53.3909 11.7673 52.6181 10.1494 51.2144C8.53154 49.8107 7.47445 47.8705 7.1723 45.75H4.54167V15.25C4.54167 14.5759 4.80945 13.9294 5.28611 13.4528C5.76276 12.9761 6.40925 12.7083 7.08334 12.7083H42.6667C43.3408 12.7083 43.9873 12.9761 44.4639 13.4528C44.9406 13.9294 45.2083 14.5759 45.2083 15.25V20.3333H52.8333L60.4583 30.6423V45.75H55.286C54.9839 47.8705 53.9268 49.8107 52.3089 51.2144C50.6911 52.6181 48.6211 53.3909 46.4792 53.3909C44.3373 53.3909 42.2673 52.6181 40.6494 51.2144C39.0315 49.8107 37.9744 47.8705 37.6723 45.75H24.786ZM40.125 17.7916H9.62501V38.2521C10.6279 37.2283 11.8632 36.4619 13.2259 36.0182C14.5886 35.5746 16.0384 35.4667 17.4518 35.7038C18.8651 35.9409 20.2003 36.5159 21.3436 37.38C22.487 38.2441 23.4046 39.3716 24.0185 40.6666H38.4399C38.8669 39.7694 39.4388 38.9536 40.125 38.2521V17.7916ZM45.2083 33.0416H55.375V32.3173L50.2713 25.4166H45.2083V33.0416ZM46.4792 48.2916C47.4906 48.2916 48.4607 47.8898 49.1759 47.1746C49.8911 46.4594 50.2929 45.4894 50.2929 44.4779C50.2929 43.4664 49.8911 42.4964 49.1759 41.7811C48.4607 41.0659 47.4906 40.6641 46.4792 40.6641C45.4677 40.6641 44.4977 41.0659 43.7824 41.7811C43.0672 42.4964 42.6654 43.4664 42.6654 44.4779C42.6654 45.4894 43.0672 46.4594 43.7824 47.1746C44.4977 47.8898 45.4677 48.2916 46.4792 48.2916ZM19.7917 44.4792C19.7917 43.9785 19.6931 43.4827 19.5015 43.0202C19.3099 42.5576 19.029 42.1373 18.675 41.7833C18.321 41.4293 17.9007 41.1485 17.4382 40.9569C16.9756 40.7653 16.4798 40.6667 15.9792 40.6666C15.4785 40.6667 14.9827 40.7653 14.5202 40.9569C14.0576 41.1485 13.6374 41.4293 13.2833 41.7833C12.9293 42.1373 12.6485 42.5576 12.4569 43.0202C12.2653 43.4827 12.1667 43.9785 12.1667 44.4792C12.1667 45.4903 12.5683 46.46 13.2833 47.175C13.9983 47.89 14.968 48.2916 15.9792 48.2916C16.9903 48.2916 17.96 47.89 18.675 47.175C19.39 46.46 19.7917 45.4903 19.7917 44.4792Z" fill="#060505"/>
</g>
<defs>
<filter id="filter0_d" x="-2" y="0" width="69" height="69" filterUnits="userSpaceOnUse" color-interpolation-filters="sRGB">
<feFlood flood-opacity="0" result="BackgroundImageFix"/>
<feColorMatrix in="SourceAlpha" type="matrix" values="0 0 0 0 0 0 0 0 0 0 0 0 0 0 0 0 0 0 127 0" result="hardAlpha"/>
<feOffset dy="4"/>
<feGaussianBlur stdDeviation="2"/>
<feComposite in2="hardAlpha" operator="out"/>
<feColorMatrix type="matrix" values="0 0 0 0 0 0 0 0 0 0 0 0 0 0 0 0 0 0 0.25 0"/>
<feBlend mode="normal" in2="BackgroundImageFix" result="effect1_dropShadow"/>
<feBlend mode="normal" in="SourceGraphic" in2="effect1_dropShadow" result="shape"/>
</filter>
</defs>
</svg>
