<svg width="546" height="300" viewBox="0 0 546 300" fill="none" xmlns="http://www.w3.org/2000/svg">
<path fill-rule="evenodd" clip-rule="evenodd" d="M292.344 36.7609C344.42 27.2733 382.714 -4.0699 437.969 0.441281C486.511 4.40429 499.376 34.9033 519.302 55.2902C536.478 72.8635 546.882 91.7059 545.941 110.912C545.097 128.151 524.735 143.367 514.177 159.938C504.177 175.631 501.784 192.018 485.041 206.491C466.423 222.585 438.878 235.51 411.413 248.769C373.656 266.996 346.932 295.648 292.344 299.515C240.292 303.203 187.776 285.221 153.825 267.017C121.337 249.598 131.695 223.151 111.13 202.354C96.242 187.297 66.7945 176.698 50.0311 162.05C29.7797 144.354 -9.64892 126.332 2.16643 107.139C14.1712 87.6386 70.2198 81.9492 106.61 70.1428C135.077 60.9069 161.516 50.7276 194.081 44.8747C225.412 39.2435 261.071 42.4585 292.344 36.7609Z" fill="#92E3A9" fill-opacity="0.9"/>
</svg>
