<svg width="378" height="281" viewBox="0 0 378 281" fill="none" xmlns="http://www.w3.org/2000/svg">
<g filter="url(#filter0_d)">
<path fill-rule="evenodd" clip-rule="evenodd" d="M188.779 0.0611019C223.89 -1.50408 228.703 27.3798 256.81 43.1696C282.38 57.5338 328.918 47.3923 344.621 68.2099C360.215 88.8834 368.16 111.749 370.795 135.394C373.596 160.529 379.813 188.747 360.348 209.359C340.932 229.919 284.178 209.112 253.311 219.196C225.96 228.132 218.099 261.21 188.779 265.41C154.675 270.296 118.086 278.421 86.4259 267.769C54.2786 256.953 31.3092 233.197 19.3914 208.418C8.17554 185.098 24.4241 160.141 22.7587 135.394C20.9799 108.963 -7.50593 81.3189 9.26884 58.0064C25.9471 34.8281 72.2645 37.3283 102.786 24.1778C133.297 11.0315 153.615 1.62866 188.779 0.0611019Z" fill="#92E3A9"/>
</g>
<defs>
<filter id="filter0_d" x="0" y="0" width="378" height="281" filterUnits="userSpaceOnUse" color-interpolation-filters="sRGB">
<feFlood flood-opacity="0" result="BackgroundImageFix"/>
<feColorMatrix in="SourceAlpha" type="matrix" values="0 0 0 0 0 0 0 0 0 0 0 0 0 0 0 0 0 0 127 0" result="hardAlpha"/>
<feOffset dy="4"/>
<feGaussianBlur stdDeviation="2"/>
<feComposite in2="hardAlpha" operator="out"/>
<feColorMatrix type="matrix" values="0 0 0 0 0 0 0 0 0 0 0 0 0 0 0 0 0 0 0.25 0"/>
<feBlend mode="normal" in2="BackgroundImageFix" result="effect1_dropShadow"/>
<feBlend mode="normal" in="SourceGraphic" in2="effect1_dropShadow" result="shape"/>
</filter>
</defs>
</svg>
