<svg width="955" height="592" viewBox="0 0 955 592" fill="none" xmlns="http://www.w3.org/2000/svg">
<path d="M439.52 528.48H61.0636C58.0988 528.475 55.2572 527.348 53.1626 525.348C51.068 523.347 49.8916 520.636 49.8916 517.809V10.5771C49.9174 7.76653 51.1052 5.07919 53.197 3.09878C55.2888 1.11836 58.1157 0.0048146 61.0636 0H439.52C442.488 0 445.335 1.12421 447.434 3.12532C449.533 5.12643 450.712 7.84051 450.712 10.6705V517.809C450.712 520.639 449.533 523.353 447.434 525.354C445.335 527.355 442.488 528.48 439.52 528.48V528.48ZM61.0636 0.373749C58.2288 0.3787 55.5118 1.45587 53.5091 3.36883C51.5064 5.28178 50.3816 7.87421 50.3816 10.5771V517.809C50.3816 520.512 51.5064 523.104 53.5091 525.017C55.5118 526.93 58.2288 528.007 61.0636 528.012H439.52C442.357 528.007 445.076 526.931 447.081 525.018C449.087 523.106 450.216 520.514 450.222 517.809V10.5771C450.216 7.87249 449.087 5.28011 447.081 3.36769C445.076 1.45526 442.357 0.378689 439.52 0.373749H61.0636Z" fill="#EBEBEB"/>
<path d="M863.488 528.48H485.012C482.045 528.475 479.201 527.349 477.104 525.349C475.006 523.349 473.825 520.637 473.82 517.809V10.5771C473.851 7.76482 475.043 5.07751 477.138 3.09761C479.233 1.11771 482.062 0.00476209 485.012 0H863.488C866.432 0.00972585 869.254 1.12545 871.342 3.10534C873.429 5.08523 874.614 7.76976 874.64 10.5771V517.809C874.64 520.633 873.466 523.341 871.376 525.341C869.286 527.341 866.449 528.47 863.488 528.48V528.48ZM485.012 0.373749C482.175 0.378689 479.456 1.45526 477.45 3.36769C475.444 5.28011 474.315 7.87249 474.31 10.5771V517.809C474.315 520.514 475.444 523.106 477.45 525.018C479.456 526.931 482.175 528.007 485.012 528.012H863.488C866.324 528.007 869.043 526.931 871.049 525.018C873.055 523.106 874.184 520.514 874.189 517.809V10.5771C874.184 7.87249 873.055 5.28011 871.049 3.36769C869.043 1.45526 866.324 0.378689 863.488 0.373749H485.012Z" fill="#EBEBEB"/>
<path d="M644.771 366.236H827.953V45.1302H644.771V366.236Z" fill="#E6E6E6"/>
<path d="M623.878 366.236H822.955V45.1302H623.878V366.236Z" fill="#F0F0F0"/>
<path d="M806.295 350.314V61.0143L640.577 61.0143V350.314H806.295Z" fill="white"/>
<path d="M224.488 58.1179H80.2324V217.97H224.488V58.1179Z" fill="#E0E0E0"/>
<path d="M233.112 58.1179H85.1128V217.97H233.112V58.1179Z" fill="#F5F5F5"/>
<path d="M220.706 205.374V70.7131L97.5 70.7131L97.5 205.374H220.706Z" fill="white"/>
<path d="M426.839 151.424H282.583V311.276H426.839V151.424Z" fill="#E0E0E0"/>
<path d="M435.463 151.424H287.463V311.276H435.463V151.424Z" fill="#F5F5F5"/>
<path d="M423.056 298.699V164.038H299.85V298.699H423.056Z" fill="white"/>
<path d="M344.362 444.405C343.382 444.405 342.402 444.405 341.383 444.498C335.129 444.926 329.052 446.665 323.586 449.592C318.119 452.519 313.399 456.562 309.762 461.431C306.125 466.3 303.662 471.875 302.548 477.758C301.435 483.64 301.698 489.685 303.32 495.459C307.964 512.694 310.205 530.438 309.984 548.232V600.071C309.984 600.966 310.169 601.852 310.529 602.678C310.888 603.505 311.416 604.256 312.08 604.888C312.745 605.519 313.534 606.02 314.401 606.361C315.269 606.702 316.199 606.876 317.138 606.873H489.618V444.405H344.362Z" fill="#F0F0F0"/>
<path d="M532.169 484.938C531.923 474.584 527.528 464.714 519.886 457.354C512.245 449.994 501.937 445.704 491.081 445.364C480.225 445.024 469.645 448.661 461.514 455.528C453.382 462.394 448.318 471.968 447.36 482.284C447.066 486.724 447.529 491.18 448.732 495.478C453.367 512.715 455.608 530.457 455.396 548.251V600.09C455.396 601.894 456.148 603.624 457.486 604.9C458.824 606.175 460.638 606.892 462.53 606.892H517.018C518.911 606.892 520.725 606.175 522.063 604.9C523.401 603.624 524.153 601.894 524.153 600.09V545.223C523.992 528.527 526.208 511.887 530.738 495.758C531.724 492.229 532.206 488.59 532.169 484.938Z" fill="#F5F5F5"/>
<path d="M431.112 508.241H276.232V606.892H431.112V508.241Z" fill="#F0F0F0"/>
<path d="M295.852 368.515H152.89C135.112 368.515 123.039 382.251 125.92 399.181L148.225 530.535H355.534L333.229 399.181C330.348 382.251 313.61 368.515 295.852 368.515Z" fill="#EBEBEB"/>
<path d="M337.894 368.515H191.835C174.92 368.515 163.434 381.597 166.178 397.705L188.738 530.535H396.028L373.468 397.705C370.724 381.597 354.809 368.515 337.894 368.515Z" fill="#F5F5F5"/>
<path d="M286.366 499.234H429.132C431.606 499.234 433.979 500.171 435.729 501.839C437.479 503.507 438.462 505.77 438.462 508.129V530.554C438.462 532.913 437.479 535.176 435.729 536.844C433.979 538.512 431.606 539.449 429.132 539.449H286.366C285.627 539.449 284.92 539.17 284.398 538.672C283.876 538.174 283.582 537.499 283.582 536.796V501.888C283.582 501.184 283.876 500.509 284.398 500.011C284.92 499.513 285.627 499.234 286.366 499.234Z" fill="#EBEBEB"/>
<path d="M132.956 444.405C131.976 444.405 130.996 444.405 129.977 444.498C119.751 445.235 110.146 449.461 102.921 456.4C95.6967 463.34 91.3366 472.529 90.64 482.284C90.3457 486.724 90.8091 491.18 92.012 495.478C96.6566 512.713 98.8973 530.457 98.676 548.251V600.09C98.676 601.894 99.4277 603.624 100.766 604.9C102.104 606.175 103.918 606.892 105.81 606.892H278.29V444.405H132.956Z" fill="#F0F0F0"/>
<path d="M320.764 484.938C320.757 479.172 319.46 473.475 316.958 468.226C314.457 462.976 310.81 458.297 306.26 454.499C301.71 450.701 296.362 447.873 290.574 446.204C284.786 444.535 278.691 444.063 272.696 444.819C266.701 445.575 260.945 447.543 255.812 450.59C250.678 453.637 246.286 457.694 242.929 462.49C239.572 467.285 237.326 472.708 236.343 478.397C235.36 484.086 235.662 489.909 237.228 495.478C241.863 512.715 244.104 530.457 243.892 548.251V600.09C243.892 601.894 244.644 603.624 245.982 604.9C247.32 606.175 249.135 606.892 251.027 606.892H305.515C307.407 606.892 309.222 606.175 310.56 604.9C311.898 603.624 312.649 601.894 312.649 600.09V545.224C312.492 528.528 314.701 511.889 319.215 495.758C320.25 492.236 320.771 488.595 320.764 484.938V484.938Z" fill="#F5F5F5"/>
<path d="M864.33 535.786H779.972V542.383H864.33V535.786Z" fill="#E6E6E6"/>
<path d="M620.859 611.825H636.441V459.953H620.859V611.825Z" fill="#E6E6E6"/>
<path d="M566.92 542.401H779.972V535.805H566.92V542.401Z" fill="#F5F5F5"/>
<path d="M864.33 571.909H779.972V578.506H864.33V571.909Z" fill="#E6E6E6"/>
<path d="M566.92 578.506H779.972V571.909H566.92V578.506Z" fill="#F5F5F5"/>
<path d="M864.33 463.56H779.972V470.156H864.33V463.56Z" fill="#E6E6E6"/>
<path d="M566.92 470.175H779.972V463.578H566.92V470.175Z" fill="#F5F5F5"/>
<path d="M864.33 499.682H779.972V506.279H864.33V499.682Z" fill="#E6E6E6"/>
<path d="M566.92 506.279H779.972V499.682H566.92V506.279Z" fill="#F5F5F5"/>
<path d="M833.911 611.825H849.493V459.953H833.911V611.825Z" fill="#E6E6E6"/>
<path d="M764.39 611.825H779.972V459.953H764.39V611.825Z" fill="#F5F5F5"/>
<path d="M566.92 611.825H582.502V459.953H566.92V611.825Z" fill="#F5F5F5"/>
<path d="M720.153 458.177H728.483V369.618H720.153V458.177Z" fill="#E6E6E6"/>
<path d="M721.231 458.103H723.583V369.543H721.231V458.103Z" fill="#F0F0F0"/>
<path d="M693.458 463.56H755.08C755.08 461.577 754.254 459.676 752.784 458.274C751.313 456.872 749.319 456.085 747.24 456.085H701.239C699.16 456.085 697.165 456.872 695.695 458.274C694.225 459.676 693.399 461.577 693.399 463.56H693.458Z" fill="#F0F0F0"/>
<path d="M710.412 461.373H713.528C713.994 461.373 714.371 461.013 714.371 460.57V454.384C714.371 453.94 713.994 453.58 713.528 453.58H710.412C709.946 453.58 709.569 453.94 709.569 454.384V460.57C709.569 461.013 709.946 461.373 710.412 461.373Z" fill="#F0F0F0"/>
<path d="M687.009 390.567H761.626L754.492 333.832C754.094 330.627 752.478 327.673 749.95 325.527C747.422 323.382 744.157 322.195 740.772 322.189H707.903C704.521 322.203 701.26 323.393 698.734 325.537C696.207 327.681 694.589 330.63 694.183 333.832L687.009 390.567Z" fill="#F5F5F5"/>
<path d="M554.592 200.647L553.906 202.852L553.278 204.72C552.847 205.973 552.377 207.131 551.906 208.327C550.966 210.663 549.946 212.943 548.829 215.204C546.655 219.7 544.2 224.068 541.479 228.285C540.127 230.397 538.696 232.434 537.246 234.471C535.795 236.508 534.247 238.47 532.62 240.395C529.43 244.286 526.008 247.998 522.369 251.514L521.605 252.261C520.55 253.293 519.3 254.123 517.92 254.709C513.837 256.413 509.397 257.199 504.945 257.008C501.068 256.808 497.259 255.954 493.694 254.485C490.707 253.282 487.884 251.738 485.286 249.888C482.954 248.264 480.747 246.485 478.681 244.562C474.926 240.979 471.54 237.062 468.567 232.864C467.117 230.845 465.784 228.771 464.51 226.678C463.236 224.585 462.138 222.492 460.943 220.082C460.163 218.511 459.981 216.73 460.43 215.045C460.878 213.361 461.928 211.878 463.399 210.851C464.87 209.825 466.67 209.319 468.489 209.421C470.309 209.523 472.035 210.227 473.369 211.411L473.879 211.859L478.661 216.045C480.288 217.465 481.954 218.829 483.62 220.138C486.775 222.689 490.115 225.025 493.616 227.127C496.354 228.867 499.393 230.132 502.593 230.864C503.407 231.083 504.268 231.083 505.082 230.864C505.351 230.75 505.572 230.552 505.709 230.304L501.201 233.555C503.69 230.341 506.101 227.089 508.316 223.726C510.531 220.362 512.648 216.886 514.627 213.391C516.607 209.897 518.43 206.29 520.115 202.684C520.978 200.815 521.742 199.058 522.526 197.264L524.486 192.368L525.035 191.023C526.599 187.576 529.467 184.817 533.068 183.294C536.669 181.771 540.739 181.597 544.469 182.805C548.199 184.013 551.315 186.515 553.198 189.814C555.081 193.113 555.592 196.967 554.631 200.609L554.592 200.647Z" fill="#263238"/>
<path d="M466.49 220.175L453.24 215.784L450.457 198.479C450.457 198.479 472.664 204.085 472.566 214.289L466.49 220.175Z" fill="#CE7A63"/>
<path d="M544.537 130.027C535.893 127.13 523.957 117.263 528.641 104.5C532.208 94.8198 545.419 93.9602 550.613 96.8567C555.807 99.7533 556.022 93.8107 562.667 91.5308C569.311 89.251 573.996 94.988 577.367 97.9967C580.738 101.005 584.678 98.7255 589.676 98.931C594.674 99.1366 598.241 105.378 595.458 109.938C590.558 117.936 598.652 123.019 592.518 129.261C583.482 138.324 590.558 147.219 577.818 156.245C570.076 161.777 548.084 151.63 544.537 130.027Z" fill="#263238"/>
<path d="M544.38 138.474C544.058 138.657 543.695 138.765 543.322 138.791C542.672 138.843 542.028 138.648 541.529 138.249C541.029 137.85 540.716 137.279 540.656 136.661C540.225 132.952 540.733 129.199 542.138 125.716C543.543 122.234 545.804 119.124 548.731 116.647C548.985 116.454 549.276 116.312 549.587 116.229C549.899 116.145 550.225 116.122 550.547 116.16C550.868 116.198 551.178 116.297 551.459 116.452C551.739 116.606 551.985 116.812 552.181 117.058C552.382 117.298 552.532 117.574 552.621 117.869C552.71 118.165 552.738 118.474 552.701 118.78C552.665 119.086 552.565 119.381 552.409 119.65C552.252 119.919 552.042 120.156 551.789 120.347V120.347C549.499 122.334 547.74 124.813 546.659 127.58C545.578 130.346 545.207 133.319 545.576 136.25C545.615 136.69 545.524 137.132 545.313 137.525C545.101 137.919 544.778 138.247 544.38 138.474V138.474Z" fill="#263238"/>
<path d="M530.288 181.959C530.288 181.959 512.902 224.38 529.406 303.427H608.217C608.766 291.897 601.161 235.629 612.823 181.286C604.11 179.689 595.298 178.628 586.442 178.11C575.286 177.492 564.101 177.492 552.945 178.11C545.299 178.825 537.723 180.112 530.288 181.959V181.959Z" fill="white"/>
<path d="M583.129 142.024C581.012 152.302 578.915 171.139 586.442 177.998C586.442 177.998 573.819 187.752 560.55 197.619C557.618 195.25 555.377 192.198 554.045 188.761C552.713 185.323 552.334 181.616 552.945 177.998C564.96 175.269 564.705 166.785 562.569 158.768L583.129 142.024Z" fill="#CE7A63"/>
<path opacity="0.2" d="M574.76 148.92L562.588 158.824C563.108 160.66 563.456 162.536 563.627 164.43C567.547 167.981 574.525 158.992 575.015 154.414C575.273 152.583 575.187 150.722 574.76 148.92Z" fill="black"/>
<path d="M582.992 124.738C583.541 138.679 584.599 146.808 578.014 154.638C568.076 166.374 549.496 161.721 544.596 148.21C540.186 136.063 540.029 115.32 553.69 108.48C556.687 106.957 560.042 106.189 563.438 106.25C566.834 106.31 570.157 107.197 573.092 108.825C576.027 110.454 578.477 112.771 580.21 115.556C581.943 118.341 582.9 121.501 582.992 124.738V124.738Z" fill="#CE7A63"/>
<path d="M582.6 137.633C578.582 145.108 573.956 121.468 575.132 117.525C560.922 121.263 539.127 120.029 540.813 110.573C542.773 99.9028 555.787 99.4917 570.213 100.8C594.027 102.986 586.951 129.522 582.6 137.633Z" fill="#263238"/>
<path d="M575.564 138.959C575.194 138.98 574.824 138.916 574.486 138.773C574.188 138.649 573.919 138.47 573.694 138.247C573.469 138.024 573.293 137.761 573.174 137.473C573.056 137.185 572.998 136.878 573.005 136.568C573.011 136.259 573.081 135.954 573.212 135.67C574.694 132.219 577.024 129.156 580.004 126.74C582.985 124.324 586.53 122.625 590.342 121.786C590.979 121.677 591.634 121.812 592.167 122.162C592.699 122.512 593.065 123.048 593.184 123.654C593.288 124.26 593.142 124.881 592.777 125.386C592.411 125.891 591.855 126.242 591.224 126.364V126.364C588.207 127.075 585.413 128.464 583.074 130.415C580.735 132.365 578.919 134.821 577.778 137.577C577.591 137.988 577.281 138.338 576.888 138.584C576.494 138.83 576.034 138.96 575.564 138.959V138.959Z" fill="#263238"/>
<path d="M590.283 134.549C589.51 137.907 587.474 140.878 584.56 142.903C580.738 145.444 577.72 142.323 577.818 137.932C577.916 133.989 580.032 127.934 584.305 127.149C588.578 126.364 591.244 130.419 590.283 134.549Z" fill="#CE7A63"/>
<path d="M529.406 303.371C529.406 303.371 521.566 416.561 523.78 456.813C525.936 494.954 527.152 603.155 527.426 631.541C527.437 632.404 527.641 633.255 528.023 634.037C528.405 634.82 528.957 635.516 529.643 636.08C530.329 636.643 531.132 637.062 532 637.307C532.868 637.552 533.781 637.619 534.678 637.502L545.105 636.156C546.497 635.976 547.788 635.364 548.78 634.415C549.771 633.466 550.408 632.233 550.593 630.905C557.336 580.804 565.352 503.513 567.096 462.139C569.056 414.916 581.248 303.297 581.248 303.297L529.406 303.371Z" fill="#92E3A9"/>
<path opacity="0.2" d="M529.406 303.371C529.406 303.371 521.566 416.561 523.78 456.813C525.936 494.954 527.152 603.155 527.426 631.541C527.437 632.404 527.641 633.255 528.023 634.037C528.405 634.82 528.957 635.516 529.643 636.08C530.329 636.643 531.132 637.062 532 637.307C532.868 637.552 533.781 637.619 534.678 637.502L545.105 636.156C546.497 635.976 547.788 635.364 548.78 634.415C549.771 633.466 550.408 632.233 550.593 630.905C557.336 580.804 565.352 503.513 567.096 462.139C569.056 414.916 581.248 303.297 581.248 303.297L529.406 303.371Z" fill="white"/>
<path opacity="0.2" d="M565.979 343.848C561.922 359.34 563 423.718 567.194 460.009C568.194 438.761 571.016 406.002 573.878 375.916L565.979 343.848Z" fill="black"/>
<path d="M557.375 303.371C557.375 303.371 567.528 416.58 575.348 456.813C582.874 495.534 616.92 605.827 626.955 630.887C627.538 632.35 628.691 633.541 630.174 634.213C631.657 634.885 633.354 634.985 634.912 634.493L644.967 631.372C646.445 630.912 647.696 629.954 648.486 628.678C649.276 627.402 649.551 625.895 649.26 624.439C639.264 575.235 623.348 503.326 619.389 462.139C614.862 414.916 608.217 303.297 608.217 303.297L557.375 303.371Z" fill="#92E3A9"/>
<path opacity="0.2" d="M557.375 303.371C557.375 303.371 567.528 416.58 575.348 456.813C582.874 495.534 616.92 605.827 626.955 630.887C627.538 632.35 628.691 633.541 630.174 634.213C631.657 634.885 633.354 634.985 634.912 634.493L644.967 631.372C646.445 630.912 647.696 629.954 648.486 628.678C649.276 627.402 649.551 625.895 649.26 624.439C639.264 575.235 623.348 503.326 619.389 462.139C614.862 414.916 608.217 303.297 608.217 303.297L557.375 303.371Z" fill="white"/>
<path d="M561.373 130.681C561.491 131.821 560.962 132.793 560.178 132.867C559.394 132.942 558.688 132.083 558.57 130.999C558.453 129.915 558.982 128.906 559.766 128.831C560.55 128.756 561.256 129.56 561.373 130.681Z" fill="#263238"/>
<path d="M548.006 131.952C548.124 133.073 547.594 134.045 546.81 134.12C546.026 134.194 545.321 133.335 545.203 132.251C545.086 131.167 545.615 130.139 546.399 130.064C547.183 129.99 547.888 130.812 548.006 131.952Z" fill="#263238"/>
<path d="M552.318 132.101C551.262 135.685 549.692 139.112 547.653 142.286C548.52 142.759 549.485 143.046 550.48 143.127C551.476 143.207 552.477 143.08 553.416 142.753L552.318 132.101Z" fill="#BA4D3C"/>
<path d="M557.12 145.556C557.03 145.561 556.94 145.533 556.871 145.478C556.802 145.422 556.758 145.343 556.748 145.257C556.742 145.213 556.746 145.168 556.759 145.125C556.772 145.083 556.793 145.043 556.822 145.008C556.852 144.973 556.888 144.944 556.929 144.923C556.97 144.901 557.015 144.888 557.061 144.883C558.535 144.779 559.962 144.344 561.226 143.613C562.49 142.882 563.555 141.877 564.333 140.679C564.375 140.6 564.448 140.54 564.536 140.512C564.624 140.484 564.72 140.49 564.803 140.529C564.883 140.573 564.942 140.642 564.971 140.725C565 140.808 564.996 140.898 564.96 140.978C564.133 142.283 562.989 143.381 561.625 144.177C560.261 144.974 558.716 145.447 557.12 145.556V145.556Z" fill="#263238"/>
<path d="M564.96 126.196C564.852 126.205 564.744 126.191 564.642 126.155C564.541 126.12 564.448 126.063 564.372 125.99C563.804 125.346 563.082 124.84 562.267 124.515C561.452 124.19 560.568 124.055 559.688 124.122C559.506 124.149 559.32 124.108 559.17 124.006C559.02 123.905 558.917 123.752 558.884 123.58C558.867 123.494 558.869 123.405 558.888 123.32C558.908 123.234 558.945 123.154 558.998 123.082C559.051 123.011 559.119 122.95 559.197 122.904C559.275 122.858 559.362 122.827 559.452 122.814C560.544 122.704 561.648 122.846 562.671 123.226C563.694 123.606 564.606 124.215 565.332 125C565.401 125.061 565.455 125.135 565.492 125.217C565.529 125.299 565.548 125.387 565.548 125.477C565.548 125.566 565.529 125.654 565.492 125.736C565.455 125.818 565.401 125.892 565.332 125.953C565.236 126.067 565.106 126.152 564.96 126.196Z" fill="#263238"/>
<path d="M541.538 127.99C541.434 128.01 541.328 128.01 541.224 127.99C541.057 127.916 540.926 127.783 540.86 127.619C540.794 127.455 540.798 127.273 540.872 127.112C541.297 126.138 541.96 125.276 542.805 124.597C543.651 123.917 544.654 123.441 545.732 123.206C545.829 123.174 545.932 123.162 546.034 123.172C546.136 123.182 546.235 123.212 546.323 123.262C546.411 123.312 546.487 123.379 546.545 123.459C546.603 123.54 546.642 123.631 546.66 123.728C546.677 123.824 546.672 123.923 546.645 124.017C546.619 124.111 546.571 124.199 546.505 124.274C546.439 124.349 546.357 124.409 546.264 124.45C546.171 124.492 546.07 124.514 545.968 124.514V124.514C545.116 124.712 544.325 125.1 543.661 125.646C542.996 126.191 542.477 126.879 542.146 127.654C542.086 127.757 541.997 127.842 541.89 127.902C541.783 127.961 541.662 127.991 541.538 127.99V127.99Z" fill="#263238"/>
<path d="M588.48 175.661C596.163 175.661 614.685 176.054 616.488 182.595C618.292 189.135 616.312 199.731 613.862 205.954C617.468 215.447 616.312 229.463 612.882 233.835C616.645 244.412 614.195 252.205 611.902 255.943C613.705 260.147 615.332 272.145 612.568 278.05C614.842 286.459 617.449 300.475 613.372 303.296C607.825 307.034 593.066 308.903 582.639 306.548C572.212 304.193 576.308 284.123 577.112 279.451C572.545 273.696 577.445 256.41 577.445 256.41C575.152 251.588 578.582 233.518 578.582 233.518C575.818 229.164 579.405 205.487 579.405 205.487C576.426 200.74 575.132 175.661 588.48 175.661Z" fill="#263238"/>
<path d="M532.052 180.016C538.088 177.474 558.316 172.858 554.396 177.941C548.712 185.323 552.2 193.097 548.829 202.235C551.808 210.962 550.789 225.22 548.026 230.266C550.48 237.586 550.231 245.487 547.32 252.653C548.79 256.391 550.142 268.108 547.849 274.611C549.809 282.535 551.299 298.512 547.849 302.119C545.366 304.727 542.075 306.511 538.455 307.214C534.835 307.916 531.075 307.5 527.72 306.025C522.918 304.156 520.782 288.87 523.153 283.6C518.488 273.901 522.291 259.53 522.291 259.53C517.783 252.055 521.272 236.377 521.272 236.377C516.803 222.473 522.291 207.094 522.291 207.094C519.88 202.926 522.428 184.071 532.052 180.016Z" fill="#263238"/>
<path d="M545.36 181.735C544.557 181.167 543.904 180.43 543.452 179.58C542.999 178.73 542.76 177.792 542.753 176.839C542.738 176.2 542.855 175.565 543.098 174.969C543.341 174.374 543.706 173.831 544.17 173.37C544.635 172.91 545.191 172.542 545.805 172.287C546.42 172.033 547.081 171.896 547.751 171.887C550.046 172.068 552.276 172.705 554.298 173.755C557.375 175.194 558.512 176.521 558.649 178.689C558.786 180.857 553.18 188.481 550.103 186.668C547.026 184.856 547.085 183.604 545.36 181.735Z" fill="#263238"/>
<path opacity="0.2" d="M604.826 208.458C606.355 202.16 610.236 202.721 614.097 205.3L613.823 206.028C617.429 215.522 616.273 229.537 612.843 233.91C613.058 234.508 613.254 235.106 613.431 235.779C608.629 231.294 601.965 220.343 604.826 208.458Z" fill="black"/>
<path d="M605.493 223.838L592.459 229.519L591.185 269.659L555.768 291.411L595.418 304.978L606.179 343.792L619.232 338.13L626.524 274.817L605.493 223.838Z" fill="#92E3A9"/>
<path opacity="0.3" d="M605.493 223.838L592.459 229.519L591.185 269.659L555.768 291.411L595.418 304.978L606.179 343.792L619.232 338.13L626.524 274.817L605.493 223.838Z" fill="black"/>
<path d="M687.068 308.604L674.014 314.285L631.953 312.042L649.554 300.718L687.068 308.604Z" fill="#92E3A9"/>
<path opacity="0.3" d="M687.068 308.604L674.014 314.285L631.953 312.042L649.554 300.718L687.068 308.604Z" fill="black"/>
<path d="M605.493 223.838L638.146 249.215L678.581 237.965L663.352 275.415L687.068 308.604L645.006 306.361L619.232 338.13L608.452 299.297L568.821 285.73L604.219 263.978L605.493 223.838Z" fill="#92E3A9"/>
<path d="M626.014 303.633L625.72 316.322L641.4 315.481C641.4 315.481 643.517 307.538 634.501 302.007L626.014 303.633Z" fill="#CE7A63"/>
<path d="M630.757 329.029L641.616 323.068L641.42 315.481L625.72 316.322L630.757 329.029Z" fill="#CE7A63"/>
<path d="M617.018 182.221C618.292 183.342 619.252 184.202 620.31 185.192C621.369 186.183 622.27 187.061 623.368 188.107C625.328 190.07 627.288 192.088 629.248 194.125C633.081 198.306 636.686 202.672 640.048 207.206C643.6 211.943 646.753 216.942 649.475 222.156C652.752 228.192 654.851 234.746 655.669 241.497C655.79 242.496 655.848 243.501 655.845 244.506V246.076V247.16L655.512 251.402C655.159 254.186 654.806 257.008 654.316 259.643C653.409 264.973 652.219 270.256 650.749 275.471C647.93 285.724 644.192 295.728 639.577 305.371C638.824 306.995 637.489 308.31 635.811 309.081C634.134 309.852 632.223 310.029 630.421 309.579C628.62 309.13 627.045 308.083 625.979 306.627C624.912 305.171 624.425 303.401 624.603 301.633V301.334C625.446 291.467 626.563 281.414 627.131 271.659C627.523 266.763 627.68 261.923 627.798 257.195C627.798 254.821 627.798 252.504 627.798 250.187L627.641 246.823V246.001V245.646C627.6 245.381 627.541 245.119 627.464 244.861C626.446 241.573 624.969 238.431 623.074 235.517C620.686 231.791 618.068 228.203 615.234 224.772C612.274 221.184 609.099 217.615 605.806 214.102C604.16 212.345 602.455 210.626 600.769 208.888L598.221 206.328L595.81 203.954L595.418 203.562C592.623 200.758 591.077 197.03 591.105 193.162C591.132 189.294 592.731 185.587 595.565 182.819C598.4 180.051 602.249 178.439 606.304 178.32C610.359 178.202 614.305 179.586 617.312 182.184L617.018 182.221Z" fill="#263238"/>
<path d="M594.36 180.09C596.32 179.829 596.83 175.456 595.262 172.616C593.988 170.28 589.382 170.597 585.266 171.606C581.953 172.31 578.782 173.522 575.877 175.194C571.722 177.381 573.231 180.016 574.192 182.09C575.152 184.164 576.975 188.93 580.895 186.407C584.815 183.884 591.616 180.483 594.36 180.09Z" fill="#263238"/>
<path d="M451.084 185.005H472.134C472.719 185.026 473.284 185.215 473.753 185.549C474.223 185.883 474.574 186.345 474.761 186.874L485.776 224.249C485.848 224.467 485.864 224.698 485.823 224.922C485.783 225.147 485.687 225.36 485.543 225.542C485.4 225.725 485.212 225.872 484.997 225.972C484.782 226.072 484.545 226.122 484.306 226.118H463.236C462.656 226.089 462.098 225.895 461.634 225.563C461.169 225.23 460.819 224.772 460.629 224.249L449.614 186.874C449.538 186.656 449.518 186.424 449.557 186.197C449.595 185.971 449.691 185.756 449.835 185.572C449.98 185.389 450.169 185.241 450.386 185.142C450.604 185.044 450.843 184.997 451.084 185.005V185.005Z" fill="#92E3A9"/>
<path d="M462.55 210.196L458.14 195.563L450.457 198.479L453.24 215.783L462.55 210.196Z" fill="#CE7A63"/>
<path opacity="0.3" d="M473.82 186.351C474.027 186.363 474.225 186.436 474.386 186.56C474.548 186.683 474.665 186.852 474.722 187.042L485.756 224.249C485.79 224.326 485.803 224.41 485.793 224.492C485.783 224.575 485.751 224.654 485.7 224.722C485.649 224.789 485.58 224.843 485.501 224.878C485.421 224.913 485.334 224.928 485.247 224.922V224.922C485.041 224.914 484.844 224.845 484.682 224.724C484.52 224.603 484.403 224.437 484.345 224.249L473.35 186.986C473.329 186.914 473.326 186.839 473.339 186.766C473.353 186.693 473.383 186.624 473.428 186.563C473.473 186.502 473.531 186.452 473.599 186.415C473.667 186.378 473.742 186.356 473.82 186.351V186.351Z" fill="black"/>
<path d="M215.237 39.8041H200.4V41.6729H215.237V39.8041Z" fill="#92E3A9"/>
<path d="M145.52 60.9957H143.56C143.565 55.393 145.895 50.0198 150.041 46.0494C154.187 42.0789 159.812 39.8338 165.688 39.8042H192.344V41.6729H165.688C160.332 41.7025 155.205 43.7508 151.427 47.3708C147.648 50.9908 145.525 55.8886 145.52 60.9957V60.9957Z" fill="#92E3A9"/>
<path d="M397.106 46.3446H165.688C157.213 46.3446 150.342 52.8957 150.342 60.9768V97.3051C150.342 105.386 157.213 111.937 165.688 111.937H397.106C405.581 111.937 412.452 105.386 412.452 97.3051V60.9768C412.452 52.8957 405.581 46.3446 397.106 46.3446Z" fill="#92E3A9"/>
<path d="M250.086 69.2556L253.457 75.7588L261.003 76.8053L255.535 81.8695L256.828 89.0455L250.086 85.6631L243.344 89.0455L244.637 81.8695L239.169 76.8053L246.715 75.7588L250.086 69.2556Z" fill="white"/>
<path d="M280.701 69.2556L284.072 75.7588L291.618 76.8053L286.15 81.8695L287.444 89.0455L280.701 85.6631L273.959 89.0455L275.252 81.8695L269.784 76.8053L277.33 75.7588L280.701 69.2556Z" fill="white"/>
<path d="M311.316 69.2556L314.688 75.7588L322.234 76.8053L316.785 81.8695L318.059 89.0455L311.316 85.6631L304.574 89.0455L305.868 81.8695L300.399 76.8053L307.945 75.7588L311.316 69.2556Z" fill="white"/>
<path d="M341.932 69.2556L345.303 75.7588L352.849 76.8053L347.4 81.8695L348.674 89.0455L341.932 85.6631L335.189 89.0455L336.483 81.8695L331.014 76.8053L338.56 75.7588L341.932 69.2556Z" fill="white"/>
<path opacity="0.3" d="M372.547 73.4788L374.154 76.5996C374.298 76.8705 374.508 77.104 374.768 77.2798C375.027 77.4557 375.328 77.5685 375.644 77.6087L379.25 78.1133L376.643 80.5427C376.416 80.7527 376.246 81.012 376.147 81.2984C376.048 81.5847 376.023 81.8897 376.075 82.1872L376.682 85.6256L373.468 84.0933C373.18 83.9617 372.866 83.8916 372.547 83.8877C372.233 83.8865 371.924 83.957 371.645 84.0933L368.411 85.7191L368.96 82.2245C369.011 81.927 368.987 81.6221 368.888 81.3357C368.789 81.0494 368.618 80.7901 368.392 80.58L365.785 78.1507L369.391 77.6461C369.716 77.6099 370.026 77.4968 370.293 77.3173C370.56 77.1378 370.775 76.8975 370.92 76.6183L372.527 73.4975L372.547 73.4788ZM372.527 69.2742L369.156 75.7774L361.61 76.8239L367.078 81.9069L365.785 89.0641L372.527 85.6817L379.27 89.0641L377.976 81.9069L383.444 76.8239L375.898 75.7774L372.527 69.2742Z" fill="white"/>
<path opacity="0.2" d="M198.146 101.585C211.147 101.585 221.686 91.5363 221.686 79.1411C221.686 66.7458 211.147 56.6975 198.146 56.6975C185.145 56.6975 174.606 66.7458 174.606 79.1411C174.606 91.5363 185.145 101.585 198.146 101.585Z" fill="white"/>
<path d="M217.589 79.1412C217.594 83.2649 216.156 87.2723 213.501 90.5281C210.847 93.784 207.129 96.102 202.936 97.1148C198.743 98.1275 194.316 97.7771 190.356 96.1191C186.396 94.461 183.129 91.5902 181.074 87.9616C179.521 85.2582 178.712 82.2236 178.722 79.1412C178.883 74.3289 181 69.765 184.627 66.415C188.254 63.065 193.106 61.1918 198.156 61.1918C203.206 61.1918 208.057 63.065 211.684 66.415C215.311 69.765 217.429 74.3289 217.589 79.1412V79.1412Z" fill="white"/>
<path d="M215.237 87.9615C213.576 90.9013 211.11 93.3574 208.103 95.0693C205.096 96.7812 201.658 97.6852 198.156 97.6852C194.653 97.6852 191.216 96.7812 188.209 95.0693C185.201 93.3574 182.736 90.9013 181.074 87.9615C186.132 84.7436 192.076 83.0262 198.156 83.0262C204.236 83.0262 210.18 84.7436 215.237 87.9615V87.9615Z" fill="#263238"/>
<path d="M206.809 72.8809C206.809 74.5145 206.301 76.1114 205.349 77.4698C204.397 78.8281 203.044 79.8868 201.461 80.5119C199.878 81.1371 198.136 81.3007 196.456 80.982C194.775 80.6633 193.232 79.8766 192.02 78.7214C190.809 77.5663 189.984 76.0945 189.649 74.4923C189.315 72.89 189.487 71.2292 190.142 69.72C190.798 68.2107 191.908 66.9207 193.333 66.0131C194.758 65.1055 196.433 64.621 198.146 64.621C200.444 64.621 202.647 65.4913 204.272 67.0403C205.896 68.5893 206.809 70.6902 206.809 72.8809Z" fill="#FFC3BD"/>
<path d="M381.151 274.293H341.932V276.162H381.151V274.293Z" fill="#92E3A9"/>
<path d="M397.106 204.029H165.688C157.213 204.029 150.342 210.58 150.342 218.661V254.989C150.342 263.071 157.213 269.622 165.688 269.622H397.106C405.581 269.622 412.452 263.071 412.452 254.989V218.661C412.452 210.58 405.581 204.029 397.106 204.029Z" fill="#92E3A9"/>
<path d="M250.086 226.921L253.457 233.443L261.003 234.471L255.535 239.554L256.828 246.711L250.086 243.329L243.344 246.711L244.637 239.554L239.169 234.471L246.715 233.443L250.086 226.921Z" fill="white"/>
<path d="M280.701 226.921L284.072 233.443L291.618 234.471L286.15 239.554L287.444 246.711L280.701 243.329L273.959 246.711L275.252 239.554L269.784 234.471L277.33 233.443L280.701 226.921Z" fill="white"/>
<path d="M311.316 226.921L314.688 233.443L322.234 234.471L316.785 239.554L318.059 246.711L311.316 243.329L304.574 246.711L305.868 239.554L300.399 234.471L307.945 233.443L311.316 226.921Z" fill="white"/>
<path d="M341.932 226.921L345.303 233.443L352.849 234.471L347.4 239.554L348.674 246.711L341.932 243.329L335.189 246.711L336.483 239.554L331.014 234.471L338.56 233.443L341.932 226.921Z" fill="white"/>
<path d="M372.547 226.921L375.918 233.443L383.464 234.471L378.015 239.554L379.289 246.711L372.547 243.329L365.804 246.711L367.098 239.554L361.63 234.471L369.176 233.443L372.547 226.921Z" fill="white"/>
<path opacity="0.2" d="M214.804 252.693C223.997 243.928 223.997 229.717 214.804 220.953C205.611 212.188 190.707 212.188 181.514 220.953C172.321 229.717 172.321 243.928 181.514 252.692C190.707 261.457 205.611 261.457 214.804 252.693Z" fill="white"/>
<path d="M217.589 236.807C217.599 240.932 216.163 244.942 213.51 248.201C210.857 251.46 207.139 253.782 202.945 254.797C198.752 255.812 194.322 255.463 190.36 253.805C186.398 252.147 183.13 249.276 181.074 245.646C179.521 242.936 178.712 239.895 178.722 236.807C178.883 231.994 181 227.43 184.627 224.08C188.254 220.73 193.106 218.857 198.156 218.857C203.206 218.857 208.057 220.73 211.684 224.08C215.311 227.43 217.429 231.994 217.589 236.807V236.807Z" fill="white"/>
<path opacity="0.5" d="M215.237 245.646C213.571 248.58 211.104 251.031 208.097 252.739C205.091 254.447 201.656 255.349 198.156 255.349C194.656 255.349 191.221 254.447 188.214 252.739C185.207 251.031 182.741 248.58 181.074 245.646C186.132 242.428 192.076 240.711 198.156 240.711C204.236 240.711 210.18 242.428 215.237 245.646V245.646Z" fill="#92E3A9"/>
<path d="M206.809 230.472C206.813 232.106 206.308 233.705 205.359 235.066C204.409 236.426 203.057 237.488 201.475 238.116C199.892 238.744 198.15 238.91 196.468 238.594C194.786 238.277 193.241 237.492 192.027 236.337C190.814 235.183 189.987 233.711 189.651 232.109C189.315 230.506 189.485 228.844 190.14 227.334C190.795 225.823 191.906 224.532 193.331 223.624C194.756 222.715 196.432 222.23 198.146 222.23C200.44 222.23 202.641 223.098 204.265 224.643C205.889 226.188 206.804 228.284 206.809 230.472V230.472Z" fill="#FFB573"/>
<path d="M397.106 125.187H165.688C157.213 125.187 150.342 131.738 150.342 139.819V176.147C150.342 184.229 157.213 190.78 165.688 190.78H397.106C405.581 190.78 412.452 184.229 412.452 176.147V139.819C412.452 131.738 405.581 125.187 397.106 125.187Z" fill="#92E3A9"/>
<path d="M405.338 163.589L388.874 190.78H430.034L405.338 163.589Z" fill="#92E3A9"/>
<path d="M250.086 148.079L253.457 154.601L261.003 155.647L255.535 160.712L256.828 167.869L250.086 164.486L243.344 167.869L244.637 160.712L239.169 155.647L246.715 154.601L250.086 148.079Z" fill="white"/>
<path d="M280.701 148.079L284.072 154.601L291.618 155.647L286.15 160.712L287.444 167.869L280.701 164.486L273.959 167.869L275.252 160.712L269.784 155.647L277.33 154.601L280.701 148.079Z" fill="white"/>
<path opacity="0.3" d="M311.316 152.302L312.924 155.423C313.065 155.698 313.274 155.935 313.534 156.114C313.794 156.293 314.096 156.409 314.413 156.451L318 156.974L315.393 159.404C315.166 159.614 314.996 159.873 314.897 160.159C314.798 160.446 314.773 160.751 314.825 161.048L315.432 164.487L312.218 162.861C311.935 162.715 311.619 162.638 311.297 162.637C310.981 162.636 310.67 162.713 310.395 162.861L307.161 164.487L307.769 161.048C307.82 160.751 307.795 160.446 307.696 160.159C307.597 159.873 307.427 159.614 307.2 159.404L304.594 156.974L308.2 156.47C308.518 156.428 308.819 156.312 309.079 156.133C309.339 155.954 309.548 155.716 309.69 155.442L311.297 152.321L311.316 152.302ZM311.297 148.098L307.926 154.62L300.38 155.666L305.848 160.73L304.554 167.888L311.297 164.505L318.039 167.888L316.746 160.73L322.214 155.666L314.668 154.62L311.297 148.098Z" fill="white"/>
<path opacity="0.3" d="M341.932 152.302L343.539 155.423C343.68 155.697 343.89 155.935 344.149 156.114C344.409 156.293 344.711 156.409 345.028 156.451L348.635 156.955L346.028 159.385C345.801 159.595 345.631 159.854 345.532 160.14C345.433 160.427 345.408 160.732 345.46 161.029L346.067 164.468L342.853 162.842C342.57 162.696 342.253 162.619 341.932 162.618C341.616 162.617 341.305 162.694 341.03 162.842L337.796 164.468L338.404 161.029C338.455 160.732 338.43 160.427 338.331 160.14C338.232 159.854 338.062 159.595 337.835 159.385L335.228 156.955L338.835 156.451C339.152 156.409 339.454 156.293 339.714 156.114C339.974 155.935 340.183 155.697 340.324 155.423L341.932 152.302V152.302ZM341.932 148.079L338.56 154.601L331.014 155.647L336.483 160.712L335.189 167.869L341.932 164.486L348.674 167.869L347.4 160.712L352.868 155.647L345.322 154.601L341.951 148.079H341.932Z" fill="white"/>
<path opacity="0.3" d="M372.547 152.302L374.154 155.423C374.295 155.697 374.505 155.935 374.765 156.114C375.024 156.293 375.326 156.409 375.644 156.451L379.25 156.955L376.643 159.385C376.416 159.595 376.246 159.854 376.147 160.14C376.048 160.427 376.023 160.732 376.075 161.029L376.682 164.468L373.468 162.842C373.185 162.696 372.869 162.619 372.547 162.618C372.231 162.617 371.92 162.694 371.645 162.842L368.411 164.468L369.019 161.029C369.07 160.732 369.045 160.427 368.946 160.14C368.847 159.854 368.677 159.595 368.45 159.385L365.844 156.955L369.45 156.451C369.768 156.409 370.069 156.293 370.329 156.114C370.589 155.935 370.798 155.697 370.94 155.423L372.547 152.302V152.302ZM372.547 148.079L369.176 154.601L361.63 155.647L367.098 160.712L365.804 167.869L372.547 164.486L379.289 167.869L377.996 160.712L383.464 155.647L375.918 154.601L372.547 148.079Z" fill="white"/>
<path opacity="0.2" d="M198.146 180.427C211.147 180.427 221.686 170.378 221.686 157.983C221.686 145.588 211.147 135.54 198.146 135.54C185.145 135.54 174.606 145.588 174.606 157.983C174.606 170.378 185.145 180.427 198.146 180.427Z" fill="white"/>
<path d="M217.589 157.983C217.594 162.107 216.156 166.114 213.501 169.37C210.847 172.626 207.129 174.944 202.936 175.957C198.743 176.97 194.316 176.619 190.356 174.961C186.396 173.303 183.129 170.432 181.074 166.804C179.521 164.1 178.712 161.066 178.722 157.983C178.64 155.501 179.081 153.027 180.021 150.71C180.96 148.394 182.378 146.28 184.191 144.496C186.004 142.712 188.174 141.294 190.573 140.325C192.972 139.356 195.551 138.857 198.156 138.857C200.761 138.857 203.34 139.356 205.739 140.325C208.138 141.294 210.308 142.712 212.121 144.496C213.933 146.28 215.352 148.394 216.291 150.71C217.23 153.027 217.672 155.501 217.589 157.983V157.983Z" fill="white"/>
<path d="M215.237 166.804C213.571 169.738 211.104 172.189 208.097 173.897C205.091 175.605 201.656 176.507 198.156 176.507C194.656 176.507 191.221 175.605 188.214 173.897C185.207 172.189 182.741 169.738 181.074 166.804C186.132 163.586 192.076 161.868 198.156 161.868C204.236 161.868 210.18 163.586 215.237 166.804V166.804Z" fill="#92E3A9"/>
<path d="M206.809 151.648C206.809 153.282 206.301 154.879 205.349 156.237C204.397 157.596 203.044 158.654 201.461 159.279C199.878 159.905 198.136 160.068 196.456 159.749C194.775 159.431 193.232 158.644 192.02 157.489C190.809 156.334 189.984 154.862 189.649 153.26C189.315 151.657 189.487 149.997 190.142 148.487C190.798 146.978 191.908 145.688 193.333 144.78C194.758 143.873 196.433 143.388 198.146 143.388C199.284 143.386 200.412 143.598 201.464 144.012C202.517 144.426 203.473 145.035 204.278 145.802C205.083 146.57 205.721 147.481 206.155 148.484C206.589 149.488 206.812 150.563 206.809 151.648V151.648Z" fill="#B55B52"/>
</svg>
