<svg width="980" height="697" viewBox="0 0 980 697" fill="none" xmlns="http://www.w3.org/2000/svg">
<path d="M980 611.825H0V612.293H980V611.825Z" fill="#EBEBEB"/>
<path d="M761.362 625.859H696.447V626.327H761.362V625.859Z" fill="#EBEBEB"/>
<path d="M591.92 641.669H505.621V642.136H591.92V641.669Z" fill="#EBEBEB"/>
<path d="M851.11 643.201H763.342V643.669H851.11V643.201Z" fill="#EBEBEB"/>
<path d="M189.885 625.392H105.232V625.86H189.885V625.392Z" fill="#EBEBEB"/>
<path d="M219.755 625.392H207.348V625.86H219.755V625.392Z" fill="#EBEBEB"/>
<path d="M443.705 633.278H260.092V633.746H443.705V633.278Z" fill="#EBEBEB"/>
<path d="M464.52 528.479H86.0636C83.0988 528.475 80.2572 527.348 78.1626 525.348C76.068 523.347 74.8916 520.636 74.8916 517.809V10.5771C74.9174 7.76653 76.1052 5.07919 78.197 3.09878C80.2888 1.11836 83.1157 0.0048146 86.0636 0H464.52C467.488 0 470.335 1.12421 472.434 3.12532C474.533 5.12643 475.712 7.84051 475.712 10.6705V517.809C475.712 520.639 474.533 523.353 472.434 525.354C470.335 527.355 467.488 528.479 464.52 528.479ZM86.0636 0.373749C83.2288 0.3787 80.5118 1.45587 78.5091 3.36883C76.5064 5.28178 75.3816 7.87421 75.3816 10.5771V517.809C75.3816 520.512 76.5064 523.104 78.5091 525.017C80.5118 526.93 83.2288 528.007 86.0636 528.012H464.52C467.357 528.007 470.076 526.931 472.081 525.018C474.087 523.106 475.216 520.514 475.222 517.809V10.5771C475.216 7.87249 474.087 5.28011 472.081 3.36769C470.076 1.45526 467.357 0.378689 464.52 0.373749H86.0636Z" fill="#EBEBEB"/>
<path d="M888.488 528.479H510.012C507.045 528.475 504.201 527.349 502.104 525.349C500.006 523.349 498.825 520.638 498.82 517.809V10.5771C498.851 7.76482 500.043 5.07751 502.138 3.09761C504.233 1.11771 507.062 0.00476209 510.012 0H888.488C891.432 0.00972585 894.254 1.12545 896.342 3.10534C898.429 5.08523 899.614 7.76976 899.64 10.5771V517.809C899.64 520.633 898.466 523.341 896.376 525.341C894.286 527.341 891.449 528.47 888.488 528.479ZM510.012 0.373749C507.175 0.378689 504.456 1.45526 502.45 3.36769C500.444 5.28011 499.315 7.87249 499.31 10.5771V517.809C499.315 520.514 500.444 523.106 502.45 525.018C504.456 526.931 507.175 528.007 510.012 528.012H888.488C891.324 528.007 894.043 526.931 896.049 525.018C898.055 523.106 899.184 520.514 899.189 517.809V10.5771C899.184 7.87249 898.055 5.28011 896.049 3.36769C894.043 1.45526 891.324 0.378689 888.488 0.373749H510.012Z" fill="#EBEBEB"/>
<path d="M669.771 366.236H852.953V45.1302H669.771V366.236Z" fill="#E6E6E6"/>
<path d="M648.878 366.236H847.955V45.1302H648.878V366.236Z" fill="#F0F0F0"/>
<path d="M831.295 350.314V61.0144L665.577 61.0144V350.314H831.295Z" fill="white"/>
<path d="M249.488 58.1178H105.232V217.97H249.488V58.1178Z" fill="#E0E0E0"/>
<path d="M258.112 58.1178H110.113V217.97H258.112V58.1178Z" fill="#F5F5F5"/>
<path d="M245.706 205.375V70.7131L122.5 70.7131L122.5 205.375H245.706Z" fill="white"/>
<path d="M451.839 151.424H307.583V311.276H451.839V151.424Z" fill="#E0E0E0"/>
<path d="M460.463 151.424H312.463V311.276H460.463V151.424Z" fill="#F5F5F5"/>
<path d="M448.056 298.699V164.038H324.85V298.699H448.056Z" fill="white"/>
<path d="M369.362 444.405C368.382 444.405 367.402 444.405 366.383 444.498C360.129 444.926 354.052 446.665 348.586 449.592C343.12 452.519 338.399 456.562 334.762 461.431C331.126 466.3 328.662 471.875 327.548 477.758C326.435 483.64 326.698 489.685 328.32 495.459C332.964 512.694 335.205 530.438 334.984 548.232V600.071C334.984 600.966 335.169 601.852 335.529 602.678C335.888 603.505 336.416 604.256 337.08 604.888C337.745 605.519 338.534 606.02 339.401 606.361C340.269 606.702 341.199 606.876 342.138 606.873H514.618V444.405H369.362Z" fill="#F0F0F0"/>
<path d="M557.169 484.938C556.923 474.584 552.528 464.714 544.886 457.354C537.245 449.994 526.937 445.704 516.081 445.364C505.225 445.024 494.645 448.661 486.514 455.528C478.382 462.394 473.318 471.968 472.36 482.284C472.066 486.724 472.529 491.18 473.732 495.478C478.367 512.715 480.608 530.457 480.396 548.251V600.09C480.396 601.894 481.148 603.624 482.486 604.9C483.824 606.175 485.638 606.892 487.53 606.892H542.018C543.911 606.892 545.725 606.175 547.063 604.9C548.401 603.624 549.153 601.894 549.153 600.09V545.223C548.992 528.527 551.208 511.887 555.738 495.758C556.724 492.229 557.206 488.59 557.169 484.938Z" fill="#F5F5F5"/>
<path d="M456.112 508.241H301.232V606.892H456.112V508.241Z" fill="#F0F0F0"/>
<path d="M320.852 368.515H177.89C160.112 368.515 148.039 382.251 150.92 399.181L173.225 530.535H380.534L358.229 399.181C355.348 382.251 338.61 368.515 320.852 368.515Z" fill="#EBEBEB"/>
<path d="M362.894 368.515H216.835C199.92 368.515 188.434 381.597 191.178 397.705L213.738 530.535H421.028L398.468 397.705C395.724 381.597 379.809 368.515 362.894 368.515Z" fill="#F5F5F5"/>
<path d="M311.366 499.234H454.132C456.606 499.234 458.979 500.171 460.729 501.839C462.479 503.507 463.462 505.77 463.462 508.129V530.554C463.462 532.913 462.479 535.176 460.729 536.844C458.979 538.512 456.606 539.449 454.132 539.449H311.366C310.627 539.449 309.92 539.17 309.398 538.672C308.876 538.174 308.582 537.499 308.582 536.796V501.888C308.582 501.184 308.876 500.509 309.398 500.011C309.92 499.513 310.627 499.234 311.366 499.234Z" fill="#EBEBEB"/>
<path d="M157.956 444.405C156.976 444.405 155.996 444.405 154.977 444.498C144.751 445.235 135.146 449.461 127.921 456.4C120.697 463.34 116.337 472.529 115.64 482.284C115.346 486.724 115.809 491.18 117.012 495.478C121.657 512.713 123.897 530.457 123.676 548.251V600.09C123.676 601.894 124.428 603.624 125.766 604.9C127.104 606.175 128.918 606.892 130.81 606.892H303.29V444.405H157.956Z" fill="#F0F0F0"/>
<path d="M345.764 484.938C345.757 479.172 344.46 473.475 341.958 468.226C339.457 462.976 335.81 458.297 331.26 454.499C326.71 450.701 321.362 447.873 315.574 446.204C309.786 444.535 303.691 444.063 297.696 444.819C291.702 445.575 285.945 447.543 280.812 450.59C275.678 453.637 271.286 457.694 267.929 462.49C264.572 467.285 262.326 472.708 261.343 478.397C260.36 484.086 260.662 489.909 262.228 495.478C266.863 512.715 269.104 530.457 268.892 548.251V600.09C268.892 601.894 269.644 603.624 270.982 604.9C272.32 606.175 274.135 606.892 276.027 606.892H330.515C332.407 606.892 334.222 606.175 335.56 604.9C336.898 603.624 337.649 601.894 337.649 600.09V545.224C337.492 528.528 339.701 511.889 344.215 495.758C345.25 492.236 345.771 488.595 345.764 484.938Z" fill="#F5F5F5"/>
<path d="M511.56 611.825H160.994C159.622 611.825 158.306 611.306 157.335 610.38C156.365 609.455 155.82 608.2 155.82 606.892H516.813C516.813 607.546 516.676 608.194 516.411 608.797C516.147 609.401 515.758 609.948 515.27 610.407C514.781 610.866 514.201 611.228 513.564 611.471C512.927 611.715 512.246 611.835 511.56 611.825Z" fill="#E0E0E0"/>
<path d="M889.33 535.786H804.972V542.383H889.33V535.786Z" fill="#E6E6E6"/>
<path d="M645.859 611.825H661.441V459.953H645.859V611.825Z" fill="#E6E6E6"/>
<path d="M591.92 542.401H804.972V535.805H591.92V542.401Z" fill="#F5F5F5"/>
<path d="M889.33 571.909H804.972V578.506H889.33V571.909Z" fill="#E6E6E6"/>
<path d="M591.92 578.506H804.972V571.909H591.92V578.506Z" fill="#F5F5F5"/>
<path d="M889.33 463.56H804.972V470.156H889.33V463.56Z" fill="#E6E6E6"/>
<path d="M591.92 470.175H804.972V463.578H591.92V470.175Z" fill="#F5F5F5"/>
<path d="M889.33 499.682H804.972V506.279H889.33V499.682Z" fill="#E6E6E6"/>
<path d="M591.92 506.279H804.972V499.682H591.92V506.279Z" fill="#F5F5F5"/>
<path d="M858.911 611.825H874.493V459.953H858.911V611.825Z" fill="#E6E6E6"/>
<path d="M789.39 611.825H804.972V459.953H789.39V611.825Z" fill="#F5F5F5"/>
<path d="M591.92 611.825H607.502V459.953H591.92V611.825Z" fill="#F5F5F5"/>
<path d="M745.153 458.177H753.483V369.618H745.153V458.177Z" fill="#E6E6E6"/>
<path d="M746.231 458.103H748.583V369.543H746.231V458.103Z" fill="#F0F0F0"/>
<path d="M718.458 463.56H780.08C780.08 461.577 779.254 459.676 777.784 458.274C776.313 456.872 774.319 456.085 772.24 456.085H726.239C724.16 456.085 722.165 456.872 720.695 458.274C719.225 459.676 718.399 461.577 718.399 463.56H718.458Z" fill="#F0F0F0"/>
<path d="M735.412 461.373H738.528C738.994 461.373 739.371 461.013 739.371 460.57V454.384C739.371 453.94 738.994 453.58 738.528 453.58H735.412C734.946 453.58 734.569 453.94 734.569 454.384V460.57C734.569 461.013 734.946 461.373 735.412 461.373Z" fill="#F0F0F0"/>
<path d="M712.009 390.567H786.626L779.492 333.832C779.094 330.627 777.478 327.673 774.95 325.527C772.422 323.382 769.157 322.195 765.772 322.189H732.903C729.521 322.203 726.26 323.393 723.734 325.537C721.207 327.681 719.589 330.63 719.183 333.832L712.009 390.567Z" fill="#F5F5F5"/>
<path d="M490 696.218C699.882 696.218 870.024 686.747 870.024 675.064C870.024 663.38 699.882 653.909 490 653.909C280.118 653.909 109.976 663.38 109.976 675.064C109.976 686.747 280.118 696.218 490 696.218Z" fill="#F5F5F5"/>
<path d="M579.592 200.647L578.905 202.852L578.278 204.72C577.847 205.973 577.377 207.131 576.906 208.327C575.966 210.663 574.946 212.943 573.829 215.204C571.655 219.7 569.2 224.068 566.479 228.285C565.127 230.397 563.696 232.434 562.245 234.471C560.795 236.508 559.247 238.47 557.62 240.395C554.43 244.286 551.008 247.998 547.369 251.514L546.605 252.261C545.55 253.293 544.3 254.123 542.92 254.709C538.836 256.413 534.397 257.199 529.945 257.008C526.068 256.808 522.259 255.954 518.694 254.485C515.707 253.282 512.884 251.738 510.286 249.888C507.954 248.264 505.747 246.485 503.681 244.562C499.926 240.979 496.539 237.062 493.567 232.864C492.117 230.845 490.784 228.771 489.51 226.678C488.236 224.585 487.138 222.492 485.943 220.082C485.163 218.511 484.981 216.73 485.43 215.045C485.878 213.361 486.928 211.878 488.399 210.851C489.87 209.825 491.67 209.319 493.489 209.421C495.309 209.523 497.035 210.227 498.369 211.411L498.879 211.859L503.661 216.045C505.288 217.465 506.954 218.829 508.62 220.138C511.775 222.689 515.115 225.025 518.616 227.127C521.354 228.867 524.393 230.132 527.593 230.864C528.407 231.083 529.268 231.083 530.082 230.864C530.351 230.75 530.572 230.552 530.709 230.304L526.201 233.555C528.69 230.341 531.101 227.089 533.316 223.726C535.531 220.362 537.648 216.886 539.627 213.391C541.607 209.897 543.43 206.29 545.115 202.684C545.978 200.815 546.742 199.058 547.526 197.264L549.486 192.368L550.035 191.023C551.599 187.576 554.467 184.817 558.068 183.294C561.669 181.771 565.739 181.597 569.469 182.805C573.199 184.013 576.315 186.515 578.198 189.814C580.081 193.113 580.592 196.967 579.631 200.609L579.592 200.647Z" fill="#263238"/>
<path d="M491.49 220.175L478.24 215.784L475.457 198.479C475.457 198.479 497.664 204.085 497.566 214.289L491.49 220.175Z" fill="#CE7A63"/>
<path d="M569.537 130.027C560.893 127.13 548.957 117.263 553.641 104.5C557.208 94.8198 570.419 93.9602 575.613 96.8567C580.807 99.7533 581.022 93.8107 587.667 91.5308C594.311 89.251 598.996 94.988 602.367 97.9967C605.738 101.005 609.678 98.7255 614.676 98.931C619.674 99.1366 623.241 105.378 620.458 109.938C615.558 117.936 623.652 123.019 617.518 129.261C608.482 138.324 615.558 147.219 602.818 156.245C595.076 161.777 573.084 151.63 569.537 130.027Z" fill="#263238"/>
<path d="M569.38 138.474C569.058 138.657 568.695 138.765 568.322 138.791C567.672 138.843 567.028 138.648 566.529 138.249C566.029 137.85 565.716 137.279 565.656 136.661C565.224 132.952 565.733 129.199 567.138 125.716C568.543 122.234 570.804 119.124 573.731 116.647C573.984 116.454 574.276 116.312 574.587 116.229C574.899 116.145 575.225 116.122 575.547 116.16C575.868 116.198 576.178 116.297 576.459 116.452C576.739 116.606 576.985 116.812 577.181 117.058C577.382 117.298 577.532 117.574 577.621 117.869C577.71 118.165 577.738 118.474 577.701 118.78C577.665 119.086 577.565 119.381 577.409 119.65C577.252 119.919 577.042 120.156 576.789 120.347C574.499 122.334 572.74 124.813 571.659 127.58C570.578 130.346 570.207 133.319 570.575 136.25C570.615 136.69 570.524 137.132 570.313 137.525C570.101 137.919 569.778 138.247 569.38 138.474Z" fill="#263238"/>
<path d="M555.288 181.959C555.288 181.959 537.902 224.38 554.406 303.427H633.217C633.766 291.897 626.161 235.629 637.823 181.286C629.11 179.689 620.298 178.628 611.442 178.11C600.286 177.492 589.101 177.492 577.945 178.11C570.299 178.825 562.723 180.112 555.288 181.959Z" fill="white"/>
<path d="M608.129 142.024C606.012 152.302 603.915 171.139 611.442 177.998C611.442 177.998 598.819 187.752 585.55 197.619C582.618 195.25 580.377 192.198 579.045 188.761C577.713 185.323 577.334 181.616 577.945 177.998C589.96 175.269 589.705 166.785 587.569 158.768L608.129 142.024Z" fill="#CE7A63"/>
<path opacity="0.2" d="M599.76 148.92L587.588 158.824C588.108 160.66 588.456 162.536 588.627 164.43C592.547 167.981 599.525 158.992 600.015 154.414C600.273 152.583 600.187 150.722 599.76 148.92Z" fill="black"/>
<path d="M607.992 124.738C608.541 138.679 609.599 146.808 603.014 154.638C593.076 166.374 574.496 161.721 569.596 148.21C565.186 136.063 565.029 115.32 578.69 108.48C581.687 106.957 585.042 106.189 588.438 106.25C591.834 106.31 595.157 107.197 598.092 108.826C601.027 110.454 603.477 112.771 605.21 115.556C606.943 118.341 607.9 121.502 607.992 124.738Z" fill="#CE7A63"/>
<path d="M607.6 137.633C603.582 145.108 598.956 121.468 600.132 117.525C585.922 121.262 564.127 120.029 565.813 110.573C567.773 99.9028 580.787 99.4917 595.213 100.8C619.027 102.986 611.951 129.522 607.6 137.633Z" fill="#263238"/>
<path d="M600.564 138.959C600.194 138.98 599.824 138.916 599.486 138.773C599.188 138.649 598.919 138.47 598.694 138.247C598.469 138.024 598.293 137.761 598.174 137.473C598.056 137.185 597.998 136.878 598.005 136.568C598.011 136.259 598.081 135.954 598.212 135.67C599.694 132.219 602.024 129.156 605.004 126.74C607.985 124.324 611.53 122.625 615.342 121.786C615.978 121.677 616.634 121.812 617.167 122.162C617.699 122.512 618.065 123.048 618.184 123.654C618.288 124.26 618.142 124.881 617.777 125.386C617.411 125.891 616.855 126.242 616.224 126.364C613.207 127.075 610.413 128.464 608.074 130.415C605.735 132.365 603.919 134.821 602.778 137.577C602.591 137.988 602.281 138.338 601.888 138.584C601.494 138.83 601.034 138.96 600.564 138.959Z" fill="#263238"/>
<path d="M615.283 134.549C614.51 137.907 612.474 140.878 609.56 142.903C605.738 145.444 602.72 142.323 602.818 137.932C602.916 133.989 605.032 127.934 609.305 127.149C613.578 126.364 616.244 130.419 615.283 134.549Z" fill="#CE7A63"/>
<path d="M546.409 656.619C544.586 657.049 542.763 657.217 541.979 656.619C541.779 656.442 541.641 656.211 541.585 655.956C541.528 655.702 541.557 655.437 541.666 655.199C541.732 654.984 541.845 654.785 541.997 654.615C542.149 654.444 542.336 654.306 542.548 654.208C544.762 653.031 550.388 654.563 550.642 654.638C550.715 654.655 550.779 654.695 550.825 654.751C550.87 654.806 550.895 654.875 550.895 654.946C550.895 655.017 550.87 655.086 550.825 655.142C550.779 655.198 550.715 655.238 550.642 655.255C549.275 655.825 547.859 656.281 546.409 656.619ZM543.508 654.507C543.29 654.556 543.079 654.631 542.881 654.731C542.752 654.79 542.636 654.874 542.542 654.977C542.448 655.08 542.376 655.199 542.332 655.329C542.175 655.797 542.332 655.965 542.43 656.058C543.312 656.787 546.918 655.965 549.486 654.974C547.543 654.453 545.514 654.295 543.508 654.507Z" fill="#263238"/>
<path d="M550.623 655.217H550.486C548.526 654.9 544.449 652.75 544.331 651.143C544.331 650.77 544.468 650.246 545.37 649.947C546.013 649.738 546.717 649.778 547.33 650.059C549.486 651.05 550.76 654.638 550.819 654.787C550.852 654.838 550.869 654.896 550.869 654.956C550.869 655.015 550.852 655.073 550.819 655.124C550.765 655.173 550.696 655.206 550.623 655.217ZM545.801 650.508H545.605C544.998 650.695 545.017 650.938 545.037 651.013C545.037 651.984 547.977 653.741 549.976 654.339C549.441 652.836 548.427 651.529 547.075 650.601C546.673 650.435 546.225 650.403 545.801 650.508Z" fill="#263238"/>
<path d="M572.046 659.665L557.287 661.739L557.757 629.485L572.516 627.429L572.046 659.665Z" fill="#CE7A63"/>
<path d="M555.072 653.405H574.417C574.702 653.398 574.979 653.491 575.196 653.667C575.413 653.843 575.555 654.089 575.593 654.358L577.553 666.785C577.592 667.097 577.561 667.413 577.463 667.712C577.364 668.011 577.2 668.288 576.982 668.522C576.763 668.757 576.495 668.945 576.195 669.074C575.895 669.203 575.57 669.27 575.24 669.27C569.458 669.177 561.148 668.859 553.876 668.859C545.39 668.859 537.765 669.289 527.808 669.289C521.791 669.289 520.674 663.851 523.163 662.973C534.296 658.992 540.254 658.32 551.524 654.489C552.636 653.943 553.835 653.576 555.072 653.405Z" fill="#263238"/>
<path opacity="0.2" d="M557.757 629.503L557.502 646.117L572.281 644.042L572.536 627.429L557.757 629.503Z" fill="black"/>
<path d="M564.48 654.395C564.382 648.434 566.342 638.847 550.76 644.715C541.47 648.191 554.072 658.413 554.072 658.413L564.48 654.395Z" fill="#263238"/>
<path d="M554.406 303.371C554.406 303.371 546.566 416.561 548.78 456.813C550.936 494.954 552.152 603.155 552.426 631.541C552.437 632.404 552.64 633.255 553.023 634.037C553.405 634.82 553.957 635.516 554.643 636.08C555.328 636.643 556.132 637.062 557 637.307C557.868 637.552 558.781 637.618 559.678 637.502L570.105 636.156C571.497 635.976 572.788 635.364 573.78 634.415C574.771 633.466 575.408 632.233 575.593 630.905C582.336 580.804 590.352 503.513 592.096 462.139C594.056 414.916 606.248 303.297 606.248 303.297L554.406 303.371Z" fill="#92E3A9"/>
<path opacity="0.2" d="M554.406 303.371C554.406 303.371 546.566 416.561 548.78 456.813C550.936 494.954 552.152 603.155 552.426 631.541C552.437 632.404 552.64 633.255 553.023 634.037C553.405 634.82 553.957 635.516 554.643 636.08C555.328 636.643 556.132 637.062 557 637.307C557.868 637.552 558.781 637.618 559.678 637.502L570.105 636.156C571.497 635.976 572.788 635.364 573.78 634.415C574.771 633.466 575.408 632.233 575.593 630.905C582.336 580.804 590.352 503.513 592.096 462.139C594.056 414.916 606.248 303.297 606.248 303.297L554.406 303.371Z" fill="white"/>
<path d="M652.798 654.769C651.092 655.498 649.328 655.984 648.427 655.479C648.197 655.344 648.018 655.143 647.915 654.904C647.813 654.666 647.793 654.402 647.858 654.152C647.88 653.926 647.952 653.707 648.07 653.511C648.189 653.314 648.35 653.144 648.544 653.012C650.504 651.48 656.384 652.041 656.58 652.059C656.652 652.064 656.721 652.09 656.777 652.134C656.833 652.177 656.874 652.236 656.894 652.302C656.909 652.368 656.903 652.436 656.879 652.499C656.855 652.561 656.812 652.616 656.757 652.657C655.506 653.472 654.181 654.179 652.798 654.769ZM649.544 653.181C649.342 653.273 649.152 653.386 648.976 653.517C648.855 653.595 648.754 653.698 648.68 653.817C648.605 653.937 648.559 654.07 648.544 654.208C648.544 654.675 648.662 654.844 648.78 654.9C649.779 655.479 653.17 654.04 655.522 652.657C653.513 652.463 651.483 652.641 649.544 653.181Z" fill="#263238"/>
<path d="M656.6 652.695C654.64 652.695 650.21 651.293 649.799 649.723C649.701 649.368 649.799 648.826 650.602 648.378C650.896 648.215 651.221 648.111 651.558 648.073C651.895 648.034 652.237 648.062 652.562 648.154C654.875 648.77 656.816 652.059 656.894 652.209C656.923 652.261 656.938 652.318 656.938 652.377C656.938 652.436 656.923 652.494 656.894 652.545C656.858 652.588 656.813 652.623 656.763 652.648C656.712 652.674 656.657 652.69 656.6 652.695ZM650.975 648.957H650.798C650.25 649.256 650.308 649.481 650.328 649.555C650.583 650.49 653.738 651.742 655.816 652.003C655.014 650.606 653.773 649.482 652.268 648.789C651.864 648.686 651.435 648.719 651.053 648.883L650.975 648.957Z" fill="#263238"/>
<path d="M679.454 653.517L665.538 658.021L656.306 626.831L670.202 622.328L679.454 653.517Z" fill="#CE7A63"/>
<path opacity="0.2" d="M590.979 343.848C586.922 359.34 588 423.718 592.194 460.009C593.194 438.761 596.016 406.002 598.878 375.916L590.979 343.848Z" fill="black"/>
<path d="M660.187 650.452L679.238 647.182C679.523 647.128 679.818 647.172 680.073 647.305C680.327 647.438 680.525 647.653 680.63 647.911L685.628 659.684C685.75 659.97 685.803 660.278 685.782 660.586C685.762 660.894 685.67 661.194 685.512 661.463C685.354 661.732 685.134 661.964 684.869 662.141C684.604 662.319 684.301 662.437 683.981 662.487C678.278 663.384 670.006 664.468 662.852 665.701C654.503 667.14 654.444 667.57 644.644 669.289C638.764 670.317 636.236 665.215 638.45 663.926C648.407 658.17 646.78 657.778 656.894 652.134C657.88 651.394 658.994 650.825 660.187 650.452Z" fill="#263238"/>
<path opacity="0.2" d="M656.306 626.85L661.069 642.921L674.985 638.418L670.222 622.346L656.306 626.85Z" fill="black"/>
<path d="M582.375 303.371C582.375 303.371 592.528 416.58 600.348 456.813C607.874 495.534 641.92 605.827 651.955 630.887C652.538 632.35 653.691 633.541 655.174 634.213C656.657 634.885 658.354 634.985 659.912 634.493L669.967 631.372C671.445 630.912 672.696 629.954 673.486 628.678C674.276 627.402 674.551 625.895 674.26 624.439C664.264 575.235 648.348 503.326 644.389 462.139C639.862 414.916 633.217 303.297 633.217 303.297L582.375 303.371Z" fill="#92E3A9"/>
<path opacity="0.2" d="M582.375 303.371C582.375 303.371 592.528 416.58 600.348 456.813C607.874 495.534 641.92 605.827 651.955 630.887C652.538 632.35 653.691 633.541 655.174 634.213C656.657 634.885 658.354 634.985 659.912 634.493L669.967 631.372C671.445 630.912 672.696 629.954 673.486 628.678C674.276 627.402 674.551 625.895 674.26 624.439C664.264 575.235 648.348 503.326 644.389 462.139C639.862 414.916 633.217 303.297 633.217 303.297L582.375 303.371Z" fill="white"/>
<path d="M586.373 130.681C586.491 131.821 585.962 132.793 585.178 132.867C584.394 132.942 583.688 132.083 583.57 130.999C583.453 129.915 583.982 128.906 584.766 128.831C585.55 128.756 586.256 129.56 586.373 130.681Z" fill="#263238"/>
<path d="M573.006 131.952C573.124 133.073 572.594 134.045 571.81 134.119C571.026 134.194 570.321 133.335 570.203 132.251C570.086 131.167 570.615 130.139 571.399 130.064C572.183 129.99 572.888 130.812 573.006 131.952Z" fill="#263238"/>
<path d="M577.318 132.101C576.262 135.684 574.692 139.112 572.653 142.286C573.52 142.759 574.485 143.046 575.48 143.127C576.476 143.207 577.477 143.08 578.416 142.753L577.318 132.101Z" fill="#BA4D3C"/>
<path d="M582.12 145.556C582.029 145.562 581.94 145.533 581.871 145.478C581.802 145.422 581.757 145.343 581.748 145.257C581.742 145.213 581.746 145.168 581.759 145.125C581.772 145.083 581.793 145.043 581.822 145.008C581.852 144.973 581.888 144.944 581.929 144.923C581.97 144.902 582.015 144.888 582.061 144.883C583.535 144.779 584.962 144.344 586.226 143.613C587.49 142.882 588.554 141.877 589.333 140.679C589.375 140.6 589.448 140.54 589.536 140.512C589.624 140.484 589.72 140.49 589.803 140.529C589.882 140.573 589.942 140.642 589.971 140.725C590 140.808 589.996 140.898 589.96 140.978C589.133 142.283 587.989 143.381 586.625 144.177C585.26 144.974 583.716 145.447 582.12 145.556Z" fill="#263238"/>
<path d="M589.96 126.196C589.852 126.205 589.744 126.191 589.642 126.155C589.541 126.12 589.448 126.063 589.372 125.99C588.804 125.346 588.082 124.84 587.267 124.515C586.452 124.19 585.568 124.055 584.688 124.122C584.506 124.149 584.32 124.108 584.17 124.006C584.02 123.905 583.917 123.752 583.884 123.58C583.867 123.494 583.869 123.405 583.888 123.32C583.908 123.234 583.945 123.154 583.998 123.082C584.051 123.011 584.119 122.95 584.197 122.904C584.275 122.858 584.362 122.827 584.452 122.814C585.544 122.704 586.648 122.846 587.671 123.226C588.694 123.606 589.606 124.215 590.332 125C590.401 125.061 590.455 125.135 590.492 125.217C590.529 125.299 590.548 125.387 590.548 125.477C590.548 125.566 590.529 125.654 590.492 125.736C590.455 125.818 590.401 125.892 590.332 125.953C590.236 126.067 590.106 126.152 589.96 126.196Z" fill="#263238"/>
<path d="M566.538 127.99C566.434 128.01 566.328 128.01 566.224 127.99C566.057 127.916 565.926 127.783 565.86 127.619C565.794 127.455 565.798 127.273 565.872 127.112C566.297 126.138 566.96 125.276 567.805 124.597C568.651 123.917 569.654 123.441 570.732 123.206C570.829 123.174 570.932 123.162 571.034 123.172C571.136 123.182 571.235 123.212 571.323 123.262C571.411 123.312 571.487 123.379 571.545 123.459C571.603 123.54 571.642 123.631 571.66 123.728C571.677 123.824 571.672 123.923 571.645 124.017C571.619 124.111 571.571 124.199 571.505 124.274C571.439 124.349 571.357 124.409 571.264 124.45C571.171 124.492 571.07 124.514 570.968 124.514C570.116 124.712 569.325 125.1 568.661 125.646C567.996 126.191 567.477 126.879 567.146 127.654C567.086 127.757 566.997 127.842 566.89 127.902C566.783 127.961 566.662 127.991 566.538 127.99Z" fill="#263238"/>
<path d="M613.48 175.661C621.163 175.661 639.685 176.054 641.488 182.595C643.292 189.135 641.312 199.731 638.862 205.954C642.468 215.447 641.312 229.463 637.882 233.835C641.645 244.412 639.195 252.205 636.902 255.943C638.705 260.147 640.332 272.145 637.568 278.05C639.842 286.459 642.449 300.475 638.372 303.296C632.825 307.034 618.066 308.903 607.639 306.548C597.212 304.193 601.308 284.123 602.112 279.451C597.545 273.696 602.445 256.41 602.445 256.41C600.152 251.588 603.582 233.518 603.582 233.518C600.818 229.164 604.405 205.487 604.405 205.487C601.426 200.74 600.132 175.661 613.48 175.661Z" fill="#263238"/>
<path d="M557.051 180.016C563.088 177.474 583.315 172.858 579.395 177.941C573.711 185.323 577.2 193.097 573.829 202.235C576.808 210.962 575.789 225.22 573.025 230.266C575.479 237.586 575.231 245.487 572.32 252.653C573.79 256.391 575.142 268.108 572.849 274.611C574.809 282.535 576.299 298.512 572.849 302.119C570.366 304.727 567.075 306.511 563.455 307.214C559.835 307.916 556.075 307.5 552.72 306.025C547.918 304.156 545.782 288.87 548.153 283.6C543.488 273.901 547.291 259.53 547.291 259.53C542.783 252.055 546.271 236.377 546.271 236.377C541.803 222.473 547.291 207.094 547.291 207.094C544.88 202.926 547.428 184.071 557.051 180.016Z" fill="#263238"/>
<path d="M570.36 181.735C569.557 181.167 568.904 180.43 568.451 179.58C567.999 178.73 567.76 177.792 567.753 176.839C567.738 176.2 567.855 175.565 568.098 174.969C568.341 174.374 568.706 173.831 569.17 173.37C569.635 172.91 570.191 172.542 570.805 172.287C571.42 172.033 572.081 171.896 572.751 171.887C575.046 172.068 577.276 172.705 579.298 173.755C582.375 175.194 583.512 176.521 583.649 178.689C583.786 180.857 578.18 188.481 575.103 186.668C572.026 184.856 572.085 183.604 570.36 181.735Z" fill="#263238"/>
<path opacity="0.2" d="M629.826 208.458C631.355 202.16 635.236 202.721 639.097 205.3L638.823 206.028C642.429 215.522 641.273 229.537 637.843 233.91C638.058 234.508 638.254 235.106 638.431 235.779C633.629 231.294 626.965 220.343 629.826 208.458Z" fill="black"/>
<path d="M630.493 223.838L617.459 229.519L616.185 269.659L580.768 291.411L620.418 304.978L631.179 343.792L644.232 338.13L651.524 274.817L630.493 223.838Z" fill="#92E3A9"/>
<path opacity="0.3" d="M630.493 223.838L617.459 229.519L616.185 269.659L580.768 291.411L620.418 304.978L631.179 343.792L644.232 338.13L651.524 274.817L630.493 223.838Z" fill="black"/>
<path d="M712.068 308.604L699.014 314.285L656.953 312.042L674.554 300.718L712.068 308.604Z" fill="#92E3A9"/>
<path opacity="0.3" d="M712.068 308.604L699.014 314.285L656.953 312.042L674.554 300.718L712.068 308.604Z" fill="black"/>
<path d="M630.493 223.838L663.146 249.215L703.581 237.965L688.352 275.415L712.068 308.604L670.006 306.361L644.232 338.13L633.452 299.297L593.821 285.73L629.219 263.978L630.493 223.838Z" fill="#92E3A9"/>
<path d="M651.014 303.633L650.72 316.322L666.4 315.481C666.4 315.481 668.517 307.538 659.501 302.007L651.014 303.633Z" fill="#CE7A63"/>
<path d="M655.757 329.029L666.616 323.068L666.42 315.481L650.72 316.322L655.757 329.029Z" fill="#CE7A63"/>
<path d="M642.018 182.221C643.292 183.342 644.252 184.202 645.31 185.192C646.369 186.183 647.27 187.061 648.368 188.107C650.328 190.07 652.288 192.088 654.248 194.125C658.081 198.306 661.686 202.672 665.048 207.206C668.6 211.943 671.753 216.942 674.475 222.156C677.752 228.192 679.851 234.746 680.669 241.497C680.79 242.496 680.848 243.501 680.845 244.506V246.076V247.16L680.512 251.402C680.159 254.186 679.806 257.008 679.316 259.643C678.409 264.973 677.219 270.256 675.749 275.471C672.93 285.724 669.192 295.728 664.577 305.371C663.824 306.995 662.489 308.31 660.811 309.081C659.134 309.852 657.223 310.029 655.421 309.579C653.62 309.13 652.045 308.083 650.979 306.627C649.912 305.171 649.425 303.401 649.603 301.633V301.334C650.446 291.467 651.563 281.414 652.131 271.659C652.523 266.763 652.68 261.923 652.798 257.195C652.798 254.821 652.798 252.504 652.798 250.187L652.641 246.823V246.001V245.646C652.6 245.381 652.541 245.119 652.464 244.861C651.446 241.573 649.969 238.431 648.074 235.517C645.686 231.791 643.068 228.203 640.234 224.772C637.274 221.184 634.099 217.615 630.806 214.102C629.16 212.345 627.455 210.626 625.769 208.888L623.221 206.328L620.81 203.954L620.418 203.562C617.623 200.758 616.077 197.03 616.105 193.162C616.132 189.294 617.731 185.587 620.565 182.819C623.4 180.051 627.249 178.439 631.304 178.32C635.359 178.202 639.305 179.586 642.312 182.184L642.018 182.221Z" fill="#263238"/>
<path d="M619.36 180.09C621.32 179.829 621.83 175.456 620.262 172.616C618.988 170.28 614.382 170.597 610.266 171.606C606.953 172.31 603.782 173.522 600.877 175.194C596.722 177.381 598.231 180.016 599.192 182.09C600.152 184.164 601.975 188.93 605.895 186.407C609.815 183.884 616.616 180.483 619.36 180.09Z" fill="#263238"/>
<path d="M668.791 649.63C668.497 643.669 670.144 634.045 654.758 640.286C645.565 644.024 658.482 653.891 658.482 653.891L668.791 649.63Z" fill="#263238"/>
<path d="M476.084 185.005H497.134C497.719 185.026 498.284 185.215 498.753 185.549C499.223 185.883 499.574 186.345 499.761 186.874L510.776 224.249C510.847 224.467 510.864 224.698 510.823 224.922C510.783 225.147 510.687 225.36 510.543 225.542C510.4 225.725 510.212 225.872 509.997 225.972C509.782 226.072 509.545 226.122 509.306 226.118H488.236C487.656 226.089 487.098 225.895 486.633 225.563C486.169 225.23 485.819 224.772 485.629 224.249L474.614 186.874C474.538 186.656 474.518 186.424 474.557 186.197C474.595 185.971 474.691 185.756 474.835 185.572C474.98 185.389 475.169 185.241 475.386 185.142C475.604 185.044 475.843 184.997 476.084 185.005Z" fill="#92E3A9"/>
<path d="M487.55 210.196L483.14 195.563L475.457 198.479L478.24 215.783L487.55 210.196Z" fill="#CE7A63"/>
<path opacity="0.3" d="M498.82 186.351C499.027 186.363 499.225 186.436 499.386 186.56C499.548 186.683 499.665 186.852 499.722 187.042L510.756 224.249C510.79 224.326 510.803 224.41 510.793 224.492C510.783 224.575 510.751 224.654 510.7 224.722C510.649 224.789 510.58 224.843 510.501 224.878C510.421 224.913 510.334 224.928 510.247 224.922C510.041 224.914 509.844 224.845 509.682 224.724C509.52 224.603 509.403 224.437 509.345 224.249L498.35 186.986C498.329 186.914 498.326 186.839 498.339 186.766C498.353 186.693 498.383 186.624 498.428 186.563C498.473 186.502 498.531 186.452 498.599 186.415C498.667 186.378 498.742 186.356 498.82 186.351Z" fill="black"/>
<path d="M240.237 39.8042H225.4V41.6729H240.237V39.8042Z" fill="#92E3A9"/>
<path d="M170.52 60.9957H168.56C168.565 55.393 170.895 50.0198 175.041 46.0494C179.187 42.0789 184.812 39.8338 190.688 39.8042H217.344V41.6729H190.688C185.332 41.7025 180.205 43.7508 176.427 47.3708C172.648 50.9908 170.525 55.8886 170.52 60.9957Z" fill="#92E3A9"/>
<path d="M422.106 46.3446H190.688C182.213 46.3446 175.342 52.8957 175.342 60.9768V97.3051C175.342 105.386 182.213 111.937 190.688 111.937H422.106C430.581 111.937 437.452 105.386 437.452 97.3051V60.9768C437.452 52.8957 430.581 46.3446 422.106 46.3446Z" fill="#92E3A9"/>
<path d="M275.086 69.2555L278.457 75.7587L286.003 76.8052L280.535 81.8695L281.828 89.0455L275.086 85.663L268.344 89.0455L269.637 81.8695L264.169 76.8052L271.715 75.7587L275.086 69.2555Z" fill="white"/>
<path d="M305.701 69.2555L309.072 75.7587L316.618 76.8052L311.15 81.8695L312.444 89.0455L305.701 85.663L298.959 89.0455L300.252 81.8695L294.784 76.8052L302.33 75.7587L305.701 69.2555Z" fill="white"/>
<path d="M336.316 69.2555L339.688 75.7587L347.234 76.8052L341.785 81.8695L343.059 89.0455L336.316 85.663L329.574 89.0455L330.868 81.8695L325.399 76.8052L332.945 75.7587L336.316 69.2555Z" fill="white"/>
<path d="M366.932 69.2555L370.303 75.7587L377.849 76.8052L372.4 81.8695L373.674 89.0455L366.932 85.663L360.189 89.0455L361.483 81.8695L356.014 76.8052L363.56 75.7587L366.932 69.2555Z" fill="white"/>
<path opacity="0.3" d="M397.547 73.4788L399.154 76.5996C399.298 76.8705 399.508 77.104 399.768 77.2798C400.027 77.4557 400.328 77.5685 400.644 77.6087L404.25 78.1133L401.643 80.5427C401.416 80.7527 401.246 81.012 401.147 81.2984C401.048 81.5847 401.023 81.8897 401.075 82.1872L401.682 85.6256L398.468 84.0933C398.18 83.9617 397.866 83.8916 397.547 83.8877C397.233 83.8865 396.924 83.957 396.645 84.0933L393.411 85.7191L393.96 82.2245C394.011 81.927 393.987 81.6221 393.888 81.3357C393.789 81.0494 393.618 80.7901 393.392 80.58L390.785 78.1507L394.391 77.6461C394.716 77.6099 395.026 77.4968 395.293 77.3173C395.56 77.1378 395.775 76.8975 395.92 76.6183L397.527 73.4975L397.547 73.4788ZM397.527 69.2742L394.156 75.7774L386.61 76.8239L392.078 81.9069L390.785 89.0641L397.527 85.6817L404.27 89.0641L402.976 81.9069L408.444 76.8239L400.898 75.7774L397.527 69.2742Z" fill="white"/>
<path opacity="0.2" d="M223.146 101.585C236.146 101.585 246.686 91.5363 246.686 79.1411C246.686 66.7458 236.146 56.6975 223.146 56.6975C210.145 56.6975 199.606 66.7458 199.606 79.1411C199.606 91.5363 210.145 101.585 223.146 101.585Z" fill="white"/>
<path d="M242.589 79.1412C242.594 83.2649 241.156 87.2723 238.501 90.5281C235.847 93.784 232.129 96.102 227.936 97.1147C223.743 98.1275 219.316 97.7771 215.356 96.1191C211.396 94.461 208.129 91.5902 206.074 87.9616C204.521 85.2582 203.712 82.2236 203.722 79.1412C203.883 74.3289 206 69.765 209.627 66.415C213.254 63.065 218.106 61.1918 223.156 61.1918C228.206 61.1918 233.057 63.065 236.684 66.415C240.311 69.765 242.429 74.3289 242.589 79.1412Z" fill="white"/>
<path d="M240.237 87.9615C238.575 90.9013 236.11 93.3574 233.103 95.0693C230.096 96.7812 226.658 97.6852 223.156 97.6852C219.653 97.6852 216.216 96.7812 213.209 95.0693C210.201 93.3574 207.736 90.9013 206.074 87.9615C211.132 84.7436 217.076 83.0262 223.156 83.0262C229.236 83.0262 235.18 84.7436 240.237 87.9615Z" fill="#263238"/>
<path d="M231.809 72.8808C231.809 74.5144 231.301 76.1114 230.349 77.4697C229.397 78.828 228.044 79.8867 226.461 80.5119C224.878 81.1371 223.136 81.3006 221.456 80.9819C219.775 80.6632 218.232 79.8765 217.02 78.7214C215.809 77.5662 214.984 76.0945 214.649 74.4922C214.315 72.89 214.487 71.2292 215.142 69.7199C215.798 68.2106 216.908 66.9206 218.333 66.013C219.758 65.1054 221.433 64.621 223.146 64.621C225.444 64.621 227.647 65.4912 229.272 67.0402C230.896 68.5892 231.809 70.6902 231.809 72.8808Z" fill="#FFC3BD"/>
<path d="M406.151 274.293H366.932V276.162H406.151V274.293Z" fill="#92E3A9"/>
<path d="M422.106 204.029H190.688C182.213 204.029 175.342 210.58 175.342 218.661V254.989C175.342 263.071 182.213 269.622 190.688 269.622H422.106C430.581 269.622 437.452 263.071 437.452 254.989V218.661C437.452 210.58 430.581 204.029 422.106 204.029Z" fill="#92E3A9"/>
<path d="M275.086 226.921L278.457 233.443L286.003 234.471L280.535 239.554L281.828 246.711L275.086 243.329L268.344 246.711L269.637 239.554L264.169 234.471L271.715 233.443L275.086 226.921Z" fill="white"/>
<path d="M305.701 226.921L309.072 233.443L316.618 234.471L311.15 239.554L312.444 246.711L305.701 243.329L298.959 246.711L300.252 239.554L294.784 234.471L302.33 233.443L305.701 226.921Z" fill="white"/>
<path d="M336.316 226.921L339.688 233.443L347.234 234.471L341.785 239.554L343.059 246.711L336.316 243.329L329.574 246.711L330.868 239.554L325.399 234.471L332.945 233.443L336.316 226.921Z" fill="white"/>
<path d="M366.932 226.921L370.303 233.443L377.849 234.471L372.4 239.554L373.674 246.711L366.932 243.329L360.189 246.711L361.483 239.554L356.014 234.471L363.56 233.443L366.932 226.921Z" fill="white"/>
<path d="M397.547 226.921L400.918 233.443L408.464 234.471L403.015 239.554L404.289 246.711L397.547 243.329L390.804 246.711L392.098 239.554L386.63 234.471L394.176 233.443L397.547 226.921Z" fill="white"/>
<path opacity="0.2" d="M239.804 252.693C248.997 243.928 248.997 229.717 239.804 220.953C230.611 212.188 215.707 212.188 206.514 220.953C197.321 229.717 197.321 243.928 206.514 252.692C215.707 261.457 230.611 261.457 239.804 252.693Z" fill="white"/>
<path d="M242.589 236.807C242.599 240.932 241.163 244.942 238.51 248.201C235.857 251.46 232.139 253.782 227.945 254.797C223.752 255.812 219.322 255.463 215.36 253.805C211.398 252.147 208.13 249.276 206.074 245.646C204.521 242.936 203.712 239.895 203.722 236.807C203.883 231.994 206 227.43 209.627 224.08C213.254 220.73 218.106 218.857 223.156 218.857C228.206 218.857 233.057 220.73 236.684 224.08C240.311 227.43 242.429 231.994 242.589 236.807Z" fill="white"/>
<path opacity="0.5" d="M240.237 245.646C238.571 248.58 236.104 251.031 233.097 252.739C230.091 254.447 226.656 255.349 223.156 255.349C219.656 255.349 216.221 254.447 213.214 252.739C210.207 251.031 207.741 248.58 206.074 245.646C211.132 242.428 217.076 240.711 223.156 240.711C229.236 240.711 235.18 242.428 240.237 245.646Z" fill="#92E3A9"/>
<path d="M231.809 230.472C231.813 232.106 231.308 233.705 230.359 235.066C229.409 236.426 228.057 237.488 226.475 238.116C224.892 238.744 223.15 238.91 221.468 238.594C219.786 238.277 218.241 237.492 217.027 236.337C215.814 235.183 214.987 233.711 214.651 232.109C214.315 230.506 214.485 228.844 215.14 227.334C215.795 225.823 216.906 224.532 218.331 223.624C219.756 222.715 221.432 222.23 223.146 222.23C225.44 222.23 227.641 223.098 229.265 224.643C230.889 226.188 231.804 228.284 231.809 230.472Z" fill="#FFB573"/>
<path d="M422.106 125.187H190.688C182.213 125.187 175.342 131.738 175.342 139.819V176.147C175.342 184.229 182.213 190.78 190.688 190.78H422.106C430.581 190.78 437.452 184.229 437.452 176.147V139.819C437.452 131.738 430.581 125.187 422.106 125.187Z" fill="#92E3A9"/>
<path d="M430.338 163.589L413.874 190.78H455.034L430.338 163.589Z" fill="#92E3A9"/>
<path d="M275.086 148.079L278.457 154.601L286.003 155.647L280.535 160.712L281.828 167.869L275.086 164.486L268.344 167.869L269.637 160.712L264.169 155.647L271.715 154.601L275.086 148.079Z" fill="white"/>
<path d="M305.701 148.079L309.072 154.601L316.618 155.647L311.15 160.712L312.444 167.869L305.701 164.486L298.959 167.869L300.252 160.712L294.784 155.647L302.33 154.601L305.701 148.079Z" fill="white"/>
<path opacity="0.3" d="M336.316 152.302L337.924 155.423C338.065 155.698 338.274 155.935 338.534 156.114C338.794 156.293 339.096 156.409 339.413 156.451L343 156.974L340.393 159.404C340.166 159.614 339.996 159.873 339.897 160.159C339.798 160.446 339.773 160.751 339.825 161.048L340.432 164.487L337.218 162.861C336.935 162.715 336.618 162.638 336.297 162.637C335.981 162.636 335.67 162.713 335.395 162.861L332.161 164.487L332.769 161.048C332.82 160.751 332.795 160.446 332.696 160.159C332.597 159.873 332.427 159.614 332.2 159.404L329.594 156.974L333.2 156.47C333.517 156.428 333.819 156.312 334.079 156.133C334.339 155.954 334.548 155.716 334.69 155.442L336.297 152.321L336.316 152.302ZM336.297 148.098L332.926 154.62L325.38 155.666L330.848 160.73L329.554 167.888L336.297 164.505L343.039 167.888L341.746 160.73L347.214 155.666L339.668 154.62L336.297 148.098Z" fill="white"/>
<path opacity="0.3" d="M366.932 152.302L368.539 155.423C368.68 155.697 368.89 155.935 369.149 156.114C369.409 156.293 369.711 156.409 370.028 156.451L373.635 156.955L371.028 159.385C370.801 159.595 370.631 159.854 370.532 160.14C370.433 160.427 370.408 160.732 370.46 161.029L371.067 164.468L367.853 162.842C367.57 162.696 367.253 162.619 366.932 162.618C366.616 162.617 366.305 162.694 366.03 162.842L362.796 164.468L363.404 161.029C363.455 160.732 363.43 160.427 363.331 160.14C363.232 159.854 363.062 159.595 362.835 159.385L360.228 156.955L363.835 156.451C364.152 156.409 364.454 156.293 364.714 156.114C364.974 155.935 365.183 155.697 365.324 155.423L366.932 152.302ZM366.932 148.079L363.56 154.601L356.014 155.647L361.483 160.712L360.189 167.869L366.932 164.486L373.674 167.869L372.4 160.712L377.868 155.647L370.322 154.601L366.951 148.079H366.932Z" fill="white"/>
<path opacity="0.3" d="M397.547 152.302L399.154 155.423C399.295 155.697 399.505 155.935 399.764 156.114C400.024 156.293 400.326 156.409 400.644 156.451L404.25 156.955L401.643 159.385C401.416 159.595 401.246 159.854 401.147 160.14C401.048 160.427 401.023 160.732 401.075 161.029L401.682 164.468L398.468 162.842C398.185 162.696 397.868 162.619 397.547 162.618C397.231 162.617 396.92 162.694 396.645 162.842L393.411 164.468L394.019 161.029C394.07 160.732 394.045 160.427 393.946 160.14C393.847 159.854 393.677 159.595 393.45 159.385L390.844 156.955L394.45 156.451C394.767 156.409 395.069 156.293 395.329 156.114C395.589 155.935 395.798 155.697 395.94 155.423L397.547 152.302ZM397.547 148.079L394.176 154.601L386.63 155.647L392.098 160.712L390.804 167.869L397.547 164.486L404.289 167.869L402.996 160.712L408.464 155.647L400.918 154.601L397.547 148.079Z" fill="white"/>
<path opacity="0.2" d="M223.146 180.427C236.146 180.427 246.686 170.378 246.686 157.983C246.686 145.588 236.146 135.54 223.146 135.54C210.145 135.54 199.606 145.588 199.606 157.983C199.606 170.378 210.145 180.427 223.146 180.427Z" fill="white"/>
<path d="M242.589 157.983C242.594 162.107 241.155 166.114 238.501 169.37C235.847 172.626 232.129 174.944 227.936 175.957C223.743 176.97 219.316 176.619 215.356 174.961C211.396 173.303 208.129 170.432 206.074 166.804C204.521 164.1 203.712 161.066 203.722 157.983C203.64 155.501 204.081 153.027 205.02 150.71C205.96 148.394 207.378 146.28 209.191 144.496C211.003 142.712 213.174 141.294 215.573 140.325C217.972 139.356 220.55 138.857 223.156 138.857C225.761 138.857 228.34 139.356 230.739 140.325C233.138 141.294 235.308 142.712 237.121 144.496C238.933 146.28 240.352 148.394 241.291 150.71C242.23 153.027 242.672 155.501 242.589 157.983Z" fill="white"/>
<path d="M240.237 166.804C238.571 169.738 236.104 172.189 233.097 173.897C230.091 175.605 226.656 176.507 223.156 176.507C219.656 176.507 216.221 175.605 213.214 173.897C210.207 172.189 207.741 169.738 206.074 166.804C211.132 163.586 217.076 161.868 223.156 161.868C229.236 161.868 235.18 163.586 240.237 166.804Z" fill="#92E3A9"/>
<path d="M231.809 151.648C231.809 153.282 231.301 154.879 230.349 156.237C229.397 157.596 228.044 158.654 226.461 159.279C224.878 159.905 223.136 160.068 221.456 159.749C219.775 159.431 218.232 158.644 217.02 157.489C215.809 156.334 214.984 154.862 214.649 153.26C214.315 151.657 214.487 149.997 215.142 148.487C215.798 146.978 216.908 145.688 218.333 144.78C219.758 143.873 221.433 143.388 223.146 143.388C224.284 143.386 225.412 143.598 226.464 144.012C227.517 144.426 228.473 145.035 229.278 145.802C230.083 146.57 230.721 147.481 231.155 148.484C231.589 149.488 231.812 150.563 231.809 151.648Z" fill="#B55B52"/>
</svg>
