<svg width="145" height="134" viewBox="0 0 145 134" fill="none" xmlns="http://www.w3.org/2000/svg">
<path d="M71.6663 134C85.9087 134 97.4545 132.752 97.4545 131.212C97.4545 129.672 85.9087 128.423 71.6663 128.423C57.4239 128.423 45.8782 129.672 45.8782 131.212C45.8782 132.752 57.4239 134 71.6663 134Z" fill="#92E3A9"/>
<path opacity="0.5" d="M71.6663 134C85.9087 134 97.4545 132.752 97.4545 131.212C97.4545 129.672 85.9087 128.423 71.6663 128.423C57.4239 128.423 45.8782 129.672 45.8782 131.212C45.8782 132.752 57.4239 134 71.6663 134Z" fill="white"/>
<path d="M129.941 108.173V103.917H125.349V95.6597H118.752V62.1225H112.442V82.394H106.704V75.1372H98.9613V93.9065H95.806V99.912H88.3494V97.6604H90.6417V96.4091H81.1759V97.9113H82.3254V104.419H77.4476V92.1533H60.2386V100.912H47.9008V94.405H43.3128V101.665H33.5605V88.3995H29.5457V83.8962H22.3722V104.419H15.2021V108.922H10.6141V122.686H138.833V108.173H129.941Z" stroke="#2E353A" stroke-miterlimit="10"/>
<path d="M25.1937 88.3402H23.6431V89.9435H25.1937V88.3402Z" fill="#2E353A"/>
<path d="M28.4231 88.3402H26.8725V89.9435H28.4231V88.3402Z" fill="#2E353A"/>
<path d="M25.1937 91.6828H23.6431V93.2861H25.1937V91.6828Z" fill="#2E353A"/>
<path d="M28.4231 91.6828H26.8725V93.2861H28.4231V91.6828Z" fill="#2E353A"/>
<path d="M31.9121 91.6828H30.3615V93.2861H31.9121V91.6828Z" fill="#2E353A"/>
<path d="M31.9121 95.0219H30.3615V96.6252H31.9121V95.0219Z" fill="#2E353A"/>
<path d="M31.9121 98.3645H30.3615V99.9678H31.9121V98.3645Z" fill="#2E353A"/>
<path d="M31.9121 101.704H30.3615V103.307H31.9121V101.704Z" fill="#2E353A"/>
<path d="M31.9121 105.046H30.3615V106.649H31.9121V105.046Z" fill="#2E353A"/>
<path d="M31.9121 108.389H30.3615V109.992H31.9121V108.389Z" fill="#2E353A"/>
<path d="M25.1937 95.0219H23.6431V96.6252H25.1937V95.0219Z" fill="#2E353A"/>
<path d="M28.4231 95.0219H26.8725V96.6252H28.4231V95.0219Z" fill="#2E353A"/>
<path d="M25.1937 98.3645H23.6431V99.9678H25.1937V98.3645Z" fill="#2E353A"/>
<path d="M28.4231 98.3645H26.8725V99.9678H28.4231V98.3645Z" fill="#2E353A"/>
<path d="M25.1937 101.704H23.6431V103.307H25.1937V101.704Z" fill="#2E353A"/>
<path d="M28.4231 101.704H26.8725V103.307H28.4231V101.704Z" fill="#2E353A"/>
<path d="M25.1937 105.046H23.6431V106.649H25.1937V105.046Z" fill="#2E353A"/>
<path d="M18.0843 106.918H16.5336V108.521H18.0843V106.918Z" fill="#2E353A"/>
<path d="M40.4441 103.307H38.8935V104.91H40.4441V103.307Z" fill="#2E353A"/>
<path d="M43.5454 103.307H41.9948V104.91H43.5454V103.307Z" fill="#2E353A"/>
<path d="M115.024 64.0151H113.473V65.6184H115.024V64.0151Z" fill="#2E353A"/>
<path d="M116.962 64.0151H115.412V65.6184H116.962V64.0151Z" fill="#2E353A"/>
<path d="M115.024 67.3576H113.473V68.961H115.024V67.3576Z" fill="#2E353A"/>
<path d="M116.962 67.3576H115.412V68.961H116.962V67.3576Z" fill="#2E353A"/>
<path d="M115.024 70.7002H113.473V72.3035H115.024V70.7002Z" fill="#2E353A"/>
<path d="M116.962 70.7002H115.412V72.3035H116.962V70.7002Z" fill="#2E353A"/>
<path d="M115.024 74.0393H113.473V75.6426H115.024V74.0393Z" fill="#2E353A"/>
<path d="M116.962 74.0393H115.412V75.6426H116.962V74.0393Z" fill="#2E353A"/>
<path d="M115.024 77.3819H113.473V78.9852H115.024V77.3819Z" fill="#2E353A"/>
<path d="M116.962 77.3819H115.412V78.9852H116.962V77.3819Z" fill="#2E353A"/>
<path d="M115.024 80.721H113.473V82.3243H115.024V80.721Z" fill="#2E353A"/>
<path d="M116.962 80.721H115.412V82.3243H116.962V80.721Z" fill="#2E353A"/>
<path d="M115.024 84.0635H113.473V85.6669H115.024V84.0635Z" fill="#2E353A"/>
<path d="M116.962 84.0635H115.412V85.6669H116.962V84.0635Z" fill="#2E353A"/>
<path d="M115.024 87.4061H113.473V89.0094H115.024V87.4061Z" fill="#2E353A"/>
<path d="M116.962 87.4061H115.412V89.0094H116.962V87.4061Z" fill="#2E353A"/>
<path d="M115.024 90.7452H113.473V92.3485H115.024V90.7452Z" fill="#2E353A"/>
<path d="M116.962 90.7452H115.412V92.3485H116.962V90.7452Z" fill="#2E353A"/>
<path d="M101.84 90.7452H100.289V92.3485H101.84V90.7452Z" fill="#2E353A"/>
<path d="M105.201 90.7452H103.65V92.3485H105.201V90.7452Z" fill="#2E353A"/>
<path d="M108.562 90.7452H107.011V92.3485H108.562V90.7452Z" fill="#2E353A"/>
<path d="M101.84 97.9636H100.289V99.5669H101.84V97.9636Z" fill="#2E353A"/>
<path d="M105.201 97.9636H103.65V99.5669H105.201V97.9636Z" fill="#2E353A"/>
<path d="M108.562 97.9636H107.011V99.5669H108.562V97.9636Z" fill="#2E353A"/>
<path d="M101.84 105.179H100.289V106.782H101.84V105.179Z" fill="#2E353A"/>
<path d="M105.201 105.179H103.65V106.782H105.201V105.179Z" fill="#2E353A"/>
<path d="M108.562 105.179H107.011V106.782H108.562V105.179Z" fill="#2E353A"/>
<path d="M115.024 94.0878H113.473V95.6911H115.024V94.0878Z" fill="#2E353A"/>
<path d="M116.962 94.0878H115.412V95.6911H116.962V94.0878Z" fill="#2E353A"/>
<path d="M115.024 97.4269H113.473V99.0302H115.024V97.4269Z" fill="#2E353A"/>
<path d="M116.962 97.4269H115.412V99.0302H116.962V97.4269Z" fill="#2E353A"/>
<path d="M115.024 100.769H113.473V102.373H115.024V100.769Z" fill="#2E353A"/>
<path d="M116.962 100.769H115.412V102.373H116.962V100.769Z" fill="#2E353A"/>
<path d="M120.195 97.4269H118.645V99.0302H120.195V97.4269Z" fill="#2E353A"/>
<path d="M123.816 97.4269H122.265V99.0302H123.816V97.4269Z" fill="#2E353A"/>
<path d="M120.195 100.637H118.645V102.24H120.195V100.637Z" fill="#2E353A"/>
<path d="M123.816 100.637H122.265V102.24H123.816V100.637Z" fill="#2E353A"/>
<path d="M120.195 103.844H118.645V105.447H120.195V103.844Z" fill="#2E353A"/>
<path d="M123.816 103.844H122.265V105.447H123.816V103.844Z" fill="#2E353A"/>
<path d="M120.195 107.05H118.645V108.654H120.195V107.05Z" fill="#2E353A"/>
<path d="M123.816 107.05H122.265V108.654H123.816V107.05Z" fill="#2E353A"/>
<path d="M115.024 104.112H113.473V105.715H115.024V104.112Z" fill="#2E353A"/>
<path d="M116.962 104.112H115.412V105.715H116.962V104.112Z" fill="#2E353A"/>
<path d="M115.024 107.451H113.473V109.054H115.024V107.451Z" fill="#2E353A"/>
<path d="M116.962 107.451H115.412V109.054H116.962V107.451Z" fill="#2E353A"/>
<path d="M28.4231 105.046H26.8725V106.649H28.4231V105.046Z" fill="#2E353A"/>
<path d="M25.1937 108.389H23.6431V109.992H25.1937V108.389Z" fill="#2E353A"/>
<path d="M28.4231 108.389H26.8725V109.992H28.4231V108.389Z" fill="#2E353A"/>
<path d="M25.1937 111.728H23.6431V113.331H25.1937V111.728Z" fill="#2E353A"/>
<path d="M28.4231 111.728H26.8725V113.331H28.4231V111.728Z" fill="#2E353A"/>
<path d="M25.1937 115.07H23.6431V116.674H25.1937V115.07Z" fill="#2E353A"/>
<path d="M28.4231 115.07H26.8725V116.674H28.4231V115.07Z" fill="#2E353A"/>
<path d="M110.113 116.074V122.686H97.1882V109.539H110.113V114.896" stroke="#2E353A" stroke-miterlimit="10"/>
<path d="M133.898 120.689V122.686H120.971V115.736H123.64" stroke="#2E353A" stroke-miterlimit="10"/>
<path d="M125.215 115.736H133.898V119.605" stroke="#2E353A" stroke-miterlimit="10"/>
<path d="M38.6305 115.736H47.8131V122.686H34.8853V115.736H37.4035" stroke="#2E353A" stroke-miterlimit="10"/>
<path d="M18.4079 115.736H19.6349V122.686H14.8515V115.736H17.4438" stroke="#2E353A" stroke-miterlimit="10"/>
<path d="M104.682 109.539H102.615V122.686H104.682V109.539Z" stroke="#2E353A" stroke-miterlimit="10"/>
<path d="M88.6191 111.327H86.5897V107.852H93.4396V111.327H90.4596" stroke="#2E353A" stroke-miterlimit="10"/>
<path d="M52.337 105.447H44.4522V108.389H52.337V105.447Z" stroke="#2E353A" stroke-miterlimit="10"/>
<path d="M48.9761 105.447H48.2008V122.686H48.9761V105.447Z" stroke="#2E353A" stroke-miterlimit="10"/>
<path d="M73.1631 0.725754C61.6299 0.725754 50.5691 5.46288 42.4139 13.895C34.2587 22.3272 29.6772 33.7636 29.6772 45.6884C29.6772 68.1175 69.7921 120.975 69.7921 120.975H73.1631C73.1631 120.975 116.649 70.519 116.649 45.6884C116.649 33.7636 112.067 22.3272 103.912 13.895C95.757 5.46288 84.6962 0.725754 73.1631 0.725754ZM73.1631 67.6469C68.9627 67.6469 64.8567 66.3591 61.3643 63.9463C57.8718 61.5334 55.1498 58.104 53.5424 54.0916C51.935 50.0792 51.5144 45.6641 52.3338 41.4045C53.1533 37.145 55.1759 33.2324 58.146 30.1614C61.1161 27.0905 64.9002 24.9991 69.0199 24.1518C73.1395 23.3046 77.4096 23.7394 81.2902 25.4014C85.1708 27.0634 88.4877 29.8779 90.8212 33.4889C93.1548 37.1 94.4004 41.3454 94.4004 45.6884C94.4004 48.5721 93.851 51.4275 92.7838 54.0916C91.7165 56.7557 90.1522 59.1764 88.1801 61.2154C86.208 63.2545 83.8669 64.8719 81.2902 65.9754C78.7136 67.079 75.952 67.6469 73.1631 67.6469Z" fill="#2E353A" stroke="#2E353A" stroke-linecap="round" stroke-linejoin="round"/>
<path d="M69.792 0.725754C58.2589 0.725754 47.1981 5.46288 39.0429 13.895C30.8877 22.3272 26.3062 33.7636 26.3062 45.6884C26.3062 70.519 69.792 120.975 69.792 120.975C69.792 120.975 113.278 70.519 113.278 45.6884C113.278 33.7636 108.696 22.3272 100.541 13.895C92.386 5.46288 81.3252 0.725754 69.792 0.725754ZM69.792 67.6469C65.5917 67.6469 61.4857 66.3591 57.9932 63.9463C54.5008 61.5334 51.7787 58.104 50.1713 54.0916C48.5639 50.0792 48.1434 45.6641 48.9628 41.4045C49.7823 37.145 51.8049 33.2324 54.775 30.1614C57.7451 27.0905 61.5292 24.9991 65.6489 24.1518C69.7685 23.3046 74.0386 23.7394 77.9192 25.4014C81.7998 27.0634 85.1166 29.8779 87.4502 33.4889C89.7838 37.1 91.0293 41.3454 91.0293 45.6884C91.0293 51.5122 88.7919 57.0974 84.8091 61.2154C80.8263 65.3335 75.4245 67.6469 69.792 67.6469Z" fill="#92E3A9" stroke="#2E353A" stroke-linecap="round" stroke-linejoin="round"/>
<path d="M56.1159 73.0912L60.9196 64.639L61.0038 67.6888L58.1385 73.6141L56.1159 73.0912Z" fill="white" stroke="#2E353A" stroke-linecap="round" stroke-linejoin="round"/>
<path d="M61.0032 101.644C60.7327 103.116 60.1117 104.495 59.1963 105.656C57.6625 107.618 55.586 111.445 55.4882 115.084C55.3905 118.723 51.3318 128.793 51.7801 129.539C52.2285 130.284 56.2029 131.313 57.7367 131.313C58.5424 131.313 59.8773 131.633 60.4099 130.821C60.4402 130.776 57.258 129.078 57.0389 128.915C56.8198 128.751 55.0466 127.461 55.1039 127.297C55.1039 127.297 59.2637 115.642 61.3403 112.658C63.4168 109.675 64.9506 107.43 65.581 105.565C66.2114 103.701 66.7777 101.934 66.7777 101.934L61.0032 101.644Z" fill="white"/>
<g style="mix-blend-mode:multiply">
<path d="M59.8746 104.659C61.6214 105.433 63.4566 105.973 65.3356 106.266C65.4367 106.026 65.5277 105.792 65.6053 105.569C66.239 103.701 66.7784 101.927 66.7784 101.927L61.0038 101.648C60.811 102.715 60.4281 103.736 59.8746 104.659Z" fill="#92E3A9"/>
</g>
<path d="M61.0032 101.644C60.7327 103.116 60.1117 104.495 59.1963 105.656C57.6625 107.618 55.586 111.445 55.4882 115.084C55.3905 118.723 51.3318 128.793 51.7801 129.539C52.2285 130.284 56.2029 131.313 57.7367 131.313C58.5424 131.313 59.8773 131.633 60.4099 130.821C60.4402 130.776 57.258 129.078 57.0389 128.915C56.8198 128.751 55.0466 127.461 55.1039 127.297C55.1039 127.297 59.2637 115.642 61.3403 112.658C63.4168 109.675 64.9506 107.43 65.581 105.565C66.2114 103.701 66.7777 101.934 66.7777 101.934L61.0032 101.644Z" stroke="#2E353A" stroke-linecap="round" stroke-linejoin="round"/>
<path d="M74.0665 102.408C74.9468 103.599 75.5261 104.998 75.752 106.479C76.1329 108.971 77.4948 113.125 80.0534 115.632C82.6119 118.138 87.1325 128.678 87.9685 128.828C88.9494 129.009 90.4461 127.712 91.1743 127.186C92.1013 126.517 94.2284 125.15 94.5453 123.969C94.9262 122.609 93.5744 123.293 93.0047 123.732C92.2665 124.3 88.582 124.777 88.582 124.777C88.582 124.777 82.9828 113.087 82.2277 109.497C81.4725 105.907 80.8792 103.223 79.9657 101.48C79.0522 99.7377 78.1353 98.1449 78.1353 98.1449L74.0665 102.408Z" fill="white"/>
<g style="mix-blend-mode:multiply">
<path d="M79.9657 101.491C79.0454 99.7482 78.1319 98.1553 78.1319 98.1553L74.0665 102.408C74.7566 103.341 75.2598 104.408 75.5463 105.545C77.3809 105.207 79.185 104.711 80.9399 104.063C80.7007 103.174 80.3743 102.312 79.9657 101.491Z" fill="#92E3A9"/>
</g>
<path d="M74.0665 102.408C74.9468 103.599 75.5261 104.998 75.752 106.479C76.1329 108.971 77.4948 113.125 80.0534 115.632C82.6119 118.138 87.1325 128.678 87.9685 128.828C88.9494 129.009 90.4461 127.712 91.1743 127.186C92.1013 126.517 94.2284 125.15 94.5453 123.969C94.9262 122.609 93.5744 123.293 93.0047 123.732C92.2665 124.3 88.582 124.777 88.582 124.777C88.582 124.777 82.9828 113.087 82.2277 109.497C81.4725 105.907 80.8792 103.223 79.9657 101.48C79.0522 99.7377 78.1353 98.1449 78.1353 98.1449L74.0665 102.408Z" stroke="#2E353A" stroke-linecap="round" stroke-linejoin="round"/>
<path d="M94.5487 123.969C94.9296 122.609 93.5778 123.293 93.0081 123.732C92.2699 124.3 88.5854 124.777 88.5854 124.777C88.5854 124.777 88.1876 123.871 87.6078 122.505C86.8896 123.092 86.0953 123.572 85.2481 123.93C86.5122 126.506 87.5606 128.768 87.9718 128.841C88.9528 129.023 90.4495 127.726 91.1777 127.2C92.0946 126.517 94.2217 125.15 94.5487 123.969Z" fill="white" stroke="#2E353A" stroke-linecap="round" stroke-linejoin="round"/>
<path d="M61.1252 83.0179L57.9935 100.888C59.406 101.823 60.91 102.601 62.4803 103.209C64.9479 104.136 69.2223 103.906 69.2223 103.906L70.9078 95.2101L71.582 103.328C71.582 103.328 74.8351 103.676 77.1914 103.213C79.5477 102.749 83.3603 100.194 83.3603 100.194L75.9441 85.9317L74.2586 82.5683L61.1353 82.2197L61.1252 83.0179Z" fill="white"/>
<g style="mix-blend-mode:multiply">
<path d="M71.0157 93.2757C72.1551 91.8013 72.5664 83.1329 72.5664 83.1329L61.1252 82.2371V83.0179L59.6959 91.1286C62.8983 92.1952 70.1291 94.4189 71.0157 93.2757Z" fill="#92E3A9"/>
</g>
<path d="M61.1252 83.0179L57.9935 100.888C59.406 101.823 60.91 102.601 62.4803 103.209C64.9479 104.136 69.2223 103.906 69.2223 103.906L70.9078 95.2101L71.582 103.328C71.582 103.328 74.8351 103.676 77.1914 103.213C79.5477 102.749 83.3603 100.194 83.3603 100.194L75.9441 85.9317L74.2586 82.5683L61.1353 82.2197L61.1252 83.0179Z" stroke="#2E353A" stroke-miterlimit="10"/>
<path d="M80.4714 68.9087L86.8763 70.6514L89.4888 62.6348L79.7129 60.7178L77.5217 68.1244L80.4714 68.9087Z" fill="#2E353A" stroke="#2E353A" stroke-linecap="round" stroke-linejoin="round"/>
<path d="M81.722 65.2001L85.7942 66.2283" stroke="white" stroke-linecap="round" stroke-linejoin="round"/>
<path d="M81.3276 66.2283L85.3998 67.2566" stroke="white" stroke-linecap="round" stroke-linejoin="round"/>
<path d="M73.8136 69.3444C73.8136 69.3444 75.8362 68.2116 76.5104 67.2531C77.1846 66.2946 77.9431 64.639 78.2802 64.3776C78.6173 64.1161 80.3028 63.2448 80.6399 62.9834C80.977 62.722 81.4827 63.2448 80.8927 63.7676C80.3028 64.2904 79.0387 65.4232 79.0387 65.4232C79.0387 65.4232 79.3758 66.9917 78.9544 67.5145C78.729 67.8027 78.4747 68.0656 78.1959 68.2987L80.4714 68.9087C80.4714 68.9087 78.9544 70.0415 78.2802 70.2157C77.6123 70.3486 76.9366 70.436 76.2576 70.4771L73.4765 72.7427L73.8136 69.3444Z" fill="white" stroke="#2E353A" stroke-linecap="round" stroke-linejoin="round"/>
<path d="M64.7119 50.3102C64.7119 50.3102 62.0151 54.3707 61.3409 59.1249C60.6667 63.8791 61.1184 83.0179 61.1184 83.0179C61.1184 83.0179 64.7052 84.5236 67.5233 84.5236C70.3415 84.5236 74.4777 84.7571 74.6024 83.1294C74.7272 81.5017 73.817 62.8335 72.5798 58.3093C71.723 55.3574 70.4751 52.5423 68.8717 49.9442C68.8717 49.9442 66.0603 47.9888 64.7119 50.3102Z" fill="#2E353A" stroke="#2E353A" stroke-linecap="round" stroke-linejoin="round"/>
<path d="M70.864 53.834L67.2402 77.7095L70.4426 78.9294L71.8753 56.0124L70.864 53.834Z" fill="white" stroke="#2E353A" stroke-linecap="round" stroke-linejoin="round"/>
<path d="M62.841 41.0597C62.841 41.0597 63.2894 43.2625 64.1894 44.4232C65.0895 45.5839 66.7682 46.1659 66.7682 46.1659L66.2862 48.8044L69.428 50.7772L70.5808 45.1203L70.9179 38.3933C70.9179 38.3933 63.05 39.784 62.841 41.0597Z" fill="white" stroke="#2E353A" stroke-linecap="round" stroke-linejoin="round"/>
<path d="M62.841 41.0597C62.841 41.0597 63.2894 43.2625 64.1894 44.4232C65.0895 45.5839 66.7682 46.1659 66.7682 46.1659C66.7682 46.1659 69.465 45.3538 69.6842 43.4995C69.846 42.1611 69.6033 39.8642 69.4516 38.6826C67.1627 39.1497 63.0028 40.1361 62.841 41.0597Z" fill="#2E353A" stroke="#2E353A" stroke-linecap="round" stroke-linejoin="round"/>
<path d="M67.4323 41.6348C67.4323 41.6348 66.3098 40.2406 65.639 40.8227C64.9681 41.4048 65.1873 43.029 65.9761 43.8411C66.7649 44.6532 67.7728 43.9561 67.7728 43.9561C67.7728 43.9561 68.2212 45.4619 69.0066 46.159C69.792 46.8561 72.4821 47.3196 73.3889 46.6225C74.2957 45.9254 73.9485 43.3741 73.9485 43.3741C73.9485 43.3741 75.5194 42.5619 75.4081 41.9799C75.2969 41.3978 74.171 40.9342 74.171 40.4741C74.1615 40.123 74.1243 39.7733 74.0597 39.4285V38.4979L68.9021 39.6585C68.9021 39.6585 68.2245 42.3319 67.4323 41.6348Z" fill="white"/>
<g style="mix-blend-mode:multiply" opacity="0.5">
<g style="mix-blend-mode:multiply" opacity="0.5">
<path d="M68.8987 39.669C68.754 40.2291 68.5434 40.7687 68.2717 41.2758C70.2943 41.1817 72.4551 41.0492 74.3901 40.875C74.271 40.777 74.1916 40.6365 74.1676 40.4811C74.1581 40.13 74.1209 39.7803 74.0563 39.4355V38.4979L68.8987 39.669Z" fill="#92E3A9"/>
</g>
</g>
<path d="M67.4323 41.6348C67.4323 41.6348 66.3098 40.2406 65.639 40.8227C64.9681 41.4048 65.1873 43.029 65.9761 43.8411C66.7649 44.6532 67.7728 43.9561 67.7728 43.9561C67.7728 43.9561 68.2212 45.4619 69.0066 46.159C69.792 46.8561 72.4821 47.3196 73.3889 46.6225C74.2957 45.9254 73.9485 43.3741 73.9485 43.3741C73.9485 43.3741 75.5194 42.5619 75.4081 41.9799C75.2969 41.3978 74.171 40.9342 74.171 40.4741C74.1615 40.123 74.1243 39.7733 74.0597 39.4285V38.4979L68.9021 39.6585C68.9021 39.6585 68.2245 42.3319 67.4323 41.6348Z" stroke="#2E353A" stroke-linecap="round" stroke-linejoin="round"/>
<path d="M62.841 41.0597L74.0564 38.4979C74.0564 38.4979 72.4855 32.8131 70.5809 32.3495C68.6762 31.8859 64.9715 31.6524 62.9523 33.7437C60.9331 35.835 62.841 41.0597 62.841 41.0597Z" fill="white" stroke="#2E353A" stroke-linecap="round" stroke-linejoin="round"/>
<path d="M70.355 39.4355C71.8332 39.7749 73.3324 40.0078 74.8418 40.1326C76.8644 40.2476 81.4591 38.3898 80.3399 38.2748C79.2207 38.1598 74.0564 38.5083 74.0564 38.5083L70.355 39.4355Z" fill="#2E353A" stroke="#2E353A" stroke-linecap="round" stroke-linejoin="round"/>
<path d="M65.1637 47.8738L64.1524 50.1951L69.2021 53.4401L70.2101 50.1951L65.1637 47.8738Z" fill="white" stroke="#2E353A" stroke-linecap="round" stroke-linejoin="round"/>
<path d="M54.7675 72.1327L72.7181 76.9253L70.8539 90.4977C70.8234 90.7196 70.7479 90.9323 70.6323 91.1219C70.5167 91.3115 70.3636 91.4737 70.1831 91.5977C70.0026 91.7218 69.7988 91.8051 69.585 91.8419C69.3712 91.8788 69.1522 91.8685 68.9426 91.8117L52.6235 87.427C52.3173 87.3453 52.0538 87.1436 51.8889 86.8644C51.724 86.5853 51.6707 86.2508 51.7403 85.9317L54.7675 72.1327Z" fill="white" stroke="#2E353A" stroke-linecap="round" stroke-linejoin="round"/>
<path d="M54.7675 72.1327C54.7675 72.1327 59.0048 82.7634 61.6005 84.1576C64.1962 85.5518 72.7248 76.9357 72.7248 76.9357" stroke="#2E353A" stroke-linecap="round" stroke-linejoin="round"/>
<path d="M58.3306 67.4761C58.3306 67.4761 57.2081 70.0275 57.5452 70.9616C57.8823 71.8957 71.791 77.11 71.791 77.11C71.791 77.11 71.9023 79.0793 72.2394 79.5498C72.528 80.0604 72.7545 80.606 72.9136 81.1741C72.9136 81.1741 72.2394 82.7983 72.5765 83.1469C72.9136 83.4954 73.9249 81.5226 73.9249 80.944C73.9249 80.3654 74.0361 77.232 73.7024 76.4129C73.3687 75.5938 63.8287 69.5709 63.8287 69.5709L58.3306 67.4761Z" fill="white" stroke="#2E353A" stroke-linecap="round" stroke-linejoin="round"/>
<path d="M64.4894 53.5586L57.9834 67.8212L63.8152 69.5639L68.5279 58.1978" fill="#2E353A"/>
<path d="M64.4894 53.5586L57.9834 67.8212L63.8152 69.5639L68.5279 58.1978" stroke="#2E353A" stroke-linecap="round" stroke-linejoin="round"/>
<path d="M63.8152 69.5639L68.1099 59.6059" stroke="white" stroke-linecap="round" stroke-linejoin="round"/>
<path d="M66.6368 63.2622L68.7976 61.028" stroke="white" stroke-linecap="round" stroke-linejoin="round"/>
<path d="M60.2319 100.515C62.9247 101.959 65.9505 102.606 68.9763 102.387" stroke="#2E353A" stroke-linecap="round" stroke-linejoin="round"/>
<path d="M58.7688 99.6018C58.7688 99.6018 59.0284 99.804 59.5105 100.104" stroke="#2E353A" stroke-linecap="round" stroke-linejoin="round"/>
<path d="M80.6331 99.6959C81.0614 99.4557 81.4766 99.1916 81.877 98.9047" stroke="#2E353A" stroke-linecap="round" stroke-linejoin="round"/>
<path d="M72.0034 101.934C74.6351 101.897 77.2329 101.314 79.6421 100.219" stroke="#2E353A" stroke-linecap="round" stroke-linejoin="round"/>
<path d="M70.8842 95.1962L73.3046 90.8637" stroke="#2E353A" stroke-linecap="round" stroke-linejoin="round"/>
<path d="M71.0157 94.9696L75.0508 90.2398" stroke="#2E353A" stroke-linecap="round" stroke-linejoin="round"/>
<path d="M60.724 93.0909L60.3869 95.6632C61.2149 96.2622 62.1235 96.732 63.0837 97.0574C64.6985 97.6151 68.1402 97.5454 68.1402 97.5454L68.6122 95.1055C68.6122 95.1055 62.6253 94.4084 61.4151 93.3628" stroke="#2E353A" stroke-linecap="round" stroke-linejoin="round"/>
<path d="M60.3229 96.6357C60.3229 96.6357 59.379 99.0023 59.9858 99.56C60.5926 100.118 64.894 101.784 66.0536 101.651C67.2132 101.519 67.8672 98.591 67.8672 98.591" stroke="#2E353A" stroke-linecap="round" stroke-linejoin="round"/>
<path d="M94.5487 123.969C94.9296 122.609 93.5778 123.293 93.0081 123.732C92.2699 124.3 88.5854 124.777 88.5854 124.777L88.137 123.732C87.4615 124.346 86.6882 124.834 85.8515 125.175C86.8325 127.189 87.6179 128.772 87.9617 128.831C88.9427 129.012 90.4394 127.716 91.1676 127.189C92.0946 126.517 94.2217 125.15 94.5487 123.969Z" fill="#2E353A" stroke="#2E353A" stroke-linecap="round" stroke-linejoin="round"/>
<path d="M91.7473 125.872C90.2304 126.687 88.4606 127.677 87.4392 128.232C87.6617 128.58 87.8404 128.807 87.9617 128.828C88.9427 129.009 90.4394 127.712 91.1675 127.186C92.0946 126.517 94.2217 125.15 94.5385 123.969C94.7003 123.397 94.5385 123.188 94.2857 123.171C93.7261 124.14 92.8564 125.286 91.7473 125.872Z" fill="white" stroke="#2E353A" stroke-linecap="round" stroke-linejoin="round"/>
<path d="M57.0636 128.915C56.9018 128.789 55.0713 127.461 55.1286 127.297C55.1286 127.297 55.4961 126.276 56.059 124.763C55.0937 124.639 54.1498 124.376 53.2544 123.983C52.3577 126.799 51.5689 129.19 51.7913 129.539C52.2397 130.284 56.2141 131.313 57.7479 131.313C58.5536 131.313 59.8885 131.633 60.4211 130.821C60.4514 130.776 57.2692 129.072 57.0636 128.915Z" fill="white" stroke="#2E353A" stroke-linecap="round" stroke-linejoin="round"/>
<path d="M60.4201 130.821C60.4504 130.776 57.2682 129.078 57.0491 128.915C56.83 128.751 55.0568 127.461 55.1141 127.297L55.4715 126.311C54.5425 126.137 53.6324 125.868 52.7544 125.509C52.0802 127.622 51.6049 129.253 51.7768 129.539C52.2252 130.284 56.1996 131.313 57.7334 131.313C58.5525 131.313 59.8875 131.633 60.4201 130.821Z" fill="#2E353A" stroke="#2E353A" stroke-linecap="round" stroke-linejoin="round"/>
<path d="M57.2658 130.542C55.1993 130.413 52.9037 129.535 51.7812 129.054C51.7361 129.212 51.7361 129.38 51.7812 129.539C52.2295 130.284 56.2039 131.313 57.7377 131.313C58.5434 131.313 59.8783 131.633 60.4109 130.821C60.2605 130.711 60.1015 130.615 59.9356 130.532C59.047 130.599 58.1549 130.603 57.2658 130.542Z" fill="white" stroke="#2E353A" stroke-linecap="round" stroke-linejoin="round"/>
<path d="M69.7718 39.4459L67.9717 35.0229" stroke="black" stroke-linecap="round" stroke-linejoin="round"/>
<path d="M67.7459 34.2107C67.7459 34.2107 67.1829 32.9281 67.6346 32.346" stroke="black" stroke-linecap="round" stroke-linejoin="round"/>
</svg>
